<svg xmlns="http://www.w3.org/2000/svg" xmlns:xlink="http://www.w3.org/1999/xlink"><symbol fill="none" viewBox="0 0 162 148" id="BigDiamond-dark" xmlns="http://www.w3.org/2000/svg"><path fill-rule="evenodd" clip-rule="evenodd" d="M14.335 51.997a1.365 1.365 0 0 1 1.892-.387l9.46 6.25a1.365 1.365 0 0 1-1.504 2.278l-9.46-6.25a1.365 1.365 0 0 1-.388-1.891zM8.532 69.162a1.365 1.365 0 0 1 1.55-1.15l13.773 2.038a1.365 1.365 0 0 1-.4 2.701L9.683 70.713a1.365 1.365 0 0 1-1.15-1.55zM27.633 82.61c.541.525.556 1.39.031 1.931l-7.267 7.507a1.365 1.365 0 0 1-1.961-1.899l7.266-7.507a1.365 1.365 0 0 1 1.93-.031zM139.394 46.658c.59.47.688 1.328.218 1.919l-6.548 8.232a1.366 1.366 0 0 1-2.137-1.7l6.549-8.232a1.365 1.365 0 0 1 1.918-.219zM133.642 68.447a1.365 1.365 0 0 1 1.394-1.335l14.942.326a1.365 1.365 0 1 1-.059 2.73l-14.942-.326a1.365 1.365 0 0 1-1.335-1.395zM127.624 81.94a1.365 1.365 0 0 1 1.824-.633l10.568 5.124a1.365 1.365 0 0 1-1.192 2.457l-10.567-5.124a1.366 1.366 0 0 1-.633-1.824z" fill="#fff"/><path d="M62.07 129.197l-3.884-37.98-24.032-22.54 27.916 60.52z" fill="#95D5D2"/><path d="M94.043 89.32L61.705 91.29l3.516 43.579 28.822-45.55z" fill="#F67D6D"/><path d="M38.347 61.737l10.937-14.583L64.28 68.542l-5.264 18.66-22.96-21.363 2.29-4.102z" fill="#00CB77"/><path d="M120.351 81.995l-49.757 48.268L98.45 88.554l21.9-6.559z" fill="#1CB0A8"/><path d="M105.195 49.791a1.582 1.582 0 0 0-.139.087L85.929 65.38 66.378 66.82 51.354 45.403l-.532-.532 25.784-5.221 28.589 10.141z" fill="#EF4056"/><path fill-rule="evenodd" clip-rule="evenodd" d="M94.729 86.327l-32.56 1.977 5.228-18.775 18.846-1.398 8.486 18.196z" fill="#FCB643"/><path d="M121.709 78.471l-23.85 7.37-8.79-18.805L108.01 51.54s12.121 23.864 13.699 26.931z" fill="#F9BFD1"/></symbol><symbol fill="none" viewBox="0 0 144 115" id="BigDiamond-light" xmlns="http://www.w3.org/2000/svg"><path fill-rule="evenodd" clip-rule="evenodd" d="M6.335 31.997a1.365 1.365 0 0 1 1.892-.386l9.46 6.25a1.365 1.365 0 0 1-1.504 2.278l-9.46-6.25a1.365 1.365 0 0 1-.388-1.892zM.531 49.162a1.365 1.365 0 0 1 1.55-1.15l13.774 2.038a1.365 1.365 0 0 1-.4 2.701L1.682 50.713a1.365 1.365 0 0 1-1.15-1.55zM19.633 62.611c.541.525.555 1.389.031 1.93l-7.267 7.508a1.365 1.365 0 1 1-1.962-1.9l7.267-7.506a1.365 1.365 0 0 1 1.93-.032zM131.394 26.658c.59.47.688 1.328.218 1.918l-6.548 8.233a1.366 1.366 0 0 1-2.137-1.7l6.548-8.232a1.366 1.366 0 0 1 1.919-.219zM125.641 48.448a1.366 1.366 0 0 1 1.395-1.336l14.942.326a1.365 1.365 0 0 1-.06 2.73l-14.942-.326a1.366 1.366 0 0 1-1.335-1.394zM119.624 61.94a1.365 1.365 0 0 1 1.824-.633l10.567 5.124a1.365 1.365 0 1 1-1.191 2.457l-10.567-5.124a1.365 1.365 0 0 1-.633-1.824z" fill="#1A1A1A"/><path d="M54.07 109.197l-3.884-37.98-24.032-22.54 27.916 60.52z" fill="#95D5D2"/><path d="M86.043 69.32L53.705 71.29l3.517 43.579 28.821-45.55z" fill="#F67D6D"/><path d="M30.347 41.737l10.937-14.583L56.28 48.542l-5.263 18.66L28.056 45.84l2.291-4.102z" fill="#00CB77"/><path d="M112.351 61.995l-49.757 48.268L90.45 68.554l21.9-6.559z" fill="#1CB0A8"/><path d="M97.195 29.791a1.636 1.636 0 0 0-.139.087L77.93 45.38 58.378 46.82 43.355 25.403l-.533-.532 25.785-5.221L97.195 29.79z" fill="#EF4056"/><path fill-rule="evenodd" clip-rule="evenodd" d="M86.73 66.327l-32.56 1.977 5.228-18.775 18.845-1.398 8.486 18.196z" fill="#FCB643"/><path d="M113.709 58.471l-23.85 7.37-8.79-18.805L100.01 31.54s12.121 23.864 13.699 26.931z" fill="#F9BFD1"/></symbol><symbol fill="none" viewBox="0 0 144 115" id="BigDiamond-sepia" xmlns="http://www.w3.org/2000/svg"><path fill-rule="evenodd" clip-rule="evenodd" d="M6.335 31.997a1.365 1.365 0 0 1 1.892-.386l9.46 6.25a1.365 1.365 0 0 1-1.504 2.278l-9.46-6.25a1.365 1.365 0 0 1-.388-1.892zM.531 49.162a1.365 1.365 0 0 1 1.55-1.15l13.774 2.038a1.365 1.365 0 0 1-.4 2.701L1.682 50.713a1.365 1.365 0 0 1-1.15-1.55zM19.633 62.611c.541.525.555 1.389.031 1.93l-7.267 7.508a1.365 1.365 0 1 1-1.962-1.9l7.267-7.506a1.365 1.365 0 0 1 1.93-.032zM131.394 26.658c.59.47.688 1.328.218 1.918l-6.548 8.233a1.366 1.366 0 0 1-2.137-1.7l6.548-8.232a1.366 1.366 0 0 1 1.919-.219zM125.641 48.448a1.366 1.366 0 0 1 1.395-1.336l14.942.326a1.365 1.365 0 0 1-.06 2.73l-14.942-.326a1.366 1.366 0 0 1-1.335-1.394zM119.624 61.94a1.365 1.365 0 0 1 1.824-.633l10.567 5.124a1.365 1.365 0 1 1-1.191 2.457l-10.567-5.124a1.365 1.365 0 0 1-.633-1.824z" fill="#1A1A1A"/><path d="M54.07 109.197l-3.884-37.98-24.032-22.54 27.916 60.52z" fill="#95D5D2"/><path d="M86.043 69.32L53.705 71.29l3.517 43.579 28.821-45.55z" fill="#F67D6D"/><path d="M30.347 41.737l10.937-14.583L56.28 48.542l-5.263 18.66L28.056 45.84l2.291-4.102z" fill="#00CB77"/><path d="M112.351 61.995l-49.757 48.268L90.45 68.554l21.9-6.559z" fill="#1CB0A8"/><path d="M97.195 29.791a1.636 1.636 0 0 0-.139.087L77.93 45.38 58.378 46.82 43.355 25.403l-.533-.532 25.785-5.221L97.195 29.79z" fill="#EF4056"/><path fill-rule="evenodd" clip-rule="evenodd" d="M86.73 66.327l-32.56 1.977 5.228-18.775 18.845-1.398 8.486 18.196z" fill="#FCB643"/><path d="M113.709 58.471l-23.85 7.37-8.79-18.805L100.01 31.54s12.121 23.864 13.699 26.931z" fill="#F9BFD1"/></symbol><symbol fill="none" viewBox="0 0 117 107" id="Diamond-dark" xmlns="http://www.w3.org/2000/svg"><path d="M49.89 5.43L38.192 30.083h39.69L66.18 5.43h-16.29z" fill="#EF3C58"/><path d="M78.537 38.446H37.536L58.09 95.462l20.446-57.016z" fill="#13AEA0"/><path d="M50.546 92.638L28.678 38.446H6.155l44.39 54.192z" fill="#91CFAC"/><path d="M87.392 38.446L66.18 92.638l44.063-54.192H87.392z" fill="#95D5D2"/><path d="M87.173 30.083h20.446L92.859 6.408c-.438-.652-1.094-.978-1.86-.978H75.584l11.59 24.653z" fill="#FBB549"/><path d="M28.898 30.083L40.488 5.43h-13.23c-.766 0-1.422.326-1.75.978L9.764 30.083h19.134z" fill="#F9C0D1"/></symbol><symbol fill="none" viewBox="0 0 117 107" id="Diamond-light" xmlns="http://www.w3.org/2000/svg"><path d="M49.89 5.43L38.192 30.083h39.69L66.18 5.43h-16.29z" fill="#EF3C58"/><path d="M78.537 38.446H37.536L58.09 95.462l20.446-57.016z" fill="#13AEA0"/><path d="M50.546 92.638L28.678 38.446H6.155l44.39 54.192z" fill="#91CFAC"/><path d="M87.392 38.446L66.18 92.638l44.063-54.192H87.392z" fill="#95D5D2"/><path d="M87.173 30.083h20.446L92.859 6.408c-.438-.652-1.094-.978-1.86-.978H75.584l11.59 24.653z" fill="#FBB549"/><path d="M28.898 30.083L40.488 5.43h-13.23c-.766 0-1.422.326-1.75.978L9.764 30.083h19.134z" fill="#F9C0D1"/></symbol><symbol fill="none" viewBox="0 0 117 107" id="Diamond-sepia" xmlns="http://www.w3.org/2000/svg"><path d="M49.89 5.43L38.192 30.083h39.69L66.18 5.43h-16.29z" fill="#EF3C58"/><path d="M78.537 38.446H37.536L58.09 95.462l20.446-57.016z" fill="#13AEA0"/><path d="M50.546 92.638L28.678 38.446H6.155l44.39 54.192z" fill="#91CFAC"/><path d="M87.392 38.446L66.18 92.638l44.063-54.192H87.392z" fill="#95D5D2"/><path d="M87.173 30.083h20.446L92.859 6.408c-.438-.652-1.094-.978-1.86-.978H75.584l11.59 24.653z" fill="#FBB549"/><path d="M28.898 30.083L40.488 5.43h-13.23c-.766 0-1.422.326-1.75.978L9.764 30.083h19.134z" fill="#F9C0D1"/></symbol><symbol fill="none" viewBox="0 0 223 125" id="Focused-dark" xmlns="http://www.w3.org/2000/svg"><path d="M0 32.36l184.97 29.96H0V32.36z" fill="#FBB54A"/><path d="M0 0v32.36l184.97 29.96L0 0z" fill="#EF3A58"/><path d="M0 43.54V23.27l184.97 39.05L0 43.54z" fill="#F9BFD1"/><path d="M0 92.31l184.97-29.96H0v29.96z" fill="#82ECB7"/><path d="M0 124.68V92.31l184.97-29.96L0 124.68z" fill="#18AFA1"/><path d="M0 79.58v19.59l184.97-36.82L0 79.58z" fill="#95D5D2"/><path d="M180.28 63.45H0v-2.2h180.28c3.78 0 41.33-.67 41.71-.68l.04 2.2c-.38.01-37.95.68-41.75.68z" fill="#fff"/></symbol><symbol fill="none" viewBox="0 0 223 125" id="Focused-light" xmlns="http://www.w3.org/2000/svg"><path d="M0 32.36l184.97 29.96H0V32.36z" fill="#FBB54A"/><path d="M0 0v32.36l184.97 29.96L0 0z" fill="#EF3A58"/><path d="M0 43.54V23.27l184.97 39.05L0 43.54z" fill="#F9BFD1"/><path d="M0 92.31l184.97-29.96H0v29.96z" fill="#82ECB7"/><path d="M0 124.68V92.31l184.97-29.96L0 124.68z" fill="#18AFA1"/><path d="M0 79.58v19.59l184.97-36.82L0 79.58z" fill="#95D5D2"/><path d="M180.28 63.45H0v-2.2h180.28c3.78 0 41.33-.67 41.71-.68l.04 2.2c-.38.01-37.95.68-41.75.68z" fill="#221F1F"/></symbol><symbol fill="none" viewBox="0 0 223 125" id="Focused-sepia" xmlns="http://www.w3.org/2000/svg"><path d="M0 32.36l184.97 29.96H0V32.36z" fill="#FBB54A"/><path d="M0 0v32.36l184.97 29.96L0 0z" fill="#EF3A58"/><path d="M0 43.54V23.27l184.97 39.05L0 43.54z" fill="#F9BFD1"/><path d="M0 92.31l184.97-29.96H0v29.96z" fill="#82ECB7"/><path d="M0 124.68V92.31l184.97-29.96L0 124.68z" fill="#18AFA1"/><path d="M0 79.58v19.59l184.97-36.82L0 79.58z" fill="#95D5D2"/><path d="M180.28 63.45H0v-2.2h180.28c3.78 0 41.33-.67 41.71-.68l.04 2.2c-.38.01-37.95.68-41.75.68z" fill="#221F1F"/></symbol><symbol fill="none" viewBox="0 0 211 133" id="Highlight-dark" xmlns="http://www.w3.org/2000/svg"><path d="M144.61 78.4H58.2V104h86.41V78.4z" fill="#95D5D2"/><path d="M19.43 113.14a9.08 9.08 0 1 0 0-18.16 9.08 9.08 0 1 0 0 18.16z" fill="#F9BFD1"/><path d="M120.3 9.08a4.54 4.54 0 1 0 0-9.08 4.54 4.54 0 0 0 0 9.08z" fill="#EF3A58"/><path d="M206.87 88.83l3.73 23.13-21.9-8.34 18.17-14.79z" fill="#18AFA1"/><path d="M22.67 38.96l-6.19 22.6L0 44.9l22.67-5.94z" fill="#82ECB7"/><path d="M34.19 4.42l9.39 7.01-10.77 4.62 1.38-11.63z" fill="#18AFA1"/><path d="M148.67 18.22l4.93 10.62-11.67-1.04 6.74-9.58z" fill="#82ECB7"/><path d="M91.844 20.844L80.44 14.856 74.452 26.26l11.404 5.988 5.988-11.404z" fill="#FBB54A"/><path d="M83.93 60.17l5.86 10.14H78.07l5.86-10.14zM101.79 60.17l5.86 10.14H95.94l5.85-10.14zM119.66 60.17l5.86 10.14H113.8l5.86-10.14z" fill="#18AFA1"/><path d="M173.75 71.61a6.37 6.37 0 1 0 0-12.74 6.37 6.37 0 0 0 0 12.74zM83.15 95.68a5.08 5.08 0 1 0 0-10.16 5.08 5.08 0 0 0 0 10.16zM101.4 95.68a5.08 5.08 0 1 0 0-10.16 5.08 5.08 0 0 0 0 10.16zM119.66 95.68a5.08 5.08 0 1 0 0-10.16 5.08 5.08 0 0 0 0 10.16z" fill="#EF3A58"/><path d="M88.22 110.89H78.07v10.15h10.15v-10.15zM106.48 110.89H96.33v10.15h10.15v-10.15zM124.74 110.89h-10.15v10.15h10.15v-10.15z" fill="#FBB54A"/><path d="M174.435 114.591l-9.674-3.072-3.073 9.674 9.674 3.072 3.073-9.674z" fill="#F9BFD1"/><path d="M144.61 48.77H58.2v2.2h86.41v-2.2zM144.61 130.2H58.2v2.2h86.41v-2.2z" fill="#fff"/></symbol><symbol fill="none" viewBox="0 0 211 133" id="Highlight-light" xmlns="http://www.w3.org/2000/svg"><path d="M144.61 78.4H58.2V104h86.41V78.4z" fill="#95D5D2"/><path d="M19.43 113.14a9.08 9.08 0 1 0 0-18.16 9.08 9.08 0 1 0 0 18.16z" fill="#F9BFD1"/><path d="M120.3 9.08a4.54 4.54 0 1 0 0-9.08 4.54 4.54 0 0 0 0 9.08z" fill="#EF3A58"/><path d="M206.87 88.83l3.73 23.13-21.9-8.34 18.17-14.79z" fill="#18AFA1"/><path d="M22.67 38.96l-6.19 22.6L0 44.9l22.67-5.94z" fill="#82ECB7"/><path d="M34.19 4.42l9.39 7.01-10.77 4.62 1.38-11.63z" fill="#18AFA1"/><path d="M148.67 18.22l4.93 10.62-11.67-1.04 6.74-9.58z" fill="#82ECB7"/><path d="M91.844 20.844L80.44 14.856 74.452 26.26l11.404 5.988 5.988-11.404z" fill="#FBB54A"/><path d="M83.93 60.17l5.86 10.14H78.07l5.86-10.14zM101.79 60.17l5.86 10.14H95.94l5.85-10.14zM119.66 60.17l5.86 10.14H113.8l5.86-10.14z" fill="#18AFA1"/><path d="M173.75 71.61a6.37 6.37 0 1 0 0-12.74 6.37 6.37 0 0 0 0 12.74zM83.15 95.68a5.08 5.08 0 1 0 0-10.16 5.08 5.08 0 0 0 0 10.16zM101.4 95.68a5.08 5.08 0 1 0 0-10.16 5.08 5.08 0 0 0 0 10.16zM119.66 95.68a5.08 5.08 0 1 0 0-10.16 5.08 5.08 0 0 0 0 10.16z" fill="#EF3A58"/><path d="M88.22 110.89H78.07v10.15h10.15v-10.15zM106.48 110.89H96.33v10.15h10.15v-10.15zM124.74 110.89h-10.15v10.15h10.15v-10.15z" fill="#FBB54A"/><path d="M174.435 114.591l-9.674-3.072-3.073 9.674 9.674 3.072 3.073-9.674z" fill="#F9BFD1"/><path d="M144.61 48.77H58.2v2.2h86.41v-2.2zM144.61 130.2H58.2v2.2h86.41v-2.2z" fill="#221F1F"/></symbol><symbol fill="none" viewBox="0 0 211 133" id="Highlight-sepia" xmlns="http://www.w3.org/2000/svg"><path d="M144.61 78.4H58.2V104h86.41V78.4z" fill="#95D5D2"/><path d="M19.43 113.14a9.08 9.08 0 1 0 0-18.16 9.08 9.08 0 1 0 0 18.16z" fill="#F9BFD1"/><path d="M120.3 9.08a4.54 4.54 0 1 0 0-9.08 4.54 4.54 0 0 0 0 9.08z" fill="#EF3A58"/><path d="M206.87 88.83l3.73 23.13-21.9-8.34 18.17-14.79z" fill="#18AFA1"/><path d="M22.67 38.96l-6.19 22.6L0 44.9l22.67-5.94z" fill="#82ECB7"/><path d="M34.19 4.42l9.39 7.01-10.77 4.62 1.38-11.63z" fill="#18AFA1"/><path d="M148.67 18.22l4.93 10.62-11.67-1.04 6.74-9.58z" fill="#82ECB7"/><path d="M91.844 20.844L80.44 14.856 74.452 26.26l11.404 5.988 5.988-11.404z" fill="#FBB54A"/><path d="M83.93 60.17l5.86 10.14H78.07l5.86-10.14zM101.79 60.17l5.86 10.14H95.94l5.85-10.14zM119.66 60.17l5.86 10.14H113.8l5.86-10.14z" fill="#18AFA1"/><path d="M173.75 71.61a6.37 6.37 0 1 0 0-12.74 6.37 6.37 0 0 0 0 12.74zM83.15 95.68a5.08 5.08 0 1 0 0-10.16 5.08 5.08 0 0 0 0 10.16zM101.4 95.68a5.08 5.08 0 1 0 0-10.16 5.08 5.08 0 0 0 0 10.16zM119.66 95.68a5.08 5.08 0 1 0 0-10.16 5.08 5.08 0 0 0 0 10.16z" fill="#EF3A58"/><path d="M88.22 110.89H78.07v10.15h10.15v-10.15zM106.48 110.89H96.33v10.15h10.15v-10.15zM124.74 110.89h-10.15v10.15h10.15v-10.15z" fill="#FBB54A"/><path d="M174.435 114.591l-9.674-3.072-3.073 9.674 9.674 3.072 3.073-9.674z" fill="#F9BFD1"/><path d="M144.61 48.77H58.2v2.2h86.41v-2.2zM144.61 130.2H58.2v2.2h86.41v-2.2z" fill="#221F1F"/></symbol><symbol fill="none" viewBox="0 0 143 95" id="HighlightsAlt-dark" xmlns="http://www.w3.org/2000/svg"><path d="M142.48 19.42H0v15.87h142.48V19.42zM83.32 40.89H0v15.87h83.32V40.89z" fill="#82ECB7"/><path d="M131.44 11.15c-6.63 0-9.97-2.38-13.2-4.68-3.08-2.2-5.99-4.27-11.92-4.27S97.48 4.28 94.4 6.47c-3.23 2.3-6.57 4.68-13.2 4.68-6.63 0-9.97-2.38-13.2-4.68-3.08-2.2-5.99-4.27-11.92-4.27s-8.84 2.08-11.92 4.27c-3.23 2.3-6.57 4.68-13.2 4.68-6.63 0-9.97-2.38-13.2-4.68-3.08-2.2-5.99-4.27-11.92-4.27V0c6.63 0 9.97 2.38 13.2 4.68 3.08 2.2 5.99 4.27 11.92 4.27s8.84-2.08 11.92-4.27C46.11 2.38 49.45 0 56.08 0c6.63 0 9.97 2.38 13.2 4.68 3.08 2.2 5.99 4.27 11.92 4.27s8.84-2.08 11.92-4.27C96.35 2.38 99.69 0 106.32 0c6.63 0 9.97 2.38 13.2 4.68 3.08 2.2 5.99 4.27 11.92 4.27v2.2z" fill="#fff"/><path d="M131.44 26.34H5.83v2.2h125.61v-2.2zM131.44 47.2H5.83v2.2h125.61v-2.2z" fill="#1A1A1A"/><path d="M131.44 73.75c-6.63 0-9.97-2.38-13.2-4.68-3.08-2.2-5.99-4.27-11.92-4.27s-8.84 2.08-11.92 4.27c-3.23 2.3-6.57 4.68-13.2 4.68-6.63 0-9.97-2.38-13.2-4.68-3.08-2.2-5.99-4.27-11.92-4.27s-8.84 2.08-11.92 4.27c-3.23 2.3-6.57 4.68-13.2 4.68-6.63 0-9.97-2.38-13.2-4.68-3.08-2.2-5.99-4.27-11.92-4.27v-2.2c6.63 0 9.97 2.38 13.2 4.68 3.08 2.2 5.99 4.27 11.92 4.27s8.84-2.08 11.92-4.27c3.23-2.3 6.57-4.68 13.2-4.68 6.63 0 9.97 2.38 13.2 4.68 3.08 2.2 5.99 4.27 11.92 4.27s8.84-2.08 11.92-4.27c3.23-2.3 6.57-4.68 13.2-4.68 6.63 0 9.97 2.38 13.2 4.68 3.08 2.2 5.99 4.27 11.92 4.27v2.2zM131.44 94.62c-6.63 0-9.97-2.38-13.2-4.68-3.08-2.2-5.99-4.27-11.92-4.27s-8.84 2.08-11.92 4.27c-3.23 2.3-6.57 4.68-13.2 4.68-6.63 0-9.97-2.38-13.2-4.68-3.08-2.2-5.99-4.27-11.92-4.27s-8.84 2.08-11.92 4.27c-3.23 2.3-6.57 4.68-13.2 4.68-6.63 0-9.97-2.38-13.2-4.68-3.08-2.2-5.99-4.27-11.92-4.27v-2.2c6.63 0 9.97 2.38 13.2 4.68 3.08 2.2 5.99 4.27 11.92 4.27s8.84-2.08 11.92-4.27c3.23-2.3 6.57-4.68 13.2-4.68 6.63 0 9.97 2.38 13.2 4.68 3.08 2.2 5.99 4.27 11.92 4.27s8.84-2.08 11.92-4.27c3.23-2.3 6.57-4.68 13.2-4.68 6.63 0 9.97 2.38 13.2 4.68 3.08 2.2 5.99 4.27 11.92 4.27v2.2zM131.68 47.43h-48v2h48v-2z" fill="#fff"/></symbol><symbol fill="none" viewBox="0 0 143 95" id="HighlightsAlt-light" xmlns="http://www.w3.org/2000/svg"><path d="M142.48 19.42H0v15.87h142.48V19.42zM83.32 40.89H0v15.87h83.32V40.89z" fill="#82ECB7"/><path d="M131.44 11.15c-6.63 0-9.97-2.38-13.2-4.68-3.08-2.2-5.99-4.27-11.92-4.27S97.48 4.28 94.4 6.47c-3.23 2.3-6.57 4.68-13.2 4.68-6.63 0-9.97-2.38-13.2-4.68-3.08-2.2-5.99-4.27-11.92-4.27s-8.84 2.08-11.92 4.27c-3.23 2.3-6.57 4.68-13.2 4.68-6.63 0-9.97-2.38-13.2-4.68-3.08-2.2-5.99-4.27-11.92-4.27V0c6.63 0 9.97 2.38 13.2 4.68 3.08 2.2 5.99 4.27 11.92 4.27s8.84-2.08 11.92-4.27C46.11 2.38 49.45 0 56.08 0c6.63 0 9.97 2.38 13.2 4.68 3.08 2.2 5.99 4.27 11.92 4.27s8.84-2.08 11.92-4.27C96.35 2.38 99.69 0 106.32 0c6.63 0 9.97 2.38 13.2 4.68 3.08 2.2 5.99 4.27 11.92 4.27v2.2zM131.44 25.34H5.83v2.2h125.61v-2.2zM131.44 46.2H5.83v2.2h125.61v-2.2zM131.44 73.75c-6.63 0-9.97-2.38-13.2-4.68-3.08-2.2-5.99-4.27-11.92-4.27s-8.84 2.08-11.92 4.27c-3.23 2.3-6.57 4.68-13.2 4.68-6.63 0-9.97-2.38-13.2-4.68-3.08-2.2-5.99-4.27-11.92-4.27s-8.84 2.08-11.92 4.27c-3.23 2.3-6.57 4.68-13.2 4.68-6.63 0-9.97-2.38-13.2-4.68-3.08-2.2-5.99-4.27-11.92-4.27v-2.2c6.63 0 9.97 2.38 13.2 4.68 3.08 2.2 5.99 4.27 11.92 4.27s8.84-2.08 11.92-4.27c3.23-2.3 6.57-4.68 13.2-4.68 6.63 0 9.97 2.38 13.2 4.68 3.08 2.2 5.99 4.27 11.92 4.27s8.84-2.08 11.92-4.27c3.23-2.3 6.57-4.68 13.2-4.68 6.63 0 9.97 2.38 13.2 4.68 3.08 2.2 5.99 4.27 11.92 4.27v2.2zM131.44 94.62c-6.63 0-9.97-2.38-13.2-4.68-3.08-2.2-5.99-4.27-11.92-4.27s-8.84 2.08-11.92 4.27c-3.23 2.3-6.57 4.68-13.2 4.68-6.63 0-9.97-2.38-13.2-4.68-3.08-2.2-5.99-4.27-11.92-4.27s-8.84 2.08-11.92 4.27c-3.23 2.3-6.57 4.68-13.2 4.68-6.63 0-9.97-2.38-13.2-4.68-3.08-2.2-5.99-4.27-11.92-4.27v-2.2c6.63 0 9.97 2.38 13.2 4.68 3.08 2.2 5.99 4.27 11.92 4.27s8.84-2.08 11.92-4.27c3.23-2.3 6.57-4.68 13.2-4.68 6.63 0 9.97 2.38 13.2 4.68 3.08 2.2 5.99 4.27 11.92 4.27s8.84-2.08 11.92-4.27c3.23-2.3 6.57-4.68 13.2-4.68 6.63 0 9.97 2.38 13.2 4.68 3.08 2.2 5.99 4.27 11.92 4.27v2.2z" fill="#221F1F"/></symbol><symbol fill="none" viewBox="0 0 143 95" id="HighlightsAlt-sepia" xmlns="http://www.w3.org/2000/svg"><path d="M142.48 19.42H0v15.87h142.48V19.42zM83.32 40.89H0v15.87h83.32V40.89z" fill="#82ECB7"/><path d="M131.44 11.15c-6.63 0-9.97-2.38-13.2-4.68-3.08-2.2-5.99-4.27-11.92-4.27S97.48 4.28 94.4 6.47c-3.23 2.3-6.57 4.68-13.2 4.68-6.63 0-9.97-2.38-13.2-4.68-3.08-2.2-5.99-4.27-11.92-4.27s-8.84 2.08-11.92 4.27c-3.23 2.3-6.57 4.68-13.2 4.68-6.63 0-9.97-2.38-13.2-4.68-3.08-2.2-5.99-4.27-11.92-4.27V0c6.63 0 9.97 2.38 13.2 4.68 3.08 2.2 5.99 4.27 11.92 4.27s8.84-2.08 11.92-4.27C46.11 2.38 49.45 0 56.08 0c6.63 0 9.97 2.38 13.2 4.68 3.08 2.2 5.99 4.27 11.92 4.27s8.84-2.08 11.92-4.27C96.35 2.38 99.69 0 106.32 0c6.63 0 9.97 2.38 13.2 4.68 3.08 2.2 5.99 4.27 11.92 4.27v2.2zM131.44 25.34H5.83v2.2h125.61v-2.2zM131.44 46.2H5.83v2.2h125.61v-2.2zM131.44 73.75c-6.63 0-9.97-2.38-13.2-4.68-3.08-2.2-5.99-4.27-11.92-4.27s-8.84 2.08-11.92 4.27c-3.23 2.3-6.57 4.68-13.2 4.68-6.63 0-9.97-2.38-13.2-4.68-3.08-2.2-5.99-4.27-11.92-4.27s-8.84 2.08-11.92 4.27c-3.23 2.3-6.57 4.68-13.2 4.68-6.63 0-9.97-2.38-13.2-4.68-3.08-2.2-5.99-4.27-11.92-4.27v-2.2c6.63 0 9.97 2.38 13.2 4.68 3.08 2.2 5.99 4.27 11.92 4.27s8.84-2.08 11.92-4.27c3.23-2.3 6.57-4.68 13.2-4.68 6.63 0 9.97 2.38 13.2 4.68 3.08 2.2 5.99 4.27 11.92 4.27s8.84-2.08 11.92-4.27c3.23-2.3 6.57-4.68 13.2-4.68 6.63 0 9.97 2.38 13.2 4.68 3.08 2.2 5.99 4.27 11.92 4.27v2.2zM131.44 94.62c-6.63 0-9.97-2.38-13.2-4.68-3.08-2.2-5.99-4.27-11.92-4.27s-8.84 2.08-11.92 4.27c-3.23 2.3-6.57 4.68-13.2 4.68-6.63 0-9.97-2.38-13.2-4.68-3.08-2.2-5.99-4.27-11.92-4.27s-8.84 2.08-11.92 4.27c-3.23 2.3-6.57 4.68-13.2 4.68-6.63 0-9.97-2.38-13.2-4.68-3.08-2.2-5.99-4.27-11.92-4.27v-2.2c6.63 0 9.97 2.38 13.2 4.68 3.08 2.2 5.99 4.27 11.92 4.27s8.84-2.08 11.92-4.27c3.23-2.3 6.57-4.68 13.2-4.68 6.63 0 9.97 2.38 13.2 4.68 3.08 2.2 5.99 4.27 11.92 4.27s8.84-2.08 11.92-4.27c3.23-2.3 6.57-4.68 13.2-4.68 6.63 0 9.97 2.38 13.2 4.68 3.08 2.2 5.99 4.27 11.92 4.27v2.2z" fill="#221F1F"/></symbol><symbol fill="none" viewBox="0 0 130 122" id="Library-dark" xmlns="http://www.w3.org/2000/svg"><path d="M60.19 0H35.2v121.38h24.99V0z" fill="#EF3A58"/><path d="M97.68 0H72.69v121.38h24.99V0z" fill="#F9BFD1"/><path d="M110.18 7.65h-12.5v113.73h12.5V7.65z" fill="#82ECB7"/><path d="M35.2 7.65H15.87v113.73H35.2V7.65z" fill="#FBB54A"/><path d="M129.65 37.26h-19.33v84.12h19.33V37.26zM15.87 46.5H0v74.88h15.87V46.5z" fill="#18AFA1"/><path d="M72.69 23.82h-12.5v97.56h12.5V23.82z" fill="#95D5D2"/><path d="M39.11 92.152l-1.556 1.555 16.468 16.469 1.556-1.556-16.469-16.468z" fill="#221F1F"/><path d="M54.06 92.114l-16.468 16.468 1.556 1.556 16.468-16.469-1.555-1.555zM94.74 22.72H75.63v2.2h19.11v-2.2zM94.74 27.47H75.63v2.2h19.11v-2.2zM117.52 110.36h-2.2c0-3.69 2.09-5.56 3.94-7.21 1.72-1.54 3.2-2.87 3.2-5.57s-1.48-4.03-3.2-5.57c-1.85-1.65-3.94-3.52-3.94-7.21 0-3.68 2.09-5.55 3.94-7.2 1.72-1.54 3.2-2.86 3.2-5.56 0-2.7-1.48-4.03-3.2-5.57-1.85-1.65-3.94-3.52-3.94-7.21 0-3.68 2.09-5.55 3.94-7.2 1.72-1.54 3.2-2.86 3.2-5.56h2.2c0 3.68-2.09 5.55-3.94 7.2-1.72 1.54-3.2 2.86-3.2 5.56 0 2.7 1.48 4.03 3.2 5.57 1.85 1.65 3.94 3.52 3.94 7.21 0 3.68-2.09 5.55-3.94 7.2-1.72 1.54-3.2 2.86-3.2 5.56 0 2.7 1.48 4.03 3.2 5.57 1.85 1.65 3.94 3.52 3.94 7.21s-2.09 5.56-3.94 7.21c-1.72 1.54-3.2 2.87-3.2 5.57z" fill="#221F1F"/></symbol><symbol fill="none" viewBox="0 0 130 122" id="Library-light" xmlns="http://www.w3.org/2000/svg"><path d="M60.19 0H35.2v121.38h24.99V0z" fill="#EF3A58"/><path d="M97.68 0H72.69v121.38h24.99V0z" fill="#F9BFD1"/><path d="M110.18 7.65h-12.5v113.73h12.5V7.65z" fill="#82ECB7"/><path d="M35.2 7.65H15.87v113.73H35.2V7.65z" fill="#FBB54A"/><path d="M129.65 37.26h-19.33v84.12h19.33V37.26zM15.87 46.5H0v74.88h15.87V46.5z" fill="#18AFA1"/><path d="M72.69 23.82h-12.5v97.56h12.5V23.82z" fill="#95D5D2"/><path d="M39.11 92.152l-1.556 1.555 16.468 16.469 1.556-1.556-16.469-16.468z" fill="#221F1F"/><path d="M54.06 92.114l-16.468 16.468 1.556 1.556 16.468-16.469-1.555-1.555zM94.74 22.72H75.63v2.2h19.11v-2.2zM94.74 27.47H75.63v2.2h19.11v-2.2zM117.52 110.36h-2.2c0-3.69 2.09-5.56 3.94-7.21 1.72-1.54 3.2-2.87 3.2-5.57s-1.48-4.03-3.2-5.57c-1.85-1.65-3.94-3.52-3.94-7.21 0-3.68 2.09-5.55 3.94-7.2 1.72-1.54 3.2-2.86 3.2-5.56 0-2.7-1.48-4.03-3.2-5.57-1.85-1.65-3.94-3.52-3.94-7.21 0-3.68 2.09-5.55 3.94-7.2 1.72-1.54 3.2-2.86 3.2-5.56h2.2c0 3.68-2.09 5.55-3.94 7.2-1.72 1.54-3.2 2.86-3.2 5.56 0 2.7 1.48 4.03 3.2 5.57 1.85 1.65 3.94 3.52 3.94 7.21 0 3.68-2.09 5.55-3.94 7.2-1.72 1.54-3.2 2.86-3.2 5.56 0 2.7 1.48 4.03 3.2 5.57 1.85 1.65 3.94 3.52 3.94 7.21s-2.09 5.56-3.94 7.21c-1.72 1.54-3.2 2.87-3.2 5.57z" fill="#221F1F"/></symbol><symbol fill="none" viewBox="0 0 130 122" id="Library-sepia" xmlns="http://www.w3.org/2000/svg"><path d="M60.19 0H35.2v121.38h24.99V0z" fill="#EF3A58"/><path d="M97.68 0H72.69v121.38h24.99V0z" fill="#F9BFD1"/><path d="M110.18 7.65h-12.5v113.73h12.5V7.65z" fill="#82ECB7"/><path d="M35.2 7.65H15.87v113.73H35.2V7.65z" fill="#FBB54A"/><path d="M129.65 37.26h-19.33v84.12h19.33V37.26zM15.87 46.5H0v74.88h15.87V46.5z" fill="#18AFA1"/><path d="M72.69 23.82h-12.5v97.56h12.5V23.82z" fill="#95D5D2"/><path d="M39.11 92.152l-1.556 1.555 16.468 16.469 1.556-1.556-16.469-16.468z" fill="#221F1F"/><path d="M54.06 92.114l-16.468 16.468 1.556 1.556 16.468-16.469-1.555-1.555zM94.74 22.72H75.63v2.2h19.11v-2.2zM94.74 27.47H75.63v2.2h19.11v-2.2zM117.52 110.36h-2.2c0-3.69 2.09-5.56 3.94-7.21 1.72-1.54 3.2-2.87 3.2-5.57s-1.48-4.03-3.2-5.57c-1.85-1.65-3.94-3.52-3.94-7.21 0-3.68 2.09-5.55 3.94-7.2 1.72-1.54 3.2-2.86 3.2-5.56 0-2.7-1.48-4.03-3.2-5.57-1.85-1.65-3.94-3.52-3.94-7.21 0-3.68 2.09-5.55 3.94-7.2 1.72-1.54 3.2-2.86 3.2-5.56h2.2c0 3.68-2.09 5.55-3.94 7.2-1.72 1.54-3.2 2.86-3.2 5.56 0 2.7 1.48 4.03 3.2 5.57 1.85 1.65 3.94 3.52 3.94 7.21 0 3.68-2.09 5.55-3.94 7.2-1.72 1.54-3.2 2.86-3.2 5.56 0 2.7 1.48 4.03 3.2 5.57 1.85 1.65 3.94 3.52 3.94 7.21s-2.09 5.56-3.94 7.21c-1.72 1.54-3.2 2.87-3.2 5.57z" fill="#221F1F"/></symbol><symbol fill="none" viewBox="0 0 189 140" id="Search-dark" xmlns="http://www.w3.org/2000/svg"><path d="M128.53 24.83H22.94v82.36h105.59V24.83z" fill="#EF3A58"/><path d="M105.59 56.1H0v79.47h105.59V56.1z" fill="#F9BFD1"/><path d="M92.11 75.74H12.12v2.2h79.99v-2.2zM92.11 89.86H12.12v2.2h79.99v-2.2z" fill="#221F1F"/><path d="M92.11 72.09H58.18v9.08h33.93v-9.08zM92.11 86.5H65.93v8.93h26.18V86.5z" fill="#221F1F"/><path d="M188.747 131.547l-45.438-45.439-7.573 7.573 45.438 45.439 7.573-7.573z" fill="#18AFA1"/><path d="M110.32 112.45c28.95-2.3 51.73-26.53 51.73-56.09v-.18C161.96 25.19 136.81.09 105.79.09h-.05c-3.87 0-7.64.39-11.28 1.14-2.36.48-4.66 1.11-6.89 1.87-1.07.36-2.11.75-3.16 1.18-1.04.41-2.05.87-3.05 1.37-.59.29-1.18.57-1.75.87-.55.29-1.11.59-1.66.91-.55.3-1.09.62-1.62.96-16.01 9.87-26.7 27.56-26.78 47.77v.18c0 4.11.45 8.1 1.27 11.96.11.59.25 1.18.41 1.77.38 1.46.8 2.91 1.29 4.32.55 1.68 1.21 3.32 1.93 4.94.29.61.57 1.21.86 1.82.87 1.8 1.86 3.53 2.95 5.21 1.25 1.96 2.62 3.84 4.09 5.64.32.39.66.77.98 1.16 10.28 11.92 25.51 19.44 42.48 19.44 1.49.03 3.01-.03 4.51-.15zM60.98 56.36v-.18c.09-24.65 20.1-44.61 44.77-44.63h.04c24.76 0 44.8 20.06 44.8 44.8 0 .34 0 .68-.02 1.02-.54 23.85-19.69 43.11-43.52 43.75-.41.04-.84.04-1.27.04h-.04c-24.72-.01-44.76-20.08-44.76-44.8z" fill="#82ECB7"/><path d="M60.98 56.36H49.47v-.18c.07-20.21 10.78-37.93 26.85-47.77.54-.34 1.07-.66 1.62-.96a47.488 47.488 0 0 1 3.41-1.78c1-.5 2.02-.96 3.05-1.37 1.05-.43 2.09-.82 3.16-1.18 2.23-.77 4.53-1.39 6.89-1.87C98.09.5 101.86.11 105.73.11l.02 11.46c-24.67.02-44.68 19.97-44.77 44.63v.16z" fill="#95D5D2"/><path d="M105.73 112.45c-16.92 0-32.1-7.48-42.43-19.26-.32-.39-.66-.77-.98-1.16a61.35 61.35 0 0 1-4.09-5.64 60.63 60.63 0 0 1-2.95-5.21c-.29-.61-.57-1.21-.86-1.82a59.406 59.406 0 0 1-3.22-9.26c-.16-.59-.3-1.18-.41-1.77a55.49 55.49 0 0 1-1.34-11.96v-.18h11.51v.18c0 24.72 20.05 44.79 44.77 44.8v11.28zM105.66 0c16.92 0 32.1 7.48 42.43 19.26.32.39.66.77.98 1.16a61.35 61.35 0 0 1 4.09 5.64c1.07 1.68 2.05 3.43 2.95 5.21.29.61.57 1.21.86 1.82a59.406 59.406 0 0 1 3.22 9.26c.16.59.3 1.18.41 1.77a55.49 55.49 0 0 1 1.34 11.96v.18h-11.51v-.18c0-24.72-20.05-44.79-44.77-44.8V0z" fill="#18AFA1"/></symbol><symbol fill="none" viewBox="0 0 189 140" id="Search-light" xmlns="http://www.w3.org/2000/svg"><path d="M128.53 24.83H22.94v82.36h105.59V24.83z" fill="#EF3A58"/><path d="M105.59 56.1H0v79.47h105.59V56.1z" fill="#F9BFD1"/><path d="M92.11 75.74H12.12v2.2h79.99v-2.2zM92.11 89.86H12.12v2.2h79.99v-2.2z" fill="#221F1F"/><path d="M92.11 72.09H58.18v9.08h33.93v-9.08zM92.11 86.5H65.93v8.93h26.18V86.5z" fill="#221F1F"/><path d="M188.747 131.547l-45.438-45.439-7.573 7.573 45.438 45.439 7.573-7.573z" fill="#18AFA1"/><path d="M110.32 112.45c28.95-2.3 51.73-26.53 51.73-56.09v-.18C161.96 25.19 136.81.09 105.79.09h-.05c-3.87 0-7.64.39-11.28 1.14-2.36.48-4.66 1.11-6.89 1.87-1.07.36-2.11.75-3.16 1.18-1.04.41-2.05.87-3.05 1.37-.59.29-1.18.57-1.75.87-.55.29-1.11.59-1.66.91-.55.3-1.09.62-1.62.96-16.01 9.87-26.7 27.56-26.78 47.77v.18c0 4.11.45 8.1 1.27 11.96.11.59.25 1.18.41 1.77.38 1.46.8 2.91 1.29 4.32.55 1.68 1.21 3.32 1.93 4.94.29.61.57 1.21.86 1.82.87 1.8 1.86 3.53 2.95 5.21 1.25 1.96 2.62 3.84 4.09 5.64.32.39.66.77.98 1.16 10.28 11.92 25.51 19.44 42.48 19.44 1.49.03 3.01-.03 4.51-.15zM60.98 56.36v-.18c.09-24.65 20.1-44.61 44.77-44.63h.04c24.76 0 44.8 20.06 44.8 44.8 0 .34 0 .68-.02 1.02-.54 23.85-19.69 43.11-43.52 43.75-.41.04-.84.04-1.27.04h-.04c-24.72-.01-44.76-20.08-44.76-44.8z" fill="#82ECB7"/><path d="M60.98 56.36H49.47v-.18c.07-20.21 10.78-37.93 26.85-47.77.54-.34 1.07-.66 1.62-.96a47.488 47.488 0 0 1 3.41-1.78c1-.5 2.02-.96 3.05-1.37 1.05-.43 2.09-.82 3.16-1.18 2.23-.77 4.53-1.39 6.89-1.87C98.09.5 101.86.11 105.73.11l.02 11.46c-24.67.02-44.68 19.97-44.77 44.63v.16z" fill="#95D5D2"/><path d="M105.73 112.45c-16.92 0-32.1-7.48-42.43-19.26-.32-.39-.66-.77-.98-1.16a61.35 61.35 0 0 1-4.09-5.64 60.63 60.63 0 0 1-2.95-5.21c-.29-.61-.57-1.21-.86-1.82a59.406 59.406 0 0 1-3.22-9.26c-.16-.59-.3-1.18-.41-1.77a55.49 55.49 0 0 1-1.34-11.96v-.18h11.51v.18c0 24.72 20.05 44.79 44.77 44.8v11.28zM105.66 0c16.92 0 32.1 7.48 42.43 19.26.32.39.66.77.98 1.16a61.35 61.35 0 0 1 4.09 5.64c1.07 1.68 2.05 3.43 2.95 5.21.29.61.57 1.21.86 1.82a59.406 59.406 0 0 1 3.22 9.26c.16.59.3 1.18.41 1.77a55.49 55.49 0 0 1 1.34 11.96v.18h-11.51v-.18c0-24.72-20.05-44.79-44.77-44.8V0z" fill="#18AFA1"/></symbol><symbol fill="none" viewBox="0 0 189 140" id="Search-sepia" xmlns="http://www.w3.org/2000/svg"><path d="M128.53 24.83H22.94v82.36h105.59V24.83z" fill="#EF3A58"/><path d="M105.59 56.1H0v79.47h105.59V56.1z" fill="#F9BFD1"/><path d="M92.11 75.74H12.12v2.2h79.99v-2.2zM92.11 89.86H12.12v2.2h79.99v-2.2z" fill="#221F1F"/><path d="M92.11 72.09H58.18v9.08h33.93v-9.08zM92.11 86.5H65.93v8.93h26.18V86.5z" fill="#221F1F"/><path d="M188.747 131.547l-45.438-45.439-7.573 7.573 45.438 45.439 7.573-7.573z" fill="#18AFA1"/><path d="M110.32 112.45c28.95-2.3 51.73-26.53 51.73-56.09v-.18C161.96 25.19 136.81.09 105.79.09h-.05c-3.87 0-7.64.39-11.28 1.14-2.36.48-4.66 1.11-6.89 1.87-1.07.36-2.11.75-3.16 1.18-1.04.41-2.05.87-3.05 1.37-.59.29-1.18.57-1.75.87-.55.29-1.11.59-1.66.91-.55.3-1.09.62-1.62.96-16.01 9.87-26.7 27.56-26.78 47.77v.18c0 4.11.45 8.1 1.27 11.96.11.59.25 1.18.41 1.77.38 1.46.8 2.91 1.29 4.32.55 1.68 1.21 3.32 1.93 4.94.29.61.57 1.21.86 1.82.87 1.8 1.86 3.53 2.95 5.21 1.25 1.96 2.62 3.84 4.09 5.64.32.39.66.77.98 1.16 10.28 11.92 25.51 19.44 42.48 19.44 1.49.03 3.01-.03 4.51-.15zM60.98 56.36v-.18c.09-24.65 20.1-44.61 44.77-44.63h.04c24.76 0 44.8 20.06 44.8 44.8 0 .34 0 .68-.02 1.02-.54 23.85-19.69 43.11-43.52 43.75-.41.04-.84.04-1.27.04h-.04c-24.72-.01-44.76-20.08-44.76-44.8z" fill="#82ECB7"/><path d="M60.98 56.36H49.47v-.18c.07-20.21 10.78-37.93 26.85-47.77.54-.34 1.07-.66 1.62-.96a47.488 47.488 0 0 1 3.41-1.78c1-.5 2.02-.96 3.05-1.37 1.05-.43 2.09-.82 3.16-1.18 2.23-.77 4.53-1.39 6.89-1.87C98.09.5 101.86.11 105.73.11l.02 11.46c-24.67.02-44.68 19.97-44.77 44.63v.16z" fill="#95D5D2"/><path d="M105.73 112.45c-16.92 0-32.1-7.48-42.43-19.26-.32-.39-.66-.77-.98-1.16a61.35 61.35 0 0 1-4.09-5.64 60.63 60.63 0 0 1-2.95-5.21c-.29-.61-.57-1.21-.86-1.82a59.406 59.406 0 0 1-3.22-9.26c-.16-.59-.3-1.18-.41-1.77a55.49 55.49 0 0 1-1.34-11.96v-.18h11.51v.18c0 24.72 20.05 44.79 44.77 44.8v11.28zM105.66 0c16.92 0 32.1 7.48 42.43 19.26.32.39.66.77.98 1.16a61.35 61.35 0 0 1 4.09 5.64c1.07 1.68 2.05 3.43 2.95 5.21.29.61.57 1.21.86 1.82a59.406 59.406 0 0 1 3.22 9.26c.16.59.3 1.18.41 1.77a55.49 55.49 0 0 1 1.34 11.96v.18h-11.51v-.18c0-24.72-20.05-44.79-44.77-44.8V0z" fill="#18AFA1"/></symbol><symbol fill="none" viewBox="0 0 129 100" id="Tags-dark" xmlns="http://www.w3.org/2000/svg"><path d="M35.837 22.17L22.217 9.71c-3.95-3.61-9.48-4.2-14.1-1.49-4.62 2.71-6.81 7.82-5.58 13.03l-2.14.5c-1.45-6.17 1.15-12.22 6.61-15.43 5.47-3.2 12.02-2.51 16.69 1.77l13.62 12.46-1.48 1.62z" fill="#F2F2F2"/><path d="M128.117 41.89l-79.57.19-.1-41.9" fill="#EF3A58"/><path d="M48.447.18l79.58-.18.09 41.89" fill="#95D5D2"/><path d="M48.547 42.08l-24.67-20.89L48.447.18l.1 41.9z" fill="#FBB54A"/><path d="M38.397 25.77a4.62 4.62 0 1 0 0-9.24 4.62 4.62 0 0 0 0 9.24z" fill="#1A1A1A"/><path d="M.537 56.85l79.57.73-.38 41.89" fill="#82ECB7"/><path d="M79.727 99.47l-79.58-.73.39-41.89" fill="#FBB54A"/><path d="M112.427 89.91c-2.28 0-4.54-.56-6.63-1.67l-16.3-8.66 1.03-1.94 16.3 8.66c3.29 1.75 7.13 1.87 10.53.33 3.4-1.54 5.84-4.51 6.69-8.14l2.14.5c-1.01 4.3-3.9 7.82-7.92 9.64-1.87.86-3.86 1.28-5.84 1.28z" fill="#F2F2F2"/><path d="M80.107 57.58l24.42 21.17-24.8 20.72.38-41.89z" fill="#EF3A58"/><path d="M90.016 83.23a4.62 4.62 0 1 0 0-9.24 4.62 4.62 0 0 0 0 9.24z" fill="#1A1A1A"/><path d="M90.757 79.42l-1.49-1.62 13.62-12.46c4.68-4.28 11.23-4.97 16.69-1.77 5.47 3.2 8.06 9.26 6.61 15.43l-2.14-.5c1.22-5.21-.97-10.32-5.58-13.03-4.61-2.71-10.15-2.12-14.09 1.49l-13.62 12.46zM14.177 32.66c-1.98 0-3.97-.42-5.84-1.27a14.035 14.035 0 0 1-7.92-9.64l2.14-.5c.85 3.63 3.29 6.6 6.69 8.14 3.4 1.54 7.24 1.42 10.53-.33l16.3-8.66 1.03 1.94-16.3 8.66a14.105 14.105 0 0 1-6.63 1.66z" fill="#F2F2F2"/></symbol><symbol fill="none" viewBox="0 0 129 100" id="Tags-light" xmlns="http://www.w3.org/2000/svg"><path d="M35.837 22.17L22.217 9.71c-3.95-3.61-9.48-4.2-14.1-1.49-4.62 2.71-6.81 7.82-5.58 13.03l-2.14.5c-1.45-6.17 1.15-12.22 6.61-15.43 5.47-3.2 12.02-2.51 16.69 1.77l13.62 12.46-1.48 1.62z" fill="#221F1F"/><path d="M128.117 41.89l-79.57.19-.1-41.9" fill="#EF3A58"/><path d="M48.447.18l79.58-.18.09 41.89" fill="#95D5D2"/><path d="M48.547 42.08l-24.67-20.89L48.447.18l.1 41.9z" fill="#FBB54A"/><path d="M38.397 25.77a4.62 4.62 0 1 0 0-9.24 4.62 4.62 0 0 0 0 9.24z" fill="#fff"/><path d="M.537 56.85l79.57.73-.38 41.89" fill="#82ECB7"/><path d="M79.727 99.47l-79.58-.73.39-41.89" fill="#FBB54A"/><path d="M112.427 89.91c-2.28 0-4.54-.56-6.63-1.67l-16.3-8.66 1.03-1.94 16.3 8.66c3.29 1.75 7.13 1.87 10.53.33 3.4-1.54 5.84-4.51 6.69-8.14l2.14.5c-1.01 4.3-3.9 7.82-7.92 9.64-1.87.86-3.86 1.28-5.84 1.28z" fill="#221F1F"/><path d="M80.107 57.58l24.42 21.17-24.8 20.72.38-41.89z" fill="#EF3A58"/><path d="M90.016 83.23a4.62 4.62 0 1 0 0-9.24 4.62 4.62 0 0 0 0 9.24z" fill="#fff"/><path d="M90.757 79.42l-1.49-1.62 13.62-12.46c4.68-4.28 11.23-4.97 16.69-1.77 5.47 3.2 8.06 9.26 6.61 15.43l-2.14-.5c1.22-5.21-.97-10.32-5.58-13.03-4.61-2.71-10.15-2.12-14.09 1.49l-13.62 12.46zM14.177 32.66c-1.98 0-3.97-.42-5.84-1.27a14.035 14.035 0 0 1-7.92-9.64l2.14-.5c.85 3.63 3.29 6.6 6.69 8.14 3.4 1.54 7.24 1.42 10.53-.33l16.3-8.66 1.03 1.94-16.3 8.66a14.105 14.105 0 0 1-6.63 1.66z" fill="#221F1F"/></symbol><symbol fill="none" viewBox="0 0 129 100" id="Tags-sepia" xmlns="http://www.w3.org/2000/svg"><path d="M35.837 22.17L22.217 9.71c-3.95-3.61-9.48-4.2-14.1-1.49-4.62 2.71-6.81 7.82-5.58 13.03l-2.14.5c-1.45-6.17 1.15-12.22 6.61-15.43 5.47-3.2 12.02-2.51 16.69 1.77l13.62 12.46-1.48 1.62z" fill="#221F1F"/><path d="M128.117 41.89l-79.57.19-.1-41.9" fill="#EF3A58"/><path d="M48.447.18l79.58-.18.09 41.89" fill="#95D5D2"/><path d="M48.547 42.08l-24.67-20.89L48.447.18l.1 41.9z" fill="#FBB54A"/><path d="M38.397 25.77a4.62 4.62 0 1 0 0-9.24 4.62 4.62 0 0 0 0 9.24z" fill="#fff"/><path d="M.537 56.85l79.57.73-.38 41.89" fill="#82ECB7"/><path d="M79.727 99.47l-79.58-.73.39-41.89" fill="#FBB54A"/><path d="M112.427 89.91c-2.28 0-4.54-.56-6.63-1.67l-16.3-8.66 1.03-1.94 16.3 8.66c3.29 1.75 7.13 1.87 10.53.33 3.4-1.54 5.84-4.51 6.69-8.14l2.14.5c-1.01 4.3-3.9 7.82-7.92 9.64-1.87.86-3.86 1.28-5.84 1.28z" fill="#221F1F"/><path d="M80.107 57.58l24.42 21.17-24.8 20.72.38-41.89z" fill="#EF3A58"/><path d="M90.016 83.23a4.62 4.62 0 1 0 0-9.24 4.62 4.62 0 0 0 0 9.24z" fill="#fff"/><path d="M90.757 79.42l-1.49-1.62 13.62-12.46c4.68-4.28 11.23-4.97 16.69-1.77 5.47 3.2 8.06 9.26 6.61 15.43l-2.14-.5c1.22-5.21-.97-10.32-5.58-13.03-4.61-2.71-10.15-2.12-14.09 1.49l-13.62 12.46zM14.177 32.66c-1.98 0-3.97-.42-5.84-1.27a14.035 14.035 0 0 1-7.92-9.64l2.14-.5c.85 3.63 3.29 6.6 6.69 8.14 3.4 1.54 7.24 1.42 10.53-.33l16.3-8.66 1.03 1.94-16.3 8.66a14.105 14.105 0 0 1-6.63 1.66z" fill="#221F1F"/></symbol><symbol fill="none" viewBox="0 0 142 81" id="Type-dark" xmlns="http://www.w3.org/2000/svg"><path d="M141.67 59.2H0v2.2h141.67v-2.2zM92.77 40H56.88v2.2h35.89V40zM92.77 20.8H56.88V23h35.89v-2.2zM141.67 78.4H0v2.2h141.67v-2.2zM141.67 1.6H56.88v2.2h84.79V1.6z" fill="#fff"/><path d="M46.95 0H0v46.95h46.95V0z" fill="#82ECB7"/><path d="M0 0h46.95v46.95L0 0z" fill="#95D5D2"/><path d="M46.95 0v46.95l-22.7-22.71L46.95 0z" fill="#EF3A58"/><path d="M0 0v46.95l24.25-22.71L0 0z" fill="#FBB54A"/><path d="M128.9 47.26l-1.44-4.27h-12.62l-1.44 4.27h-5.81l11.61-33.6h3.89l11.61 33.6h-5.8zm-7.73-24.43l-4.66 15.21h9.26l-4.6-15.21z" fill="#EF3A58"/></symbol><symbol fill="none" viewBox="0 0 142 81" id="Type-light" xmlns="http://www.w3.org/2000/svg"><path d="M141.67 59.2H0v2.2h141.67v-2.2zM92.77 40H56.88v2.2h35.89V40zM92.77 20.8H56.88V23h35.89v-2.2zM141.67 78.4H0v2.2h141.67v-2.2zM141.67 1.6H56.88v2.2h84.79V1.6z" fill="#221F1F"/><path d="M46.95 0H0v46.95h46.95V0z" fill="#82ECB7"/><path d="M0 0h46.95v46.95L0 0z" fill="#95D5D2"/><path d="M46.95 0v46.95l-22.7-22.71L46.95 0z" fill="#EF3A58"/><path d="M0 0v46.95l24.25-22.71L0 0z" fill="#FBB54A"/><path d="M128.9 47.26l-1.44-4.27h-12.62l-1.44 4.27h-5.81l11.61-33.6h3.89l11.61 33.6h-5.8zm-7.73-24.43l-4.66 15.21h9.26l-4.6-15.21z" fill="#EF3A58"/></symbol><symbol fill="none" viewBox="0 0 142 81" id="Type-sepia" xmlns="http://www.w3.org/2000/svg"><path d="M141.67 59.2H0v2.2h141.67v-2.2zM92.77 40H56.88v2.2h35.89V40zM92.77 20.8H56.88V23h35.89v-2.2zM141.67 78.4H0v2.2h141.67v-2.2zM141.67 1.6H56.88v2.2h84.79V1.6z" fill="#221F1F"/><path d="M46.95 0H0v46.95h46.95V0z" fill="#82ECB7"/><path d="M0 0h46.95v46.95L0 0z" fill="#95D5D2"/><path d="M46.95 0v46.95l-22.7-22.71L46.95 0z" fill="#EF3A58"/><path d="M0 0v46.95l24.25-22.71L0 0z" fill="#FBB54A"/><path d="M128.9 47.26l-1.44-4.27h-12.62l-1.44 4.27h-5.81l11.61-33.6h3.89l11.61 33.6h-5.8zm-7.73-24.43l-4.66 15.21h9.26l-4.6-15.21z" fill="#EF3A58"/></symbol></svg>
