<svg xmlns="http://www.w3.org/2000/svg" xmlns:xlink="http://www.w3.org/1999/xlink"><symbol viewBox="0 0 24 24" id="15Back" xmlns="http://www.w3.org/2000/svg"><g fill-rule="evenodd"><path d="M11.955 2c5.522 0 10 4.475 10 10s-4.477 10-10 10c-5.216 0-9.5-3.995-9.959-9.09a1 1 0 1 0-1.992.18C.555 19.205 5.695 24 11.955 24c6.627 0 12-5.375 12-12s-5.373-12-12-12c-3.77 0-7.133 1.74-9.333 4.455v-1.82c0-.55-.448-1-1-1-.553 0-1 .45-1 1V7.38c-.001.825.671 1.5 1.5 1.5h3.742c.553 0 1-.45 1-1 0-.555-.447-1-1-1h-2.5A9.994 9.994 0 0 1 11.954 2zm-1.294 14.15h-1.62V10.6l-1.45.95v-1.38L9.241 9h1.42v7.15zm6.626-2.38c0 1.52-1.09 2.49-2.739 2.49-1.761 0-2.58-.96-2.65-2.24h1.49c.09.6.33 1 1.149 1 .73 0 1.12-.51 1.12-1.27 0-.77-.439-1.25-1.16-1.25-.67 0-1.08.24-1.369.57h-.9L12.326 9h4.53v1.23h-3.32l-.029 1.79c.279-.34.779-.66 1.59-.66 1.3 0 2.189.89 2.189 2.41z"/></g></symbol><symbol viewBox="0 0 24 24" id="15Skip" xmlns="http://www.w3.org/2000/svg"><g fill-rule="evenodd"><g><path d="M12 2C6.478 2 2 6.475 2 12s4.478 10 10 10c5.216 0 9.5-3.995 9.959-9.09a.999.999 0 1 1 1.992.18C23.399 19.205 18.26 24 12 24 5.373 24 0 18.625 0 12S5.373 0 12 0c3.77 0 7.133 1.74 9.333 4.455v-1.82c0-.55.448-1 1-1s1 .45 1 1V7.38c.001.825-.671 1.5-1.5 1.5h-3.742c-.553 0-1-.45-1-1 0-.555.447-1 1-1h2.5A9.995 9.995 0 0 0 12 2zM9.661 16.15h-1.62V10.6l-1.45.95v-1.38L8.24 9h1.42v7.15zm6.626-2.38c0 1.52-1.09 2.49-2.74 2.49-1.76 0-2.58-.96-2.65-2.24h1.49c.09.6.33 1 1.15 1 .73 0 1.12-.51 1.12-1.27 0-.77-.44-1.25-1.16-1.25-.67 0-1.08.24-1.37.57h-.9l.1-4.07h4.53v1.23h-3.32l-.03 1.79c.28-.34.78-.66 1.59-.66 1.3 0 2.19.89 2.19 2.41z"/></g></g></symbol><symbol viewBox="0 0 24 24" id="Activity" xmlns="http://www.w3.org/2000/svg"><path d="M21 20H3a2 2 0 0 1-2-2v-.206a3 3 0 0 1 .757-1.992C3.26 14.112 4 12.192 4 10 4 3.495 6.718 0 12 0s8 3.495 8 10c0 2.208.739 4.126 2.235 5.799a3 3 0 0 1 .765 2V18a2 2 0 0 1-2 2zm0-2.2a1 1 0 0 0-.255-.668C18.921 15.095 18 12.702 18 10c0-5.495-1.948-8-6-8s-6 2.505-6 8c0 2.685-.923 5.076-2.748 7.13a1 1 0 0 0-.252.664V18h18v-.2zM14 20a1 1 0 0 1 2 0c0 2.46-1.676 4-4 4-2.323 0-4-1.54-4-4a1 1 0 0 1 2 0c0 1.315.746 2 2 2 1.256 0 2-.684 2-2z" fill-rule="nonzero"/></symbol><symbol viewBox="0 0 24 24" id="AddTags" xmlns="http://www.w3.org/2000/svg"><path d="M2 4v7.171a1 1 0 0 0 .293.708l9 8.998a1 1 0 0 0 1.414 0l6.172-6.17a1 1 0 0 0 0-1.414l-9-9A1 1 0 0 0 9.172 4H2zm19-1h2a1 1 0 0 1 0 2h-2v2a1 1 0 0 1-2 0V5h-2a1 1 0 0 1 0-2h2V1a1 1 0 0 1 2 0v2zm-.707 8.879a3 3 0 0 1 0 4.242l-6.172 6.17a3 3 0 0 1-4.242 0l-9-8.998A3 3 0 0 1 0 11.171V3a1 1 0 0 1 1-1h8.172a3 3 0 0 1 2.12.879l9.001 9zM7 11a2 2 0 1 0 0-4 2 2 0 0 0 0 4z" fill-rule="nonzero"/></symbol><symbol viewBox="0 0 24 24" id="Archive" xmlns="http://www.w3.org/2000/svg"><path d="M4 7v13a1 1 0 0 0 1 1h14a1 1 0 0 0 1-1V7H4zM2 7a1 1 0 0 1-1-1V2a1 1 0 0 1 1-1h20a1 1 0 0 1 1 1v4a1 1 0 0 1-1 1v13a3 3 0 0 1-3 3H5a3 3 0 0 1-3-3V7zm1-4v2h18V3H3zm12.293 7.293L11 14.586l-1.293-1.293a1 1 0 1 0-1.414 1.414l2 2a1 1 0 0 0 1.414 0l5-5a1 1 0 0 0-1.414-1.414z" fill-rule="nonzero"/></symbol><symbol viewBox="0 0 24 24" id="Article" xmlns="http://www.w3.org/2000/svg"><path d="M5 2a1 1 0 0 0-1 1v18a1 1 0 0 0 1 1h14a1 1 0 0 0 1-1V3a1 1 0 0 0-1-1H5zm0-2h14a3 3 0 0 1 3 3v18a3 3 0 0 1-3 3H5a3 3 0 0 1-3-3V3a3 3 0 0 1 3-3zm3 19a1 1 0 0 1 0-2h8a1 1 0 0 1 0 2H8zm0-8a1 1 0 0 1 0-2h8a1 1 0 0 1 0 2H8zm0 4a1 1 0 0 1 0-2h8a1 1 0 0 1 0 2H8zm0-8a1 1 0 1 1 0-2h3a1 1 0 0 1 0 2H8z" fill-rule="nonzero"/></symbol><symbol viewBox="0 0 24 24" id="BackArrow" xmlns="http://www.w3.org/2000/svg"><path d="M6.414 11h14.639c1.263 0 1.263 2 0 2H6.414l6.293 6.293c.943.943-.471 2.357-1.414 1.414l-8-8A.945.945 0 0 1 3.006 12c0-.285.095-.52.287-.707l8-8c.943-.943 2.357.471 1.414 1.414L6.414 11z" fill-rule="nonzero"/></symbol><symbol viewBox="0 0 24 24" id="BackChevron" xmlns="http://www.w3.org/2000/svg"><path d="M6.293 11.293l8-8c.943-.943 2.357.471 1.414 1.414L8.414 12l7.293 7.293c.943.943-.471 2.357-1.414 1.414l-8-8A.945.945 0 0 1 6.006 12c0-.285.095-.52.287-.707z" fill-rule="nonzero"/></symbol><symbol viewBox="0 0 24 24" id="BestOf" xmlns="http://www.w3.org/2000/svg"><g fill-rule="evenodd"><path d="M22.314 11.993c.001-.447.19-.894.57-2 .08-.227.116-.468.116-.702 0-.701-.35-1.389-.968-1.815-.995-.687-1.421-.942-1.695-1.313-.27-.357-.39-.832-.76-1.932-.312-.935-1.208-1.56-2.222-1.56-1.229.007-1.73.04-2.175-.103-.441-.138-.827-.454-1.804-1.135A2.388 2.388 0 0 0 12 1c-.483 0-.967.144-1.378.433-.986.688-1.372 1.004-1.814 1.141-.443.138-.943.104-2.159.097-1.018 0-1.917.625-2.226 1.56-.37 1.1-.493 1.575-.763 1.939-.275.364-.702.619-1.692 1.306A2.224 2.224 0 0 0 1 9.291c0 .234.038.475.117.701.38 1.114.57 1.561.57 2.015 0 .447-.191.894-.57 2-.08.227-.117.468-.117.702 0 .701.35 1.382.97 1.815.99.687 1.418.942 1.691 1.313.272.357.395.832.763 1.932.31.935 1.207 1.56 2.221 1.56 1.229-.006 1.73-.04 2.175.104.441.137.827.446 1.804 1.134.41.289.893.433 1.376.433.483 0 .967-.144 1.378-.433.976-.688 1.361-.997 1.802-1.141.445-.138.948-.103 2.17-.097 1.019 0 1.918-.632 2.228-1.56.369-1.1.49-1.575.76-1.932.273-.371.7-.626 1.695-1.313A2.226 2.226 0 0 0 23 14.709c0-.234-.036-.475-.117-.701-.38-1.114-.57-1.568-.57-2.015z" stroke="#828282" stroke-width="2"/><path d="M12.44 6.85l1.45 2.67 2.568.245a.5.5 0 0 1 .326.83l-1.95 2.194.515 3.058a.5.5 0 0 1-.732.522L12 14.95l-2.617 1.42a.5.5 0 0 1-.732-.522l.515-3.058-1.95-2.194a.5.5 0 0 1 .326-.83l2.568-.246 1.45-2.67a.5.5 0 0 1 .88 0z" fill-rule="nonzero"/></g></symbol><symbol viewBox="0 0 24 24" id="Bookmark" xmlns="http://www.w3.org/2000/svg"><g fill-rule="evenodd"><path d="M3 3c0-1.655 1.343-3 3-3h12c1.657 0 3 1.345 3 3v18.9c0 1.685-1.954 2.615-3.261 1.55L12 18.79l-5.739 4.66C4.954 24.515 3 23.585 3 21.9V3zm3-1c-.553 0-1 .45-1 1v18.9l5.739-4.665a2.005 2.005 0 0 1 2.522 0L19 21.9V3c0-.55-.448-1-1-1H6z"/></g></symbol><symbol viewBox="0 0 24 24" id="CheckOpen" xmlns="http://www.w3.org/2000/svg"><g fill-rule="evenodd"><path d="M12 2C6.477 2 2 6.475 2 12s4.477 10 10 10 10-4.475 10-10S17.523 2 12 2zM0 12C0 5.375 5.372 0 12 0s12 5.375 12 12-5.372 12-12 12S0 18.625 0 12z"/></g></symbol><symbol viewBox="0 0 24 24" id="Clock" xmlns="http://www.w3.org/2000/svg"><g fill-rule="evenodd"><path d="M2 12C2 6.475 6.478 2 12 2c5.523 0 10 4.475 10 10s-4.477 10-10 10C6.478 22 2 17.525 2 12zM12 0C5.373 0 0 5.375 0 12s5.373 12 12 12 12-5.375 12-12S18.627 0 12 0zm1 7c0-.55-.447-1-1-1-.553 0-1 .45-1 1v5.94l3.324 3.045a.996.996 0 0 0 1.414-.06.997.997 0 0 0-.062-1.41L13 12.06V7z"/></g></symbol><symbol viewBox="0 0 24 24" id="CloseX" xmlns="http://www.w3.org/2000/svg"><path d="M12 13.414l-7.293 7.293c-.943.943-2.357-.471-1.414-1.414L10.586 12 3.293 4.707c-.943-.943.471-2.357 1.414-1.414L12 10.586l7.293-7.293c.943-.943 2.357.471 1.414 1.414L13.414 12l7.293 7.293c.943.943-.471 2.357-1.414 1.414L12 13.414z" fill-rule="nonzero"/></symbol><symbol viewBox="0 0 24 22" id="ColumnWidths" xmlns="http://www.w3.org/2000/svg"><path d="M5 0a1 1 0 0 1 1 1v20a1 1 0 1 1-2 0v-8.586l-2.293 2.293a1 1 0 0 1-1.414-1.414L2.586 11 .293 8.707a1 1 0 0 1 1.414-1.414L4 9.586V1a1 1 0 0 1 1-1zm16.414 11l2.293-2.293a1 1 0 0 0-1.414-1.414L20 9.586V1a1 1 0 1 0-2 0v20a1 1 0 1 0 2 0v-8.586l2.293 2.293a1 1 0 0 0 1.414-1.414L21.414 11zM16 5a1 1 0 0 1-1 1H9a1 1 0 0 1 0-2h6a1 1 0 0 1 1 1zm-4 13a1 1 0 1 0 0-2H9a1 1 0 1 0 0 2h3zm4-5a1 1 0 0 1-1 1H9a1 1 0 1 1 0-2h6a1 1 0 0 1 1 1zm-1-3a1 1 0 1 0 0-2H9a1 1 0 1 0 0 2h6z" fill-rule="evenodd"/></symbol><symbol viewBox="0 0 24 24" id="Contacts" xmlns="http://www.w3.org/2000/svg"><g fill-rule="evenodd"><path d="M5 0C3.343 0 2 1.345 2 3v18c0 1.655 1.343 3 3 3h14c1.657 0 3-1.345 3-3V3c0-1.655-1.343-3-3-3H5zm15 6V3c0-.55-.448-1-1-1h-3v4h4zm-4 2h4v8h-4V8zm-2-1V2H5c-.553 0-1 .45-1 1v18c0 .55.447 1 1 1h9V7zm6 11h-4v4h3c.552 0 1-.45 1-1v-3z"/></g></symbol><symbol viewBox="0 0 24 24" id="CopyLink" xmlns="http://www.w3.org/2000/svg"><g fill-rule="evenodd"><path d="M19.392 16.192a3 3 0 0 1-.117 4.354c-1.207 1.087-3.097.917-4.246-.231l-4.83-4.83a3 3 0 0 1 0-4.243 1 1 0 0 0-1.414-1.414 5.001 5.001 0 0 0 0 7.07l4.798 4.799c1.847 1.847 4.846 2.145 6.859.482a5 5 0 0 0 .364-7.401l-1.414-1.414a.999.999 0 1 0-1.414 1.414l1.414 1.414zM2.09 3.828a5.002 5.002 0 0 1 7.4-.364l4.95 4.95a5 5 0 0 1 0 7.07 1 1 0 0 1-1.413-1.413 3 3 0 0 0 0-4.243l-4.95-4.95a3 3 0 0 0-4.353.117c-1.088 1.207-.918 3.097.23 4.246l1.295 1.294a1 1 0 0 1-1.414 1.414l-1.263-1.262C.727 8.84.428 5.84 2.09 3.827z"/><path d="M19 1a1 1 0 0 1 2 0v6a1 1 0 0 1-2 0V1z" fill-rule="nonzero"/><path d="M23 3a1 1 0 0 1 0 2h-6a1 1 0 0 1 0-2h6z" fill-rule="nonzero"/></g></symbol><symbol viewBox="0 0 24 24" id="Delete" xmlns="http://www.w3.org/2000/svg"><path d="M2 6a1 1 0 1 1 0-2h20a1 1 0 0 1 0 2H2zm3 0v15a1 1 0 0 0 1 1h12a1 1 0 0 0 1-1V6H5zM3 21V4h18v17a3 3 0 0 1-3 3H6a3 3 0 0 1-3-3zM8 4a1 1 0 1 1-2 0V3a3 3 0 0 1 3-3h6a3 3 0 0 1 3 3v1a1 1 0 0 1-2 0V3a1 1 0 0 0-1-1H9a1 1 0 0 0-1 1v1z" fill-rule="nonzero"/></symbol><symbol viewBox="0 0 24 24" id="Discover" xmlns="http://www.w3.org/2000/svg"><path d="M6 3a3 3 0 0 0-3 3v12a3 3 0 0 0 3 3h12a3 3 0 0 0 3-3V6a3 3 0 0 0-3-3H6zm0-2h12a5 5 0 0 1 5 5v12a5 5 0 0 1-5 5H6a5 5 0 0 1-5-5V6a5 5 0 0 1 5-5zm6 9c-.6-.607-1.134-1-2.002-1C8.868 9 8 9.815 8 11c0 1.033 1.333 2.7 4 5 2.667-2.3 4-3.967 4-5 0-1.185-.87-2-2-2-.869 0-1.4.393-2 1z" fill-rule="nonzero"/></symbol><symbol viewBox="0 0 24 24" id="Error" xmlns="http://www.w3.org/2000/svg"><g fill-rule="evenodd"><path d="M2 12C2 6.475 6.478 2 12 2c5.523 0 10 4.475 10 10s-4.477 10-10 10C6.478 22 2 17.525 2 12zM12 0C5.373 0 0 5.375 0 12s5.373 12 12 12 12-5.375 12-12S18.627 0 12 0zm1.035 13.305h-2.084L10.571 6h2.844l-.38 7.305zm.465 3.19c0 .835-.676 1.505-1.507 1.505-.831 0-1.493-.67-1.493-1.505 0-.84.662-1.525 1.493-1.525.831 0 1.507.685 1.507 1.525z"/></g></symbol><symbol viewBox="0 0 24 24" id="Favorite" xmlns="http://www.w3.org/2000/svg"><path d="M12 2.236L8.893 8.447a1 1 0 0 1-.832.551l-5.9.369 4.574 4.955a1 1 0 0 1 .241.895L5.462 22.03l6.048-3.402a1 1 0 0 1 .98 0l6.048 3.402-1.515-6.813a1 1 0 0 1 .242-.895l4.574-4.955-5.901-.369a1 1 0 0 1-.832-.55L12 2.235zM7.36 7.038l2.85-5.697a2 2 0 0 1 3.578 0l2.848 5.697 5.326.333a2 2 0 0 1 1.345 3.353l-4.219 4.57 1.401 6.302a2 2 0 0 1-2.933 2.177L12 20.647l-5.557 3.126a2 2 0 0 1-2.933-2.177l1.4-6.302-4.219-4.57A2 2 0 0 1 2.036 7.37l5.325-.333z" fill-rule="nonzero"/></symbol><symbol viewBox="0 0 24 24" id="FilterArrows" xmlns="http://www.w3.org/2000/svg"><path d="M9.838 8.809A1 1 0 0 1 8.662 7.19l2.75-2a1 1 0 0 1 1.176 0l2.75 2a1 1 0 0 1-1.176 1.618L12 7.236 9.838 8.81zm4.324 6.382a1 1 0 1 1 1.176 1.618l-2.75 2a1 1 0 0 1-1.176 0l-2.75-2a1 1 0 1 1 1.176-1.618L12 16.764l2.162-1.573z" fill-rule="nonzero"/></symbol><symbol viewBox="0 0 24 24" id="Follow" xmlns="http://www.w3.org/2000/svg"><path d="M1 20c0-4.35 3.919-8 9-8 5.082 0 9 3.65 9 8 0 1.534-1.12 3-2.6 3H3.6C2.118 23 1 21.545 1 20zm2 0c0 .539.355 1 .6 1h12.8c.24 0 .6-.472.6-1 0-3.213-2.993-6-7-6s-7 2.787-7 6zM21 9h2a1 1 0 0 1 0 2h-2v2a1 1 0 0 1-2 0v-2h-2a1 1 0 0 1 0-2h2V7a1 1 0 0 1 2 0v2zm-11 1a5 5 0 1 1 0-10 5 5 0 0 1 0 10zm0-2a3 3 0 1 0 0-6 3 3 0 0 0 0 6z" fill-rule="nonzero"/></symbol><symbol viewBox="0 0 24 24" id="Following" xmlns="http://www.w3.org/2000/svg"><path d="M16.293 10.707c-.943-.943.471-2.357 1.414-1.414l2 2c.943.943-.471 2.357-1.414 1.414l-2-2zM1 20c0-4.35 3.919-8 9-8 5.082 0 9 3.65 9 8 0 1.534-1.12 3-2.6 3H3.6C2.118 23 1 21.545 1 20zm2 0c0 .539.355 1 .6 1h12.8c.24 0 .6-.472.6-1 0-3.213-2.993-6-7-6s-7 2.787-7 6zm7-10a5 5 0 1 1 0-10 5 5 0 0 1 0 10zm0-2a3 3 0 1 0 0-6 3 3 0 0 0 0 6zm8.293 3.293l4-4c.943-.943 2.357.471 1.414 1.414l-4 4c-.943.943-2.357-.471-1.414-1.414z" fill-rule="nonzero"/></symbol><symbol viewBox="0 0 24 24" id="ForwardChevron" xmlns="http://www.w3.org/2000/svg"><path d="M17.73 12.707l-8 8c-.942.943-2.356-.471-1.413-1.414L15.61 12 8.317 4.707c-.943-.943.471-2.357 1.414-1.414l8 8c.222.222.29.47.287.707 0 .285-.096.52-.287.707z" fill-rule="nonzero"/></symbol><symbol viewBox="0 0 24 25" id="Highlights" xmlns="http://www.w3.org/2000/svg"><path d="M17.487 3.344a1 1 0 0 0-1.289-.106l-10.7 7.643a1 1 0 0 0-.126 1.52l6.661 6.662a1 1 0 0 0 1.521-.126l7.643-10.7a1 1 0 0 0-.106-1.289l-3.604-3.604zm-15 14.25a3 3 0 0 1 .41-3.198l.767-.921a3 3 0 0 1 .672-4.222l10.7-7.643a3 3 0 0 1 3.865.32l3.604 3.604a3 3 0 0 1 .32 3.865l-7.643 10.7a3 3 0 0 1-4.222.671l-.921.768a3 3 0 0 1-3.187.416l-1.418 1.134a1 1 0 0 1-.966.16L.79 21.907a1 1 0 0 1-.448-1.552l2.145-2.761zm1.946-1.918a1 1 0 0 0 .061 1.348l2.917 2.917A1 1 0 0 0 8.76 20l.755-.629-4.451-4.451-.63.755z" fill-rule="nonzero"/></symbol><symbol viewBox="0 0 24 24" id="Home" xmlns="http://www.w3.org/2000/svg"><path d="M12 2.28l-8.625 6.9A1 1 0 0 0 3 9.961V21h4.003v-5c0-2.563 2.43-5 4.997-5 2.567 0 5 2.437 5 5v5h4V9.961a1 1 0 0 0-.375-.78L12 2.28zm11 7.681V21a2 2 0 0 1-2 2h-4a2 2 0 0 1-2-2v-5c0-1.46-1.538-3-3-3-1.461 0-2.997 1.54-2.997 3v5a2 2 0 0 1-2 2H3a2 2 0 0 1-2-2V9.961A3 3 0 0 1 2.126 7.62l9.25-7.4a1 1 0 0 1 1.249 0l9.25 7.4A3 3 0 0 1 23 9.96z" fill-rule="nonzero"/></symbol><symbol viewBox="0 0 24 24" id="IOSShare" xmlns="http://www.w3.org/2000/svg"><path d="M11.01 3.405L7.706 6.707a1 1 0 0 1-1.414-1.414l5-5a1 1 0 0 1 1.414 0l5 5a1 1 0 1 1-1.414 1.414l-3.284-3.284v13.604a1 1 0 1 1-2 0V3.405zM1 12a1 1 0 0 1 2 0v7a3 3 0 0 0 3 3h12a3 3 0 0 0 3-3v-7a1 1 0 0 1 2 0v7a5 5 0 0 1-5 5H6a5 5 0 0 1-5-5v-7z" fill-rule="nonzero"/></symbol><symbol viewBox="0 0 24 24" id="LetterSpacing" xmlns="http://www.w3.org/2000/svg"><g fill-rule="evenodd"><path d="M7.707 3.295L4.72.31 4.707.295A1 1 0 0 0 4 0a1 1 0 0 0-.707.295L3.278.31.293 3.295a.995.995 0 0 0 0 1.41.992.992 0 0 0 1.414 0L3 3.415v17.169l-1.293-1.29a.992.992 0 0 0-1.414 0 .995.995 0 0 0 0 1.41l3 3a.992.992 0 0 0 1.414 0l3-3a.995.995 0 0 0 0-1.41.992.992 0 0 0-1.414 0L5 20.584V3.414l1.293 1.29a.992.992 0 0 0 1.414 0 .995.995 0 0 0 0-1.41zM24 6c0 .55-.448 1-1 1H11c-.553 0-1-.45-1-1s.447-1 1-1h12c.552 0 1 .45 1 1zm-7 12.999c.552 0 1-.45 1-1s-.448-1-1-1h-6c-.553 0-1 .45-1 1s.447 1 1 1h6zm7-5c0 .55-.448 1-1 1H11c-.553 0-1-.45-1-1s.447-1 1-1h12c.552 0 1 .45 1 1zm-1-3c.552 0 1-.45 1-1s-.448-1-1-1H11c-.553 0-1 .45-1 1s.447 1 1 1h12z"/></g></symbol><symbol viewBox="0 0 24 24" id="Lightbulb" xmlns="http://www.w3.org/2000/svg"><path d="M5 8.13C5 4.275 8.337 2 11.995 2 15.659 2 19 4.28 19 8.13c0 1.7-.742 3.195-1.69 4.765-.151.25-.311.505-.474.765a42.551 42.551 0 0 0-.947 1.58c-.442.795-.841 1.645-1.04 2.555a.35.35 0 0 1-.097.18c-.019.015-.032.02-.038.025H9.286c-.006-.005-.02-.01-.038-.025a.35.35 0 0 1-.096-.18c-.2-.91-.598-1.76-1.04-2.555a37.94 37.94 0 0 0-.91-1.515l-.038-.065c-.163-.26-.323-.515-.473-.765C5.742 11.325 5 9.83 5 8.13zm3 11.41a2.395 2.395 0 0 1-.803-1.32c-.138-.63-.43-1.28-.833-2.005-.264-.475-.55-.935-.855-1.425l-.008-.015c-.169-.27-.343-.55-.522-.85C4.008 12.32 3 10.415 3 8.13 3 2.79 7.658 0 11.995 0 16.337 0 21 2.79 21 8.13c0 2.285-1.008 4.19-1.979 5.8-.156.255-.308.5-.454.74l-.068.105-.015.025c-.303.49-.587.945-.849 1.415-.402.725-.695 1.375-.833 2.005A2.395 2.395 0 0 1 16 19.54v.96c0 2.095-1.97 3.5-4 3.5-2.03 0-4-1.405-4-3.5v-.96zm2 .46v.5c0 .665.717 1.5 2 1.5s2-.835 2-1.5V20h-4z" fill-rule="evenodd"/></symbol><symbol viewBox="0 0 24 24" id="Like" xmlns="http://www.w3.org/2000/svg"><path d="M12 3.392C13.375 1.817 15.055 1 17 1c3.925 0 7 2.67 7 7 0 4.39-3.819 9.598-11.367 15.774a1 1 0 0 1-1.266 0C3.819 17.598 0 12.391 0 8c0-4.451 2.822-7 7-7 1.945 0 3.625.817 5 2.392zM22 8c0-3.157-2.122-5-5-5-1.641 0-3.006.832-4.164 2.598a1 1 0 0 1-1.672 0C10.006 3.832 8.64 3 7 3 3.884 3 2 4.701 2 8c0 3.5 3.306 8.114 10 13.703C18.694 16.114 22 11.5 22 8z" fill-rule="nonzero"/></symbol><symbol viewBox="0 0 24 24" id="List" xmlns="http://www.w3.org/2000/svg"><path d="M3 7a2 2 0 1 1 0-4 2 2 0 0 1 0 4zm0 7a2 2 0 1 1 0-4 2 2 0 0 1 0 4zm-2 5a2 2 0 1 1 4 0 2 2 0 0 1-4 0zM8 6a1 1 0 1 1 0-2h14a1 1 0 0 1 0 2H8zm0 7.003a1 1 0 0 1 0-2h14a1 1 0 1 1 0 2H8zM8 20a1 1 0 0 1 0-2h14a1 1 0 0 1 0 2H8z" fill-rule="evenodd"/></symbol><symbol viewBox="0 0 24 24" id="Listen" xmlns="http://www.w3.org/2000/svg"><path d="M23 21a1 1 0 0 1-2 0v-9a9 9 0 0 0-9-9 9 9 0 0 0-9 9v9a1 1 0 0 1-2 0v-9C1 5.925 5.925 1 12 1s11 4.925 11 11v9zM3 15v6h3v-6H3zm0-2h3a2 2 0 0 1 2 2v6a2 2 0 0 1-2 2H3a2 2 0 0 1-2-2v-6a2 2 0 0 1 2-2zm15 2v6h3v-6h-3zm0-2h3a2 2 0 0 1 2 2v6a2 2 0 0 1-2 2h-3a2 2 0 0 1-2-2v-6a2 2 0 0 1 2-2z" fill-rule="nonzero"/></symbol><symbol viewBox="0 0 24 24" id="LongRead" xmlns="http://www.w3.org/2000/svg"><path d="M19 22h1.998a1 1 0 0 1 0 2H19v.017H5V24H3a1 1 0 0 1 0-2h2v-5.982l5.328-4.01L5 8V2H3a1 1 0 1 1 0-2h17.998a1 1 0 0 1 0 2H19v5.999l-5.328 4.01L19 16.019V22zm-2 .017v-5.001l-5-3.763-5 3.763v5.001h10zM9 18h6v2H9v-2zM7 2v5.001l5 3.763 5-3.763V2H7zm1.723 3h6.554v1.304L12 8.754l-3.277-2.45V5z" fill-rule="nonzero"/></symbol><symbol viewBox="0 0 24 24" id="Margins" xmlns="http://www.w3.org/2000/svg"><g fill-rule="evenodd"><path d="M8 2c0-.55-.448-1-1-1s-1 .45-1 1v20c0 .55.448 1 1 1s1-.45 1-1V2zM1.707 15.705l3-3a.995.995 0 0 0 0-1.41l-3-3a.992.992 0 0 0-1.414 0 .995.995 0 0 0 0 1.41L2.586 12 .293 14.295a.995.995 0 0 0 0 1.41.992.992 0 0 0 1.414 0zM24 6c0 .55-.448 1-1 1H11c-.552 0-1-.45-1-1s.448-1 1-1h12c.552 0 1 .45 1 1zm-7 13c.552 0 1-.45 1-1s-.448-1-1-1h-6c-.552 0-1 .45-1 1s.448 1 1 1h6zm7-5c0 .55-.448 1-1 1H11c-.552 0-1-.45-1-1s.448-1 1-1h12c.552 0 1 .45 1 1zm-1-3c.552 0 1-.45 1-1s-.448-1-1-1H11c-.552 0-1 .45-1 1s.448 1 1 1h12z"/></g></symbol><symbol viewBox="0 0 24 24" id="Menu" xmlns="http://www.w3.org/2000/svg"><path d="M2 6a1 1 0 0 1 0-2h20a1 1 0 1 1 0 2H2zm0 7.003a1 1 0 1 1 0-2h20a1 1 0 1 1 0 2H2zM2 20a1 1 0 1 1 0-2h20a1 1 0 1 1 0 2H2z" fill-rule="evenodd"/></symbol><symbol viewBox="0 0 24 24" id="Minus" xmlns="http://www.w3.org/2000/svg"><g fill-rule="evenodd"><path d="M23 12c0-.55-.448-1-1-1H2c-.552 0-1 .45-1 1s.448 1 1 1h20c.552 0 1-.45 1-1z"/></g></symbol><symbol viewBox="0 0 24 24" id="NetworkError" xmlns="http://www.w3.org/2000/svg"><g fill-rule="evenodd"><path d="M12 3A16.88 16.88 0 0 0 1.613 6.56 1 1 0 1 1 .387 4.98C3.597 2.49 7.627 1 12 1c4.373 0 8.402 1.49 11.613 3.98a1 1 0 0 1-1.226 1.58A16.88 16.88 0 0 0 12 3zm3.292 9.475a.992.992 0 0 1 1.414 0c.39.39.39 1.02 0 1.41l-3.292 3.295 3.293 3.295c.39.39.39 1.02 0 1.41a.993.993 0 0 1-1.415 0L12 18.595l-3.292 3.29a.993.993 0 0 1-1.415 0 .994.994 0 0 1 0-1.41l3.293-3.295-3.292-3.295a.994.994 0 0 1 0-1.41.992.992 0 0 1 1.414 0L12 15.765l3.292-3.29zm-10.65-1.53C6.733 9.195 9.273 8.18 12 8.18c2.729 0 5.268 1.015 7.357 2.765.423.355 1.054.3 1.41-.12a1.002 1.002 0 0 0-.124-1.41C18.229 7.39 15.243 6.18 12 6.18c-3.243 0-6.228 1.21-8.643 3.235a1.002 1.002 0 0 0-.124 1.41c.356.42.987.475 1.41.12z"/></g></symbol><symbol viewBox="0 0 24 24" id="Next" xmlns="http://www.w3.org/2000/svg"><g fill-rule="evenodd"><path d="M3 2c0-.55-.447-1-1-1-.552 0-1 .45-1 1v20c0 .55.448 1 1 1 .553 0 1-.45 1-1V2zm5 3.4L19.882 12 8 18.6V5.4zm13.221 5.055c1.212.675 1.212 2.415 0 3.09l-12.598 7C7.447 21.195 6 20.345 6 19V5c0-1.345 1.447-2.195 2.623-1.545l12.598 7z"/></g></symbol><symbol viewBox="0 0 24 24" id="Pause" xmlns="http://www.w3.org/2000/svg"><g fill-rule="evenodd"><path d="M7 4v16c0 .55-.447 1-1 1-.553 0-1-.45-1-1V4c0-.55.447-1 1-1 .553 0 1 .45 1 1zM3 4a3.001 3.001 0 0 1 6 0v16a3.001 3.001 0 0 1-6 0V4zm16 0v16c0 .55-.448 1-1 1s-1-.45-1-1V4c0-.55.448-1 1-1s1 .45 1 1zm-4 0a3.001 3.001 0 0 1 6 0v16a3.001 3.001 0 0 1-6 0V4z"/></g></symbol><symbol viewBox="0 0 24 24" id="Pencil" xmlns="http://www.w3.org/2000/svg"><g fill-rule="evenodd"><path d="M17.428 1.705a3.003 3.003 0 0 0-4.242 0L2.773 12.12a3.013 3.013 0 0 0-.854 1.735l-.897 6.88a2 2 0 0 0 2.242 2.245l6.882-.9a2.984 2.984 0 0 0 1.733-.855l10.414-10.41a3.002 3.002 0 0 0 0-4.245l-4.864-4.865zM14.6 3.12a1 1 0 0 1 1.415 0l4.863 4.865c.391.39.391 1.025 0 1.415l-1.724 1.725-6.278-6.28L14.6 3.12zm-3.139 3.14l-7.274 7.275a1 1 0 0 0-.284.575l-.897 6.885 6.881-.9a.98.98 0 0 0 .579-.28l7.274-7.275-6.278-6.28z"/></g></symbol><symbol viewBox="0 0 24 24" id="PlayButton" xmlns="http://www.w3.org/2000/svg"><path d="M21.154 12.886a1 1 0 0 0 0-1.772L6.464 3.42A1 1 0 0 0 5 4.305v15.39a1 1 0 0 0 1.464.885l14.69-7.694zM7.392 22.352A3 3 0 0 1 3 19.695V4.305a3 3 0 0 1 4.392-2.657l14.69 7.695a3 3 0 0 1 0 5.314l-14.69 7.695z" fill-rule="nonzero"/></symbol><symbol viewBox="0 0 24 24" id="Plus" xmlns="http://www.w3.org/2000/svg"><g fill-rule="evenodd"><path d="M13 2c0-.55-.447-1-1-1-.553 0-1 .45-1 1v9H2c-.552 0-1 .45-1 1s.448 1 1 1h9v9c0 .55.447 1 1 1 .553 0 1-.45 1-1v-9h9c.552 0 1-.45 1-1s-.448-1-1-1h-9V2z"/></g></symbol><symbol viewBox="0 0 24 24" id="Premium" xmlns="http://www.w3.org/2000/svg"><g fill-rule="evenodd"><path d="M10.035 1H17.909c1.02 0 1.97.52 2.521 1.375L23.09 6.5a3 3 0 0 1-.113 3.415L14.406 21.44a3.004 3.004 0 0 1-4.815 0L1.024 9.915A3 3 0 0 1 .91 6.5l2.658-4.125A3.005 3.005 0 0 1 6.09 1h3.945zm.694 2h2.543l1.29 4H9.439l1.29-4zM7.338 7l1.289-4H6.09c-.34 0-.656.17-.841.46L2.966 7h4.372zM2.837 9h4.36l.024.09 2.935 9.755L2.837 9zm6.446 0h5.434L12 18.03 9.283 9zm7.52 0l-.024.09-2.935 9.755L21.162 9h-4.358zm4.23-2L18.75 3.46a.993.993 0 0 0-.841-.46h-2.536l1.289 4h4.371z"/></g></symbol><symbol viewBox="0 0 24 24" id="Profile" xmlns="http://www.w3.org/2000/svg"><path d="M1 20c0-4.408 4.82-8 11-8s11 3.591 11 8c0 1.573-1.363 3-3 3H4c-1.641 0-3-1.415-3-3zm2 0c0 .498.482 1 1 1h16c.512 0 1-.511 1-1 0-3.155-3.819-6-9-6s-9 2.845-9 6zm9-10a5 5 0 1 1 0-10 5 5 0 0 1 0 10zm0-2a3 3 0 1 0 0-6 3 3 0 0 0 0 6z" fill-rule="nonzero"/></symbol><symbol viewBox="0 0 24 24" id="ReAdd" xmlns="http://www.w3.org/2000/svg"><g fill-rule="evenodd"><path d="M5.4 2C3.522 2 2 3.52 2 5.4v13.2C2 20.48 3.522 22 5.4 22h13.2c1.877 0 3.4-1.52 3.4-3.4V5.4C22 3.52 20.477 2 18.6 2H5.4zM0 5.4C0 2.415 2.418 0 5.4 0h13.2C21.581 0 24 2.415 24 5.4v13.2c0 2.985-2.418 5.4-5.4 5.4H5.4A5.399 5.399 0 0 1 0 18.6V5.4zM12 7c.553 0 1 .45 1 1v3h3c.552 0 1 .45 1 1s-.448 1-1 1h-3v3c0 .55-.447 1-1 1-.553 0-1-.45-1-1v-3H8c-.553 0-1-.45-1-1s.447-1 1-1h3V8c0-.55.447-1 1-1z"/></g></symbol><symbol viewBox="0 0 24 24" id="Reading" xmlns="http://www.w3.org/2000/svg"><g fill-rule="evenodd"><path d="M0 4a2 2 0 0 1 2-2h6a4.99 4.99 0 0 1 4 2 4.99 4.99 0 0 1 4-2h6a2 2 0 0 1 2 2v14a2 2 0 0 1-2 2h-6.077c-.912 0-1.774.415-2.343 1.125l-.354.445c-.302.375-.772.55-1.222.535-.452.015-.926-.155-1.23-.535l-.354-.445A3.004 3.004 0 0 0 8.077 20H2a2 2 0 0 1-2-2V4zm8 0c1.657 0 3 1.345 3 3v11.945A4.978 4.978 0 0 0 8.077 18H2V4h6zm7.923 14c-1.06 0-2.081.335-2.923.945V7c0-1.655 1.343-3 3-3v4.46c0 .215.249.33.412.19l1.426-1.21c.093-.08.23-.08.324 0l1.426 1.21c.163.14.412.025.412-.19V4h2v14h-6.077z"/></g></symbol><symbol viewBox="0 0 24 24" id="Recommend" xmlns="http://www.w3.org/2000/svg"><path d="M0 10.88C0 4.855 5.404 0 11.998 0 18.595 0 24 4.855 24 10.88c0 6.293-5.763 11.334-13.221 11.07a12.34 12.34 0 0 1-1.546.804 23.13 23.13 0 0 1-1.85.72 26.72 26.72 0 0 1-.96.309c-2.727.745-4.145-.78-2.772-2.992.136-.218.267-.467.402-.76.068-.147.2-.462.329-.77C1.609 17.209 0 14.176 0 10.88zm5.862 10.983a26.234 26.234 0 0 0 .872-.281c.582-.2 1.156-.42 1.688-.656.611-.27 1.126-.545 1.507-.81l.283-.197.344.02C17.071 20.305 22 16.072 22 10.88 22 6.01 17.535 2 11.998 2 6.464 2 2 6.01 2 10.88c0 2.863 1.518 5.492 4.155 7.174l.726.463-.35.788c-.05.109-.492 1.196-.662 1.564a8.808 8.808 0 0 1-.52.979c-.03.048-.056.093-.08.136.17-.02.371-.06.593-.12zM12 9c-.6-.607-1.134-1-2.002-1C8.868 8 8 8.815 8 10c0 1.033 1.333 2.7 4 5 2.667-2.3 4-3.967 4-5 0-1.185-.87-2-2-2-.869 0-1.4.393-2 1z" fill-rule="evenodd"/></symbol><symbol viewBox="0 0 24 24" id="Refresh" xmlns="http://www.w3.org/2000/svg"><g fill-rule="evenodd"><path d="M.004 10.91a1 1 0 0 0 .908 1.085A1 1 0 0 0 2 11.09C2.46 5.995 6.75 2 11.976 2c3.658 0 6.857 1.955 8.608 4.88h-2.46a.999.999 0 1 0 0 2h3.75c.83 0 1.503-.675 1.502-1.5V2.635a1.002 1.002 0 0 0-2.004 0v1.88A12.01 12.01 0 0 0 11.976 0C5.706 0 .556 4.795.004 10.91zm23.084 1.095a1 1 0 0 1 .908 1.085C23.443 19.205 18.294 24 12.024 24a12.01 12.01 0 0 1-9.396-4.515v1.88a1.003 1.003 0 0 1-2.004 0V16.62a1.503 1.503 0 0 1 1.503-1.5h3.749c.554 0 1.001.45 1.001 1 0 .555-.447 1-1.001 1h-2.46A10.015 10.015 0 0 0 12.024 22c5.224 0 9.517-3.995 9.976-9.09a1 1 0 0 1 1.088-.905z"/></g></symbol><symbol viewBox="0 0 24 24" id="Remove" xmlns="http://www.w3.org/2000/svg"><path d="M6 3a3 3 0 0 0-3 3v12a3 3 0 0 0 3 3h12a3 3 0 0 0 3-3V6a3 3 0 0 0-3-3H6zm0-2h12a5 5 0 0 1 5 5v12a5 5 0 0 1-5 5H6a5 5 0 0 1-5-5V6a5 5 0 0 1 5-5zm9.293 15.707l-8-8c-.943-.943.471-2.357 1.414-1.414l8 8c.943.943-.471 2.357-1.414 1.414zm-8-1.414l8-8c.943-.943 2.357.471 1.414 1.414l-8 8c-.943.943-2.357-.471-1.414-1.414z" fill-rule="nonzero"/></symbol><symbol viewBox="0 0 24 24" id="Repost" xmlns="http://www.w3.org/2000/svg"><path d="M12.297 19H20c1.106 0 2-.893 2-2V7c0-1.107-.894-2-2-2h-2a1 1 0 0 1 0-2h2c2.21 0 4 1.789 4 4v10c0 2.211-1.79 4-4 4h-7.703l1.228 1.319a1 1 0 0 1-1.464 1.362l-2.793-3a1 1 0 0 1 0-1.362l2.793-3a1 1 0 0 1 1.464 1.362L12.297 19zm-.711-16l-1.293-1.293A1 1 0 0 1 11.707.293l3 3a1 1 0 0 1 0 1.414l-3 3a1 1 0 0 1-1.414-1.414L11.586 5H4c-1.106 0-2 .893-2 2v10c0 1.107.894 2 2 2h2a1 1 0 0 1 0 2H4c-2.21 0-4-1.789-4-4V7c0-2.211 1.79-4 4-4h7.586z" fill-rule="nonzero"/></symbol><symbol viewBox="0 0 24 24" id="Save" xmlns="http://www.w3.org/2000/svg"><path d="M2.506 4A.514.514 0 0 0 2 4.521v6.368C2 16.476 6.48 21 12 21s10-4.524 10-10.111V4.52A.514.514 0 0 0 21.494 4H2.506zm0-2h18.988A2.514 2.514 0 0 1 24 4.521v6.368C24 17.576 18.63 23 12 23S0 17.576 0 10.889V4.52C0 3.131 1.12 2 2.506 2zM16.3 8.786a1 1 0 0 1 1.4 1.428l-5 4.906a1 1 0 0 1-1.4 0l-5-4.906a1 1 0 1 1 1.4-1.428l4.3 4.22 4.3-4.22z" fill-rule="nonzero"/></symbol><symbol viewBox="0 0 24 24" id="Search" xmlns="http://www.w3.org/2000/svg"><path d="M11 21C5.477 21 1 16.523 1 11S5.477 1 11 1s10 4.477 10 10-4.477 10-10 10zm0-2a8 8 0 1 0 0-16 8 8 0 0 0 0 16zm11.71 3.293a1 1 0 0 1-1.414 1.414l-5.003-5a1 1 0 0 1 1.414-1.414l5.002 5z" fill-rule="nonzero"/></symbol><symbol viewBox="0 0 24 24" id="Settings" xmlns="http://www.w3.org/2000/svg"><path d="M22.805 9.246A1.58 1.58 0 0 1 24 10.785L23.999 12v1.214c0 .64-.411 1.25-1.129 1.517-.148.044-.648.132-2.538.438l-.2.482.747 1.045c.542.735.649.886.786 1.148.038.082.068.162.072.19a1.541 1.541 0 0 1-.26 1.427c-.09.113-.096.118-.994 1.024l-.945.939c-.29.248-.653.384-1.034.384-.307 0-.59-.089-.945-.311l-.496-.356-1.046-.75c-.18-.128-.277-.197-.356-.255-.147.062-.304.126-.495.202l-.381 2.314a1.585 1.585 0 0 1-1.57 1.347L11.287 24h-.501c-.772 0-1.476-.606-1.567-1.331l-.384-2.328a22.582 22.582 0 0 1-.49-.206l-1.912 1.37a1.588 1.588 0 0 1-2.057-.16l-1.602-1.603-.11-.108a1.59 1.59 0 0 1-.456-1.36v-.309l.19-.262.091-.127 1.373-1.914c-.06-.142-.123-.3-.2-.495l-2.308-.381A1.593 1.593 0 0 1 0 13.215v-2.43c0-.783.566-1.45 1.33-1.568l2.332-.383.203-.487C2.666 6.691 2.52 6.486 2.394 6.274c-.334-.604-.246-1.318.26-1.9L3.689 3.34l.73-.724a1.542 1.542 0 0 1 1.089-.418c.28 0 .558.073.794.212.084.049.297.2 2.048 1.46l.483-.198.382-2.324A1.585 1.585 0 0 1 10.784 0h2.431c.738 0 1.452.569 1.566 1.33l.385 2.337.485.202 1.936-1.388a1.59 1.59 0 0 1 2.036.173 256.149 256.149 0 0 1 1.788 1.791c.49.559.533 1.38.1 1.978l-1.378 1.922.2.488.738.121c1.263.201 1.612.26 1.734.292zm-2.97-.496l.005.001h-.005zm-15.67 0l-.004.002.005-.001zm-.008 6.499l-.006-.001h.006zm-.622-.403l-.085-.22c.019.062.044.121.076.177l.01.043zm.526 1.268zm5.147 4.375a.567.567 0 0 0 .024.01l-.024-.01zm-.458-.656v.006-.006zM19.898 16.2a.903.903 0 0 0 .04-.086l-.04.086zM22 10.773v.009-.01zm0 .357c-.261-.043-.666-.109-1.249-.201l-1.24-.205c-.41-.066-.739-.357-.848-.688l-.059-.15c-.162-.398-.385-.937-.459-1.116-.186-.367-.207-.792.067-1.179l1.47-2.05c-.244-.246-.663-.664-1.224-1.224L16.221 5.92l-.226.04a1.512 1.512 0 0 1-.217.024c-.21-.004-.247-.005-.44-.09-.392-.153-1.301-.53-1.34-.546-.371-.153-.635-.415-.717-.824L12.864 2h-1.73l-.408 2.481-.047.18c-.059.16-.154.318-.306.462l-.118.111-.148.069c-.16.075-.686.29-1.37.568a1.12 1.12 0 0 1-.505.122c-.426-.079-.426-.079-.47-.116-.052-.027-.052-.027-.09-.049a5.008 5.008 0 0 1-.204-.13 904.931 904.931 0 0 0-1.925-1.381l-.442.44-.79.787c.2.284.61.852 1.479 2.052.244.342.27.796.11 1.08l-.068.156c-.202.473-.327.774-.462 1.107-.127.392-.42.71-.882.786L2 11.134v1.732l2.482.41c.418.065.758.365.856.694.265.68.379.959.52 1.266.189.366.191.807-.072 1.174l-1.469 2.048 1.225 1.225 2.022-1.45.116-.071c.166-.088.33-.144.547-.144.149 0 .293.03.5.106.487.21.573.246.762.324l.127.052.332.133c.387.127.702.423.776.877l.41 2.49h1.731l.405-2.456.04-.161c.147-.428.43-.648.841-.793.519-.205.78-.313 1.172-.487.144-.057.296-.09.452-.09.191 0 .382.05.648.21l.756.541 1.049.75.23.166.609-.607.617-.623c-.091-.127-.225-.31-.423-.579l-1.046-1.461a1.1 1.1 0 0 1-.109-1.097c.325-.78.484-1.165.535-1.29l.046-.099c.167-.31.367-.514.719-.622l.135-.031c1.36-.22 2.114-.345 2.458-.4V11.13zm-9.19 11.208v-.009a.365.365 0 0 0 0 .01zm-1.613.043a.636.636 0 0 0-.008-.05l.008.05zm-7.017-4.06l-.032-.032H4.13a.406.406 0 0 1 .05.308l.027-.115v-.134l-.027-.027zm-2.515-5.51l.01.001a.372.372 0 0 0-.01-.002zm2.47-7.52a.527.527 0 0 0-.008-.015l.008.015zm1.662-1.227zm14.091 1.189a.425.425 0 0 0-.002.004l.002-.004zM12 15a3 3 0 1 1 0-6 3 3 0 0 1 0 6z" fill-rule="nonzero"/></symbol><symbol viewBox="0 0 24 24" id="SharedToMe" xmlns="http://www.w3.org/2000/svg"><path d="M5 4a3 3 0 0 0-3 3v10a3 3 0 0 0 3 3h14a3 3 0 0 0 3-3V7a3 3 0 0 0-3-3H5zm0-2h14a5 5 0 0 1 5 5v10a5 5 0 0 1-5 5H5a5 5 0 0 1-5-5V7a5 5 0 0 1 5-5zm17.585 4.09a1 1 0 0 1 .828 1.82l-11 5a1 1 0 0 1-.828 0l-10.999-5a1 1 0 0 1 .828-1.82l10.585 4.812L22.585 6.09z" fill-rule="nonzero"/></symbol><symbol viewBox="0 0 24 24" id="ShortRead" xmlns="http://www.w3.org/2000/svg"><path d="M18.123 9.992l-3.179-.997.978-6.882c.29-1.1-1.023-1.395-1.522-.838L5.22 12c-.437.543-.2 1.375.51 1.732l3.168 1.265-.966 6.869c-.248.935.92 1.519 1.522.838L18.6 11.677c.333-.557.081-1.479-.478-1.685z" stroke="#828282" stroke-width="2" fill-rule="evenodd"/></symbol><symbol viewBox="0 0 24 24" id="Smile" xmlns="http://www.w3.org/2000/svg"><g fill-rule="evenodd"><path d="M2 12C2 6.475 6.478 2 12 2c5.523 0 10 4.475 10 10s-4.477 10-10 10C6.478 22 2 17.525 2 12zM12 0C5.373 0 0 5.375 0 12s5.373 12 12 12 12-5.375 12-12S18.627 0 12 0zm.007 18c2.094 0 3.909-.985 4.807-2.46.538-.88-.198-1.54-.887-1.54H8.062c-.876 0-1.335.855-.888 1.54.894 1.385 2.738 2.46 4.833 2.46zM10 9.5a1.5 1.5 0 1 1-2.999.001A1.5 1.5 0 0 1 10 9.5zm5.5 1.5a1.5 1.5 0 1 0 .001-2.999A1.5 1.5 0 0 0 15.5 11z"/></g></symbol><symbol viewBox="0 0 24 24" id="SortNewest" xmlns="http://www.w3.org/2000/svg"><path d="M3 3.415v15.169l-1.293-1.29a.992.992 0 0 0-1.414 0 .995.995 0 0 0 0 1.41l3 3a.992.992 0 0 0 1.414 0l3-3a.995.995 0 0 0 0-1.41.992.992 0 0 0-1.414 0L5 18.584V3.414C5 2.473 4.667 2 4 2s-1 .472-1 1.415zM24 5c0 .55-.448 1-1 1H11a1.001 1.001 0 0 1 0-2h12c.552 0 1 .45 1 1zm-7 12.999c.552 0 1-.45 1-1s-.448-1-1-1h-6a1.001 1.001 0 0 0 0 2h6zm3-5c0 .55-.32 1-.714 1h-8.572c-.394 0-.714-.45-.714-1s.32-1 .714-1h8.572c.394 0 .714.45.714 1zm1.143-3c.473 0 .857-.45.857-1s-.384-1-.857-1H10.857C10.383 8 10 8.45 10 9s.383 1 .857 1h10.286z"/></symbol><symbol viewBox="0 0 24 24" id="SortOldest" xmlns="http://www.w3.org/2000/svg"><path d="M5 20.585V5.416l1.293 1.29a.992.992 0 0 0 1.414 0 .995.995 0 0 0 0-1.41l-3-3a.992.992 0 0 0-1.414 0l-3 3a.995.995 0 0 0 0 1.41.992.992 0 0 0 1.414 0L3 5.416v15.17C3 21.527 3.333 22 4 22s1-.472 1-1.415zM24 17c0 .55-.448 1-1 1H11a1.001 1.001 0 0 1 0-2h12c.552 0 1 .45 1 1zM17 5.999c.552 0 1-.45 1-1s-.448-1-1-1h-6a1.001 1.001 0 0 0 0 2h6zm3 3c0 .55-.32 1-.714 1h-8.572C10.32 10 10 9.55 10 9s.32-1 .714-1h8.572c.394 0 .714.45.714 1zm1.143 5c.473 0 .857-.45.857-1s-.384-1-.857-1H10.857c-.474 0-.857.45-.857 1s.383 1 .857 1h10.286z"/></symbol><symbol viewBox="0 0 24 24" id="SuggestedFollowing" xmlns="http://www.w3.org/2000/svg"><path d="M6 20c0-4.35 3.919-8 9-8 5.082 0 9 3.65 9 8 0 1.534-1.12 3-2.6 3H8.6C7.118 23 6 21.545 6 20zm2 0c0 .539.355 1 .6 1h12.8c.24 0 .6-.472.6-1 0-3.213-2.993-6-7-6s-7 2.787-7 6zm7-10a5 5 0 1 1 0-10 5 5 0 0 1 0 10zm0-2a3 3 0 1 0 0-6 3 3 0 0 0 0 6zM5 10a3 3 0 1 1 0-6 3 3 0 0 1 0 6zm0-2a1 1 0 1 0 0-2 1 1 0 0 0 0 2zm4.408 6.582a1 1 0 0 1-1.816.836c-.44-.954-1.253-1.414-2.586-1.412-1.817.002-2.724.896-2.954 2.998l4.987.018a1 1 0 0 1-.007 2l-4.987-.018a2 2 0 0 1-1.981-2.217c.336-3.078 2.06-4.777 4.94-4.781 2.076-.003 3.619.87 4.404 2.576z" fill-rule="nonzero"/></symbol><symbol viewBox="0 0 24 24" id="Sun" xmlns="http://www.w3.org/2000/svg"><g fill-rule="evenodd"><path d="M12 0c.553 0 1 .45 1 1v2c0 .55-.447 1-1 1-.553 0-1-.45-1-1V1c0-.55.447-1 1-1zm0 8a4 4 0 1 0 0 8 4 4 0 0 0 0-8zm-6 4a6 6 0 0 1 6-6 6 6 0 0 1 6 6 6 6 0 0 1-6 6 6 6 0 0 1-6-6zm7 9c0-.55-.447-1-1-1-.553 0-1 .45-1 1v2c0 .55.447 1 1 1 .553 0 1-.45 1-1v-2zm11-9c0 .55-.448 1-1 1h-2c-.552 0-1-.45-1-1s.448-1 1-1h2c.552 0 1 .45 1 1zM3 13c.553 0 1-.45 1-1s-.447-1-1-1H1c-.552 0-1 .45-1 1s.448 1 1 1h2zm17.485 7.485a1 1 0 0 1-1.413 0l-1.415-1.415a1.001 1.001 0 0 1 1.415-1.415l1.413 1.415c.391.39.391 1.025 0 1.415zM4.93 6.345A1.001 1.001 0 0 0 6.342 4.93L4.928 3.515A1 1 0 0 0 3.515 4.93l1.413 1.415zm-1.414 14.14a1.001 1.001 0 0 1 0-1.415l1.414-1.415a1.001 1.001 0 0 1 1.415 1.415l-1.415 1.415a1 1 0 0 1-1.414 0zM17.657 4.93a1.001 1.001 0 0 0 1.415 1.415l1.413-1.415a1.001 1.001 0 0 0-1.413-1.415L17.657 4.93z"/></g></symbol><symbol viewBox="0 0 24 24" id="Tag" xmlns="http://www.w3.org/2000/svg"><path d="M3 3v7.672a1 1 0 0 0 .293.707l9.5 9.501a1 1 0 0 0 1.414 0l6.672-6.673a1 1 0 0 0 0-1.414l-9.5-9.5A1 1 0 0 0 10.672 3H3zm19.293 8.379a3 3 0 0 1 0 4.242l-6.672 6.673a3 3 0 0 1-4.242 0l-9.5-9.501A3 3 0 0 1 1 10.672V2a1 1 0 0 1 1-1h8.672a3 3 0 0 1 2.12.879l9.5 9.5zM8 10a2 2 0 1 0 0-4 2 2 0 0 0 0 4z" fill-rule="nonzero"/></symbol><symbol viewBox="0 0 24 24" id="Trending" xmlns="http://www.w3.org/2000/svg"><path d="M12 22c5.523 0 10-4.476 10-10S17.523 2 12 2 2 6.476 2 12s4.477 10 10 10zm0 2C5.372 24 0 18.629 0 12S5.372 0 12 0s12 5.371 12 12-5.372 12-12 12zM10 8.5a1 1 0 1 1 0-2h6.5a1 1 0 0 1 1 1V14a1 1 0 0 1-2 0V8.5H10zm5.793-1.707a1 1 0 0 1 1.414 1.414l-8.5 8.5a1 1 0 1 1-1.414-1.414l8.5-8.5z" fill-rule="nonzero"/></symbol><symbol viewBox="0 0 24 24" id="Videos" xmlns="http://www.w3.org/2000/svg"><path d="M5 5a3 3 0 0 0-3 3v8a3 3 0 0 0 3 3h7a3 3 0 0 0 3-3V8a3 3 0 0 0-3-3H5zm0-2h7a5 5 0 0 1 5 5v8a5 5 0 0 1-5 5H5a5 5 0 0 1-5-5V8a5 5 0 0 1 5-5zm12 7.66v2.68l5 2.143V8.517l-5 2.142zm-1.394-1.58l7-3A1 1 0 0 1 24 7v10a1 1 0 0 1-1.394.92l-7-3A1 1 0 0 1 15 14v-4a1 1 0 0 1 .606-.92z" fill-rule="nonzero"/></symbol><symbol viewBox="0 0 24 24" id="WebView" xmlns="http://www.w3.org/2000/svg"><g fill-rule="evenodd"><path d="M12 2c-.747 0-1.751.71-2.625 2.635-.19.415-.364.875-.52 1.365h6.29a12.26 12.26 0 0 0-.52-1.365C13.751 2.71 12.747 2 12 2zM7.553 3.81c-.301.66-.564 1.4-.784 2.19H4a10.044 10.044 0 0 1 4.075-3.2c-.19.325-.363.66-.521 1.01zM6.326 8H2.832A9.978 9.978 0 0 0 2 12c0 1.42.297 2.775.832 4h3.494A24.194 24.194 0 0 1 6 12c0-1.395.114-2.745.326-4zm.443 10H4a10.044 10.044 0 0 0 4.075 3.2c-.19-.325-.363-.66-.521-1.01-.302-.66-.565-1.4-.785-2.19zm2.085 0h6.292c-.157.49-.332.95-.521 1.365C13.751 21.29 12.747 22 12 22c-.747 0-1.751-.71-2.625-2.635A12.26 12.26 0 0 1 8.855 18zm6.789-2H8.357A21.847 21.847 0 0 1 8 12c0-1.43.129-2.78.357-4h7.286c.228 1.22.357 2.57.357 4 0 1.43-.129 2.78-.357 4zm1.588 2c-.22.79-.483 1.53-.785 2.19-.158.35-.332.685-.521 1.01A10.044 10.044 0 0 0 20 18h-2.768zm3.937-2h-3.494c.212-1.255.326-2.605.326-4s-.114-2.745-.326-4h3.494A9.978 9.978 0 0 1 22 12c0 1.42-.297 2.775-.832 4zM15.925 2.8A10.044 10.044 0 0 1 20 6h-2.768c-.221-.79-.484-1.53-.785-2.19-.159-.35-.332-.685-.522-1.01zM12 24c6.627 0 12-5.375 12-12S18.627 0 12 0 0 5.375 0 12s5.373 12 12 12z"/></g></symbol></svg>
