<svg xmlns="http://www.w3.org/2000/svg" xmlns:xlink="http://www.w3.org/1999/xlink"><symbol viewBox="0 0 16 16" id="Activity" xmlns="http://www.w3.org/2000/svg"><path d="M1.753 12a.75.75 0 0 1-.75-.75v-.222c0-.324.118-.637.332-.88C2.445 8.884 3 7.335 3 5.5 3 1.833 4.667 0 8 0s5 1.833 5 5.5c0 1.827.557 3.376 1.67 4.647.213.243.33.556.33.879v.224a.75.75 0 0 1-.75.75H1.753zM10 14c0 1.34-.895 2-2 2-1.104 0-2-.66-2-2h4z" fill-rule="evenodd"/></symbol><symbol viewBox="0 0 16 16" id="AddTags" xmlns="http://www.w3.org/2000/svg"><path d="M4.5 8a1.5 1.5 0 1 0 0-3 1.5 1.5 0 0 0 0 3zM14 2h1a1 1 0 0 1 0 2h-1v1a1 1 0 0 1-2 0V4h-1a1 1 0 0 1 0-2h1V1a1 1 0 0 1 2 0v1zm-7.319.757l6.342 6.794a1.333 1.333 0 0 1-.065 1.885l-4.525 4.113a1.333 1.333 0 0 1-1.874-.08L.689 9.146a1.333 1.333 0 0 1-.356-.907V3c0-.368.299-.667.667-.667h4.707c.37 0 .722.154.974.424z" fill-rule="nonzero"/></symbol><symbol viewBox="0 0 16 16" id="Archive" xmlns="http://www.w3.org/2000/svg"><path d="M1 14.667V4h14v10.667c0 .736-.597 1.333-1.333 1.333H2.333A1.333 1.333 0 0 1 1 14.667zM1 0h14a1 1 0 0 1 0 2H1a1 1 0 1 1 0-2zm9.341 7.247l-3.295 2.884-.839-.838a1 1 0 1 0-1.414 1.414l1.5 1.5a1 1 0 0 0 1.366.046l4-3.5a1 1 0 0 0-1.318-1.506z" fill-rule="evenodd"/></symbol><symbol viewBox="0 0 16 16" id="Article" xmlns="http://www.w3.org/2000/svg"><path d="M3 0h10a2 2 0 0 1 2 2v12a2 2 0 0 1-2 2H3a2 2 0 0 1-2-2V2a2 2 0 0 1 2-2zm2 9h6a1 1 0 0 0 0-2H5a1 1 0 1 0 0 2zm0 4h6a1 1 0 0 0 0-2H5a1 1 0 0 0 0 2zm0-8h2a1 1 0 1 0 0-2H5a1 1 0 1 0 0 2z" fill-rule="nonzero"/></symbol><symbol viewBox="0 0 16 16" id="AudioBars" xmlns="http://www.w3.org/2000/svg"><g fill-rule="evenodd"><g><path d="M9 2c0-.55.447-1 1-1 .553 0 1 .45 1 1v12c0 .55-.447 1-1 1-.553 0-1-.45-1-1V2zM6 4c-.553 0-1 .45-1 1v9c0 .55.447 1 1 1 .553 0 1-.45 1-1V5c0-.55-.447-1-1-1zM2 7c-.553 0-1 .45-1 1v6c0 .55.447 1 1 1 .553 0 1-.45 1-1V8c0-.55-.447-1-1-1zm12 2c-.553 0-1 .45-1 1v4c0 .55.447 1 1 1 .552 0 1-.45 1-1v-4c0-.55-.448-1-1-1z"/></g></g></symbol><symbol viewBox="0 0 16 16" id="AudioForward" xmlns="http://www.w3.org/2000/svg"><g fill-rule="evenodd"><g><path d="M2.087 1.044C2.087.464 1.62 0 1.044 0 .467 0 0 .464 0 1.044v13.912C0 15.536.467 16 1.044 16c.576 0 1.043-.464 1.043-1.044V1.044zm12.636 7.994a1.233 1.233 0 0 0 0-2.076L6.759 1.894c-.818-.522-1.888.068-1.888 1.039v10.134c0 .97 1.07 1.56 1.888 1.039l7.964-5.068z"/></g></g></symbol><symbol viewBox="0 0 16 16" id="BestOf" xmlns="http://www.w3.org/2000/svg"><g fill-rule="evenodd"><path d="M15.501 7.995c.001-.325.139-.65.414-1.455.059-.165.085-.34.085-.51 0-.51-.254-1.01-.704-1.32-.723-.5-1.034-.685-1.232-.955-.197-.26-.284-.605-.553-1.405-.227-.68-.879-1.135-1.616-1.135-.894.005-1.258.03-1.582-.075C9.992 1.04 9.71.81 9 .315A1.737 1.737 0 0 0 8 0c-.351 0-.703.105-1.002.315-.717.5-.998.73-1.32.83-.322.1-.685.075-1.57.07-.74 0-1.394.455-1.618 1.135-.27.8-.359 1.145-.556 1.41-.2.265-.51.45-1.23.95C.254 5.025 0 5.52 0 6.03c0 .17.028.345.085.51.276.81.415 1.135.414 1.465 0 .325-.139.65-.414 1.455A1.56 1.56 0 0 0 0 9.97c0 .51.254 1.005.705 1.32.721.5 1.031.685 1.23.955.198.26.288.605.555 1.405.226.68.878 1.135 1.615 1.135.894-.005 1.258-.03 1.582.075.321.1.602.325 1.312.825.298.21.65.315 1.001.315.351 0 .703-.105 1.002-.315.71-.5.99-.725 1.31-.83.325-.1.69-.075 1.58-.07.74 0 1.394-.46 1.62-1.135.268-.8.355-1.145.551-1.405.2-.27.51-.455 1.234-.955.449-.315.703-.81.703-1.32 0-.17-.027-.345-.085-.51-.276-.81-.414-1.14-.414-1.465z"/><path d="M8.438 5l.792 1.445 1.324.126a.5.5 0 0 1 .325.831L9.845 8.555l.275 1.618a.5.5 0 0 1-.73.524L8 9.95l-1.39.747a.5.5 0 0 1-.73-.524l.275-1.618L5.12 7.402a.5.5 0 0 1 .325-.831l1.323-.126L7.562 5a.5.5 0 0 1 .876 0z" fill-rule="nonzero"/></g></symbol><symbol viewBox="0 0 16 16" id="Bookmark" xmlns="http://www.w3.org/2000/svg"><g fill-rule="evenodd"><g><path d="M4 0h8c1.104 0 2 .917 2 2.05v12.924c0 .856-.961 1.333-1.617.805L8.617 12.75a.98.98 0 0 0-1.236 0L3.619 15.78C2.961 16.307 2 15.83 2 14.974V2.05C2 .917 2.896 0 4 0z" fill-rule="nonzero"/></g></g></symbol><symbol viewBox="0 0 16 16" id="Check" xmlns="http://www.w3.org/2000/svg"><g fill-rule="evenodd"><g><path d="M4.324 14.368L.572 11.226A1.603 1.603 0 0 1 .374 8.97a1.602 1.602 0 0 1 2.254-.197l2.656 2.224 7.947-8.49a1.6 1.6 0 0 1 2.337 2.186l-8.924 9.536-.043.048-.015.016a1.6 1.6 0 0 1-2.262.075z"/></g></g></symbol><symbol viewBox="0 0 16 16" id="Clock" xmlns="http://www.w3.org/2000/svg"><g fill-rule="evenodd"><g><path d="M8 16a8 8 0 0 0 8-8 8 8 0 0 0-8-8 8 8 0 0 0-8 8 8 8 0 0 0 8 8zM9 4.665c0-.55-.447-1-1-1-.553 0-1 .45-1 1v4.11l2.324 2.13a1.001 1.001 0 0 0 1.352-1.475L9 7.895v-3.23z"/></g></g></symbol><symbol viewBox="0 0 16 16" id="CloseX" xmlns="http://www.w3.org/2000/svg"><path d="M8 9.414l-4.293 4.293c-.943.943-2.357-.471-1.414-1.414L6.586 8 2.293 3.707c-.943-.943.471-2.357 1.414-1.414L8 6.586l4.293-4.293c.943-.943 2.357.471 1.414 1.414L9.414 8l4.293 4.293c.943.943-.471 2.357-1.414 1.414L8 9.414z" fill-rule="nonzero"/></symbol><symbol viewBox="0 0 16 16" id="Delete" xmlns="http://www.w3.org/2000/svg"><path d="M4 2v-.667C4 .597 4.597 0 5.333 0h5.334C11.403 0 12 .597 12 1.333V2h3.02a1 1 0 0 1 0 2H1.003a1 1 0 1 1 0-2H4zM2 14.667V6h12v8.667c0 .736-.597 1.333-1.333 1.333H3.333A1.333 1.333 0 0 1 2 14.667z" fill-rule="nonzero"/></symbol><symbol viewBox="0 0 16 16" id="Discover" xmlns="http://www.w3.org/2000/svg"><path d="M3.667 1h8.666A2.667 2.667 0 0 1 15 3.667v8.666A2.667 2.667 0 0 1 12.333 15H3.667A2.667 2.667 0 0 1 1 12.333V3.667A2.667 2.667 0 0 1 3.667 1zM8 6.667C7.6 6.262 7.244 6 6.665 6c-.753 0-1.332.543-1.332 1.333 0 .689.89 1.744 2.667 3.167 1.778-1.423 2.667-2.478 2.667-3.167 0-.79-.58-1.333-1.334-1.333-.579 0-.933.262-1.333.667z" fill-rule="evenodd"/></symbol><symbol viewBox="0 0 16 16" id="DownChevron" xmlns="http://www.w3.org/2000/svg"><path d="M7.293 11.707l-5-5c-.943-.943.471-2.357 1.414-1.414l5 5c.943.943-.471 2.357-1.414 1.414zm0-1.414l5-5c.943-.943 2.357.471 1.414 1.414l-5 5c-.943.943-2.357-.471-1.414-1.414z" fill-rule="nonzero"/></symbol><symbol viewBox="0 0 16 16" id="Error" xmlns="http://www.w3.org/2000/svg"><g fill-rule="evenodd"><g><path d="M8 16a8 8 0 0 0 8-8 8 8 0 0 0-8-8 8 8 0 0 0-8 8 8 8 0 0 0 8 8zm.69-7.13H7.301L7.047 4h1.897L8.69 8.87zM9 10.995C9 11.555 8.549 12 7.995 12A.994.994 0 0 1 7 10.995c0-.555.441-1.015.995-1.015S9 10.44 9 10.995z"/></g></g></symbol><symbol viewBox="0 0 16 16" id="Favorite" xmlns="http://www.w3.org/2000/svg"><path d="M8.587.586l2.365 4.38 4.246.409a.667.667 0 0 1 .435 1.105l-3.205 3.625.845 5.043a.667.667 0 0 1-.976.696L8 13.5l-4.297 2.344a.667.667 0 0 1-.977-.696l.846-5.043L.366 6.48a.667.667 0 0 1 .436-1.105l4.244-.409L7.413.586a.667.667 0 0 1 1.174 0z" fill-rule="nonzero"/></symbol><symbol viewBox="0 0 12 12" id="FavoriteBadge" xmlns="http://www.w3.org/2000/svg"><path d="M6.44.44l1.774 3.284 3.184.307a.5.5 0 0 1 .327.829L9.321 7.579l.634 3.782a.5.5 0 0 1-.732.522L6 10.125l-3.223 1.758a.5.5 0 0 1-.732-.522l.634-3.782-2.404-2.72A.5.5 0 0 1 .6 4.032l3.184-.307L5.56.44a.5.5 0 0 1 .88 0z" fill-rule="nonzero"/></symbol><symbol viewBox="0 0 16 16" id="Follow" xmlns="http://www.w3.org/2000/svg"><path d="M14 6h1a1 1 0 0 1 0 2h-1v1a1 1 0 0 1-2 0V8h-1a1 1 0 0 1 0-2h1V5a1 1 0 0 1 2 0v1zM0 13.8C0 11.666 2.139 9 6 9s6 2.666 6 4.8c0 .59-.48 1.2-1.09 1.2H1.09C.48 15 0 14.4 0 13.8zM6 7a3 3 0 1 1 0-6 3 3 0 0 1 0 6z" fill-rule="nonzero"/></symbol><symbol viewBox="0 0 16 16" id="Following" xmlns="http://www.w3.org/2000/svg"><path d="M6 7a3 3 0 1 1 0-6 3 3 0 0 1 0 6zm6 .586l-.707 2.121-1.5-1.5c-.943-.943.471-2.357 1.414-1.414l.793.793 2.293-2.293c.943-.943 2.357.471 1.414 1.414l-3 3c-.222.222-.47.313-.707.311-.237.002-.485-.089-.707-.31L12 7.585zM0 13.8C0 11.666 2.139 9 6 9s6 2.666 6 4.8c0 .59-.48 1.2-1.09 1.2H1.09C.48 15 0 14.4 0 13.8z" fill-rule="evenodd"/></symbol><symbol viewBox="0 0 16 16" id="Highlights" xmlns="http://www.w3.org/2000/svg"><path d="M4.814 14.641l-1.174.632a.5.5 0 0 1-.422.024l-2.66-1.064a.5.5 0 0 1-.19-.795l1.52-1.723-.096-.096a1 1 0 0 1-.185-1.16l.585-1.15 5.038 5.038-1.217.565a1 1 0 0 1-1.128-.2l-.071-.07zM12.25.981l3.266 3.266a1 1 0 0 1 .112 1.28l-5.24 7.49a1 1 0 0 1-1.526.133l-5.4-5.4a1 1 0 0 1 .12-1.516L10.956.88a1 1 0 0 1 1.294.102z" fill-rule="nonzero"/></symbol><symbol viewBox="0 0 16 16" id="Home" xmlns="http://www.w3.org/2000/svg"><path d="M15 6.613v7.72a.667.667 0 0 1-.667.667h-3.666a.667.667 0 0 1-.667-.667V11c0-1.502-.5-2.5-2-2.5s-2 1-2 2.5v3.333a.667.667 0 0 1-.667.667H1.667A.667.667 0 0 1 1 14.333v-7.72c0-.389.17-.759.466-1.012l6.1-5.23a.667.667 0 0 1 .868 0l6.1 5.23c.296.253.466.623.466 1.012z" fill-rule="evenodd"/></symbol><symbol viewBox="0 0 16 16" id="IOSOverflow" xmlns="http://www.w3.org/2000/svg"><path d="M2 10a2 2 0 1 1 0-4 2 2 0 0 1 0 4zm6 0a2 2 0 1 1 0-4 2 2 0 0 1 0 4zm6 0a2 2 0 1 1 0-4 2 2 0 0 1 0 4z" fill-rule="nonzero"/></symbol><symbol viewBox="0 0 16 16" id="IOSShare" xmlns="http://www.w3.org/2000/svg"><path d="M7 3.412L5.708 4.707a1 1 0 0 1-1.416-1.414l3-3.004a1 1 0 0 1 1.416 0l3 3.004a1 1 0 0 1-1.416 1.414L9 3.412V11a1 1 0 0 1-2 0V3.412zM0 8a1 1 0 1 1 2 0v4.333C2 13.253 2.746 14 3.667 14h8.666c.92 0 1.667-.746 1.667-1.667V8a1 1 0 0 1 2 0v4.333A3.667 3.667 0 0 1 12.333 16H3.667A3.667 3.667 0 0 1 0 12.333V8z" fill-rule="nonzero"/></symbol><symbol viewBox="0 0 16 16" id="Lightbulb" xmlns="http://www.w3.org/2000/svg"><path d="M12.25 9.305C13.099 8.02 14 6.66 14 5.02 14 1.785 10.998 0 7.996 0 4.998 0 2 1.78 2 5.02c0 1.64.902 3 1.75 4.285.607.915 1.188 1.79 1.39 2.7.079.36.372.66.741.66h4.238c.369 0 .662-.3.742-.66.201-.91.781-1.785 1.389-2.7zM10 14a2 2 0 1 1-4 0h4z" fill-rule="evenodd"/></symbol><symbol viewBox="0 0 16 16" id="Like" xmlns="http://www.w3.org/2000/svg"><path d="M8 3c-.702-1.355-1.943-2-4-2-2.04 0-4 1.663-4 4.5 0 2.574 2.522 6.023 7.566 10.347.25.214.618.214.868 0C13.478 11.523 16 8.074 16 5.5 16 2.657 14.024 1 12 1c-1.988 0-3.255.635-4 2z" fill-rule="evenodd"/></symbol><symbol viewBox="0 0 16 16" id="Listen" xmlns="http://www.w3.org/2000/svg"><path d="M13 9V8c0-2.693-2.126-5-5-5S3 5.307 3 8v1h1.501a1.5 1.5 0 0 1 1.5 1.5v4a1.5 1.5 0 0 1-1.5 1.5H2.5A1.5 1.5 0 0 1 1 14.5V8c0-3.762 2.983-7 7-7 4.017 0 7 3.238 7 7v6.5a1.5 1.5 0 0 1-1.5 1.5h-2a1.5 1.5 0 0 1-1.5-1.5v-4A1.5 1.5 0 0 1 11.5 9H13z" fill-rule="nonzero"/></symbol><symbol viewBox="0 0 16 16" id="LongRead" xmlns="http://www.w3.org/2000/svg"><path d="M3.003 0c-.552 0-1 .45-1 1s.448 1 1 1h.998v3.075l4 2.8 4-2.8V2h.994c.553 0 1-.45 1-1s-.447-1-1-1H3.003zM4 10.8V14h-.996c-.552 0-1 .45-1 1s.448 1 1 1h9.992c.553 0 1-.45 1-1s-.447-1-1-1H12v-3.2l-4-2.8-4 2.8z" fill-rule="evenodd"/></symbol><symbol viewBox="0 0 16 16" id="Minus" xmlns="http://www.w3.org/2000/svg"><g fill-rule="evenodd"><g><path d="M16 8.5c0-.83-.716-1.5-1.6-1.5H1.6C.716 7 0 7.67 0 8.5S.716 10 1.6 10h12.8c.884 0 1.6-.67 1.6-1.5z"/></g></g></symbol><symbol viewBox="0 0 16 16" id="Pause" xmlns="http://www.w3.org/2000/svg"><g fill-rule="evenodd"><path d="M12.606 0c1.004 0 1.818.814 1.818 1.818v12.364a1.818 1.818 0 0 1-3.636 0V1.818C10.788.814 11.602 0 12.606 0zM3.152 0C4.156 0 4.97.814 4.97 1.818v12.364a1.818 1.818 0 1 1-3.637 0V1.818C1.333.814 2.147 0 3.152 0z"/></g></symbol><symbol viewBox="0 0 16 16" id="Pencil" xmlns="http://www.w3.org/2000/svg"><g fill-rule="evenodd"><g><path d="M14.593 4.783l-3.374-3.376a1.392 1.392 0 0 0-1.968 0l-1.343 1.34.055.053 5.288 5.287 1.342-1.34a1.388 1.388 0 0 0 0-1.964zm-2.677 4.64L6.628 4.136l-.05-.057-4.554 4.556c-.216.217-.356.5-.395.802l-.623 4.778a.694.694 0 0 0 .78.779l4.775-.624c.305-.037.587-.179.804-.396l4.551-4.551z"/></g></g></symbol><symbol viewBox="0 0 16 16" id="Play" xmlns="http://www.w3.org/2000/svg"><path d="M14.615 9.193L3.93 14.535A1.333 1.333 0 0 1 2 13.343V2.657a1.333 1.333 0 0 1 1.93-1.192l10.685 5.342a1.333 1.333 0 0 1 0 2.386z" fill-rule="nonzero"/></symbol><symbol viewBox="0 0 16 16" id="Plus" xmlns="http://www.w3.org/2000/svg"><g fill-rule="evenodd"><g><path d="M9.599 1.6a1.6 1.6 0 1 0-3.2 0v4.8H1.6C.716 6.4 0 7.115 0 8c0 .885.716 1.6 1.6 1.6h4.799v4.8a1.6 1.6 0 1 0 3.2 0V9.6H14.4a1.6 1.6 0 1 0 0-3.2H9.599V1.6z"/></g></g></symbol><symbol viewBox="0 0 16 16" id="Premium" xmlns="http://www.w3.org/2000/svg"><g fill-rule="evenodd"><g><path d="M2.466 1.473C2.655 1.18 2.98 1 3.33 1h9.34c.35 0 .675.18.864.473l2.303 3.586c.23.36.215.827-.039 1.166l-6.972 9.417c-.41.555-1.241.555-1.652 0L.202 6.225a1.026 1.026 0 0 1-.04-1.166l2.304-3.586z" fill-rule="nonzero"/></g></g></symbol><symbol viewBox="0 0 16 16" id="Profile" xmlns="http://www.w3.org/2000/svg"><path d="M1 13.8C1 11.666 3.495 9 8 9s7 2.666 7 4.8c0 .59-.56 1.2-1.273 1.2H2.273C1.56 15 1 14.4 1 13.8zM8 7a3 3 0 1 1 0-6 3 3 0 0 1 0 6z" fill-rule="evenodd"/></symbol><symbol viewBox="0 0 16 16" id="ReAdd" xmlns="http://www.w3.org/2000/svg"><g fill-rule="evenodd"><g><path d="M12.667 0H3.333A3.332 3.332 0 0 0 0 3.335v9.33A3.332 3.332 0 0 0 3.333 16h9.334A3.332 3.332 0 0 0 16 12.665v-9.33A3.332 3.332 0 0 0 12.667 0zM8 4.335c.553 0 1 .445 1 1V7h1.667c.552 0 1 .45 1 1s-.448 1-1 1H9v1.665c0 .555-.447 1-1 1-.553 0-1-.445-1-1V9H5.334a1.001 1.001 0 0 1 0-2H7V5.335c0-.555.447-1 1-1z"/></g></g></symbol><symbol viewBox="0 0 16 16" id="Reading" xmlns="http://www.w3.org/2000/svg"><g fill-rule="evenodd"><g><path d="M5 2H.667C.299 2 0 2.3 0 2.665v9.47c0 .365.299.665.667.665h3.655c.502 0 .994.14 1.419.41l1.004.63c.11.07.255-.01.255-.14V4a2 2 0 0 0-2-2zm6 0h4.333c.368 0 .667.3.667.665v9.47a.668.668 0 0 1-.667.665h-3.655c-.502 0-.995.14-1.419.41l-1.004.63A.166.166 0 0 1 9 13.7V4a2 2 0 0 1 2-2z"/></g></g></symbol><symbol viewBox="0 0 16 16" id="Recommend" xmlns="http://www.w3.org/2000/svg"><path d="M8.167 6.167c-.4-.405-.756-.667-1.335-.667-.753 0-1.332.543-1.332 1.333 0 .689.889 1.744 2.667 3.167 1.777-1.423 2.666-2.478 2.666-3.167 0-.79-.58-1.333-1.333-1.333-.58 0-.933.262-1.333.667zM0 7.185c0 2.345 1.243 4.482 3.358 5.831-.215.48-.449 1.179-.813 1.762-.581.937-.26 1.491 1.208 1.09.123-.039 2.065-.61 3.156-1.368C12.318 14.804 16 11.15 16 7.185 16 3.224 12.412 0 7.999 0 3.589 0 0 3.224 0 7.185z" fill-rule="evenodd"/></symbol><symbol viewBox="0 0 16 16" id="Repost" xmlns="http://www.w3.org/2000/svg"><path d="M10.414 12H13c.553 0 1-.446 1-1V4.667c0-.554-.447-1-1-1h-1a1 1 0 0 1 0-2h1c1.657 0 3 1.341 3 3V11c0 1.658-1.343 3-3 3h-2.586l.293.293a1 1 0 0 1-1.414 1.414l-2-2a1 1 0 0 1 0-1.414l2-2a1 1 0 0 1 1.414 1.414l-.293.293zM5.586 2l-.293-.293A1 1 0 0 1 6.707.293l2 2a1 1 0 0 1 0 1.414l-2 2a1 1 0 0 1-1.414-1.414L5.586 4H3c-.553 0-1 .446-1 1v6c0 .554.447 1 1 1h1a1 1 0 0 1 0 2H3c-1.657 0-3-1.342-3-3V5c0-1.658 1.343-3 3-3h2.586z" fill-rule="nonzero"/></symbol><symbol viewBox="0 0 16 16" id="Save" xmlns="http://www.w3.org/2000/svg"><path d="M1.958 1.583h12.084c.529 0 .958.437.958.976v4.728c0 3.938-3.134 7.13-7 7.13s-7-3.192-7-7.13V2.559c0-.539.43-.976.958-.976zM8 7.586L5.707 5.293a1 1 0 0 0-1.414 1.414l3 3a1 1 0 0 0 1.414 0l3-3a1 1 0 1 0-1.414-1.414L8 7.586z" fill-rule="nonzero"/></symbol><symbol viewBox="0 0 16 16" id="Search" xmlns="http://www.w3.org/2000/svg"><path d="M7 14A7 7 0 1 1 7 0a7 7 0 0 1 0 14zm0-2A5 5 0 1 0 7 2a5 5 0 0 0 0 10zm7.709 1.96a1 1 0 0 1-1.414 1.414l-2.669-2.667a1 1 0 1 1 1.414-1.414l2.669 2.666z" fill-rule="nonzero"/></symbol><symbol viewBox="0 0 16 16" id="Settings" xmlns="http://www.w3.org/2000/svg"><path d="M8 10a2 2 0 1 0 0-4 2 2 0 0 0 0 4zm7.673-3.3c-.02-.005-.073-.02-1.19-.197l-.903-.149a.074.074 0 0 1-.058-.05l-.046-.116a78.068 78.068 0 0 0-.358-.866c-.027-.053-.025-.082-.009-.105l1.217-1.697a.429.429 0 0 0-.029-.535c-.023-.025-.447-.449-1.266-1.267a.43.43 0 0 0-.55-.046l-1.7 1.218c-.062.011-.07.009-.076.005-.333-.14-.955-.398-.976-.406-.077-.032-.08-.05-.084-.069L9.305.36C9.273.149 9.057 0 8.884 0H7.116a.425.425 0 0 0-.423.363l-.337 2.05a.147.147 0 0 1-.039.057c-.124.057-.704.294-.958.397l-.05.02c-.027.015-.038.017-.05.017a.9.9 0 0 1-.13-.077C3.532 1.679 3.51 1.667 3.492 1.655a.443.443 0 0 0-.51.052l-.514.51-.75.751c-.14.161-.159.351-.068.516.074.123.315.456 1.242 1.736.014.02.016.05.003.075l-.05.116c-.12.281-.225.532-.358.865-.018.054-.041.075-.068.079l-2.06.339A.425.425 0 0 0 0 7.116v1.768c0 .21.157.392.365.423l2.054.339c.028.004.05.025.058.05.16.41.268.684.41.991.021.042.02.073.002.096L1.673 12.48l-.068.095v.054a.43.43 0 0 0 .115.406l.079.077 1.17 1.17a.428.428 0 0 0 .555.043l1.674-1.2a.148.148 0 0 1 .058-.02.24.24 0 0 1 .076.018c.375.16.613.264.949.393.048.016.069.038.073.065l.34 2.06c.024.186.222.36.422.36h1.768c.212 0 .39-.153.422-.363l.335-2.032c.019-.053.043-.084.19-.136.314-.124.55-.218.853-.354a.182.182 0 0 1 .061-.015c.006 0 .02 0 .048.016l1.685 1.208c.1.06.176.082.252.082a.425.425 0 0 0 .28-.105l.646-.645c.497-.501.625-.63.668-.684a.401.401 0 0 0 .045-.417c-.063-.118-.187-.288-.497-.708l-.761-1.064a.072.072 0 0 1-.006-.078c.296-.709.376-.904.399-.961.041-.077.058-.09.096-.102 1.998-.322 2.068-.344 2.097-.353a.451.451 0 0 0 .302-.406V8L16 7.116a.425.425 0 0 0-.327-.416z" fill-rule="evenodd"/></symbol><symbol viewBox="0 0 16 16" id="SharedToMe" xmlns="http://www.w3.org/2000/svg"><path d="M16 5.538v6.795A2.667 2.667 0 0 1 13.333 15H2.667A2.667 2.667 0 0 1 0 12.333V5.54m.018-2.181A2.667 2.667 0 0 1 2.667 1h10.666a2.667 2.667 0 0 1 2.65 2.358m0 0L7.998 6.906.018 3.358M0 5.538l7.593 3.376a1 1 0 0 0 .812 0L16 5.538" fill-rule="nonzero"/></symbol><symbol viewBox="0 0 16 16" id="ShortRead" xmlns="http://www.w3.org/2000/svg"><path d="M12.544 6.54l-2.312-.725.711-5.005C11.155.01 10.2-.205 9.836.2L3.16 8c-.318.395-.145 1 .37 1.26l2.305.92-.703 4.995c-.18.68.67 1.105 1.107.61l6.653-8.02c.242-.405.059-1.075-.348-1.225z" fill-rule="evenodd"/></symbol><symbol viewBox="0 0 16 16" id="Smile" xmlns="http://www.w3.org/2000/svg"><g fill-rule="evenodd"><g><path d="M8 16a8 8 0 0 0 8-8 8 8 0 0 0-8-8 8 8 0 0 0-8 8 8 8 0 0 0 8 8zm.005-4c1.395 0 2.606-.655 3.205-1.64.358-.585-.132-1.025-.592-1.025H5.375c-.585 0-.89.565-.593 1.025.597.925 1.827 1.64 3.223 1.64zM6.667 6.335c0 .55-.447 1-1 1-.553 0-1-.45-1-1 0-.555.447-1 1-1 .553 0 1 .445 1 1zm3.666 1c.553 0 1-.45 1-1 0-.555-.447-1-1-1-.553 0-1 .445-1 1 0 .55.447 1 1 1z"/></g></g></symbol><symbol viewBox="0 0 16 16" id="Sort" xmlns="http://www.w3.org/2000/svg"><path fill-rule="evenodd" d="M4.707.293a1 1 0 0 1 0 1.414l-3 3A1 1 0 0 1 .293 3.293l3-3a1 1 0 0 1 1.414 0z" clip-rule="evenodd"/><path fill-rule="evenodd" d="M7.707 4.707a1 1 0 0 0 0-1.414l-3-3a1 1 0 0 0-1.414 1.414l3 3a1 1 0 0 0 1.414 0z" clip-rule="evenodd"/><path fill-rule="evenodd" d="M4 0c.552 0 1 .512 1 1.143v13.714C5 15.488 4.552 16 4 16s-1-.512-1-1.143V1.143C3 .512 3.448 0 4 0zm7.293 15.707a1 1 0 0 1 0-1.414l3-3a1 1 0 0 1 1.414 1.414l-3 3a1 1 0 0 1-1.414 0z" clip-rule="evenodd"/><path fill-rule="evenodd" d="M8.293 11.293a1 1 0 0 0 0 1.414l3 3a1 1 0 0 0 1.414-1.414l-3-3a1 1 0 0 0-1.414 0z" clip-rule="evenodd"/><path fill-rule="evenodd" d="M12 16c-.552 0-1-.512-1-1.143V1.143C11 .512 11.448 0 12 0s1 .512 1 1.143v13.714c0 .631-.448 1.143-1 1.143z" clip-rule="evenodd"/></symbol><symbol viewBox="0 0 16 16" id="SuggestedFollowers" xmlns="http://www.w3.org/2000/svg"><path d="M4.5 7a1.5 1.5 0 1 1 0-3 1.5 1.5 0 0 1 0 3zM6 9c-1.336.667-2.17 1.667-2.5 3H2.049a1 1 0 0 1-.98-1.202C1.318 9.6 2.128 9.002 3.5 9H6zm-1 4.8C5 11.666 6.782 9 10 9s5 2.666 5 4.8c0 .59-.4 1.2-.91 1.2H5.91C5.4 15 5 14.4 5 13.8zM10 7a3 3 0 1 1 0-6 3 3 0 0 1 0 6z" fill-rule="nonzero"/></symbol><symbol viewBox="0 0 16 16" id="Sun" xmlns="http://www.w3.org/2000/svg"><g fill-rule="evenodd"><g><path d="M8 0c.553 0 1 .45 1 1v1c0 .55-.447 1-1 1-.553 0-1-.45-1-1V1c0-.55.447-1 1-1zm0 6a2 2 0 1 0 0 4 2 2 0 0 0 0-4zM4 8a4 4 0 1 1 8 0 4 4 0 0 1-8 0zm5 6c0-.55-.447-1-1-1-.553 0-1 .45-1 1v1c0 .55.447 1 1 1 .553 0 1-.45 1-1v-1zm7-6c0 .55-.448 1-1 1h-1c-.553 0-1-.45-1-1s.447-1 1-1h1c.552 0 1 .45 1 1zM2 9c.553 0 1-.45 1-1s-.447-1-1-1H1c-.552 0-1 .45-1 1s.448 1 1 1h1zm10.243 4.655l-.707-.705a1.001 1.001 0 0 1 1.414-1.415l.707.71a.994.994 0 0 1 0 1.41 1 1 0 0 1-1.414 0zm-9.899-9.9l.707.71A1 1 0 0 0 4.465 3.05l-.707-.705a1 1 0 0 0-1.414 0 .994.994 0 0 0 0 1.41zm0 9.9a.994.994 0 0 1 0-1.41l.707-.71a1 1 0 0 1 1.414 1.415l-.707.705a1 1 0 0 1-1.414 0zM11.536 3.05a1.001 1.001 0 0 0 1.414 1.415l.707-.71a.994.994 0 0 0 0-1.41 1 1 0 0 0-1.414 0l-.707.705z"/></g></g></symbol><symbol viewBox="0 0 16 16" id="Tag" xmlns="http://www.w3.org/2000/svg"><path d="M8.175.586l7.242 7.245a2 2 0 0 1 .003 2.825l-4.731 4.75a2 2 0 0 1-2.827.008L.591 8.192A2 2 0 0 1 0 6.773V1a1 1 0 0 1 1-1h5.76a2 2 0 0 1 1.415.586zM4.443 5.912c.82 0 1.483-.656 1.483-1.466 0-.81-.664-1.467-1.483-1.467-.818 0-1.482.657-1.482 1.467s.664 1.466 1.482 1.466z" fill-rule="nonzero"/></symbol><symbol viewBox="0 0 16 16" id="TextStyle" xmlns="http://www.w3.org/2000/svg"><g fill-rule="evenodd"><g><path d="M11.275 9.395l-.984-3.365-.997 3.365h1.981zM8.31 12.75H5.284l-.412-1.3h-2.18l-.413 1.3H1l1.978-5.835h1.776L6.3 11.53 8.789 4h3.346L15 12.75h-2.74l-.479-1.63H8.789l-.48 1.63zm-3.732-2.235L3.786 7.99l-.8 2.525h1.591z"/></g></g></symbol><symbol viewBox="0 0 16 16" id="Trending" xmlns="http://www.w3.org/2000/svg"><path d="M8 16a8 8 0 0 1-8-8 8 8 0 0 1 8-8 8 8 0 0 1 8 8 8 8 0 0 1-8 8zM6.8 5H11V9.11c0 .555-.448 1-1 1-.553 0-1-.445-1-1v-.695l-2.293 2.29a.992.992 0 0 1-1.414 0 .995.995 0 0 1 0-1.41L7.586 7H6.8a1.001 1.001 0 0 1 0-2z" fill-rule="evenodd"/></symbol><symbol viewBox="0 0 16 16" id="Videos" xmlns="http://www.w3.org/2000/svg"><path d="M2.667 2h4.666A2.667 2.667 0 0 1 10 4.667v6.666A2.667 2.667 0 0 1 7.333 14H2.667A2.667 2.667 0 0 1 0 11.333V4.667A2.667 2.667 0 0 1 2.667 2zm9.646 4.304l2.667-1.667a.667.667 0 0 1 1.02.566v5.594a.667.667 0 0 1-1.02.566l-2.667-1.667A.667.667 0 0 1 12 9.13V6.869c0-.23.118-.443.313-.565z" fill-rule="nonzero"/></symbol></svg>
