<svg xmlns="http://www.w3.org/2000/svg" xmlns:xlink="http://www.w3.org/1999/xlink"><symbol viewBox="0 0 24 24" id="Activity" xmlns="http://www.w3.org/2000/svg"><path d="M2 19a1 1 0 0 1-1-1v-.17a2 2 0 0 1 .54-1.365C3.18 14.71 4 12.555 4 10 4 3.333 6.667 0 12 0s8 3.333 8 10c0 2.56.82 4.715 2.46 6.465a2 2 0 0 1 .54 1.368V18a1 1 0 0 1-1 1H2zm13 2c0 2.01-1.343 3-3 3-1.656 0-3-.991-3-3h6z" fill-rule="evenodd"/></symbol><symbol viewBox="0 0 24 24" id="AddTags" xmlns="http://www.w3.org/2000/svg"><path d="M21 3h2a1 1 0 0 1 0 2h-2v2a1 1 0 0 1-2 0V5h-2a1 1 0 0 1 0-2h2V1a1 1 0 0 1 2 0v2zm0 9.586a2 2 0 0 1 0 2.828l-7.586 7.584a2 2 0 0 1-2.828 0L.586 13A2 2 0 0 1 0 11.586V3a1 1 0 0 1 1-1h8.586A2 2 0 0 1 11 2.586l10 10zM7 11a2 2 0 1 0 0-4 2 2 0 0 0 0 4z" fill-rule="nonzero"/></symbol><symbol viewBox="0 0 4 24" id="AndroidOverflow" xmlns="http://www.w3.org/2000/svg"><path d="M2 7a2 2 0 1 1 0-4 2 2 0 0 1 0 4zm0 7a2 2 0 1 1 0-4 2 2 0 0 1 0 4zm-2 5a2 2 0 1 0 4 0 2 2 0 0 0-4 0z" fill-rule="evenodd"/></symbol><symbol viewBox="0 0 24 24" id="AndroidShare" xmlns="http://www.w3.org/2000/svg"><path d="M17.917 6.16l-10.94 5.47a3.03 3.03 0 0 1 0 .74l10.94 5.47a3 3 0 1 1-.895 1.789l-10.94-5.47a3 3 0 1 1 0-4.319l10.94-5.47a3 3 0 1 1 .895 1.789z" fill-rule="nonzero"/></symbol><symbol viewBox="0 0 24 24" id="Archive" xmlns="http://www.w3.org/2000/svg"><path d="M2 20V7h20v13a3 3 0 0 1-3 3H5a3 3 0 0 1-3-3zm13.293-8.707L11 15.586l-1.293-1.293a1 1 0 1 0-1.414 1.414l2 2a1 1 0 0 0 1.414 0l5-5a1 1 0 0 0-1.414-1.414zM2 1h20a1 1 0 0 1 1 1v2a1 1 0 0 1-1 1H2a1 1 0 0 1-1-1V2a1 1 0 0 1 1-1z" fill-rule="nonzero"/></symbol><symbol viewBox="0 0 24 24" id="Article" xmlns="http://www.w3.org/2000/svg"><path d="M4 0h16a2 2 0 0 1 2 2v20a2 2 0 0 1-2 2H4a2 2 0 0 1-2-2V2a2 2 0 0 1 2-2zm3 19h10a1 1 0 0 0 0-2H7a1 1 0 0 0 0 2zm0-8h10a1 1 0 0 0 0-2H7a1 1 0 1 0 0 2zm0 4h10a1 1 0 0 0 0-2H7a1 1 0 0 0 0 2zm0-8h5a1 1 0 0 0 0-2H7a1 1 0 1 0 0 2z" fill-rule="nonzero"/></symbol><symbol viewBox="0 0 24 24" id="AudioBack" xmlns="http://www.w3.org/2000/svg"><g fill-rule="evenodd"><path d="M22 1c-.552 0-1 .45-1 1v20c0 .55.448 1 1 1s1-.45 1-1V2c0-.55-.448-1-1-1z"/><path d="M2.778 10.455c-1.211.675-1.211 2.415 0 3.09l12.599 7c1.177.65 2.623-.2 2.623-1.545V5c0-1.345-1.446-2.195-2.623-1.545l-12.599 7z" fill-rule="nonzero"/></g></symbol><symbol viewBox="0 0 24 24" id="AudioNext" xmlns="http://www.w3.org/2000/svg"><g fill-rule="evenodd"><g><path d="M3 2c0-.55-.448-1-1-1s-1 .45-1 1v20c0 .55.448 1 1 1s1-.45 1-1V2zm18.222 11.545c1.21-.675 1.21-2.415 0-3.09l-12.599-7C7.447 2.805 6 3.655 6 5v14c0 1.345 1.447 2.195 2.623 1.545l12.599-7z"/></g></g></symbol><symbol viewBox="0 0 24 24" id="BestOf" xmlns="http://www.w3.org/2000/svg"><g fill-rule="evenodd"><path d="M23.252 11.992c.001-.487.207-.975.62-2.182A2.3 2.3 0 0 0 24 9.045c0-.765-.381-1.515-1.056-1.98-1.085-.75-1.55-1.028-1.849-1.433-.294-.39-.426-.907-.83-2.107-.339-1.02-1.317-1.702-2.423-1.702-1.34.007-1.887.044-2.373-.113-.481-.15-.902-.495-1.967-1.238A2.605 2.605 0 0 0 12 0c-.527 0-1.055.158-1.503.472-1.075.75-1.497 1.095-1.98 1.246-.482.15-1.027.112-2.354.105-1.111 0-2.092.682-2.429 1.702-.403 1.2-.538 1.717-.832 2.115-.3.397-.766.675-1.846 1.425A2.426 2.426 0 0 0 0 9.045c0 .255.041.518.128.765.414 1.215.622 1.702.62 2.197 0 .488-.207.976-.62 2.183-.087.248-.128.51-.128.765 0 .765.381 1.507 1.058 1.98 1.081.75 1.547 1.027 1.845 1.433.296.39.43.907.832 2.107.339 1.02 1.317 1.702 2.423 1.702 1.34-.007 1.887-.044 2.373.113.481.15.902.488 1.967 1.238.447.315.975.472 1.502.472s1.055-.157 1.503-.473c1.065-.75 1.485-1.087 1.966-1.245.486-.15 1.034-.112 2.368-.105 1.111 0 2.092-.69 2.43-1.702.402-1.2.534-1.718.828-2.108.299-.405.765-.682 1.85-1.432A2.428 2.428 0 0 0 24 14.955a2.3 2.3 0 0 0-.128-.765c-.414-1.215-.62-1.71-.62-2.197z"/><path d="M12.44 6.85l1.45 2.67 2.568.245a.5.5 0 0 1 .326.83l-1.95 2.194.515 3.058a.5.5 0 0 1-.732.522L12 14.95l-2.617 1.42a.5.5 0 0 1-.732-.522l.515-3.058-1.95-2.194a.5.5 0 0 1 .326-.83l2.568-.246 1.45-2.67a.5.5 0 0 1 .88 0z" fill-rule="nonzero"/></g></symbol><symbol viewBox="0 0 24 24" id="Bookmark" xmlns="http://www.w3.org/2000/svg"><g fill-rule="evenodd"><g><path d="M5 0h14a2 2 0 0 1 2 2v20.945a1 1 0 0 1-1.618.785l-6.147-4.825a1.998 1.998 0 0 0-2.47 0L4.618 23.73A1 1 0 0 1 3 22.945V2a2 2 0 0 1 2-2z" fill-rule="nonzero"/></g></g></symbol><symbol viewBox="0 0 24 24" id="Buffer" xmlns="http://www.w3.org/2000/svg"><path d="M1 5.856c3.333-1.57 6.627-3.102 9.96-4.673.575-.268 1.11-.23 1.685.038a703.196 703.196 0 0 1 9.386 4.406c.23.115.498.191.498.46 0 .344-.307.382-.536.497-2.988 1.418-6.015 2.797-9.003 4.214-.843.383-1.57.383-2.413 0C7.397 9.304 4.18 7.81 1 6.354v-.498zM1 17.77c.613-.306 1.188-.574 1.762-.88.728-.384 1.418-.307 2.145.037 1.916.92 3.87 1.8 5.785 2.72.728.345 1.417.345 2.145 0 1.954-.92 3.907-1.8 5.861-2.758.728-.345 1.417-.345 2.145 0 .422.23.881.421 1.303.613.191.115.46.192.421.46 0 .23-.23.344-.421.421l-4.367 2.069-4.942 2.298c-.651.307-1.302.345-1.954.038-3.103-1.455-6.205-2.873-9.27-4.328-.192-.077-.345-.23-.536-.345C1 18.038 1 17.923 1 17.77zm0-5.938c.46-.23.92-.42 1.34-.65 1.035-.614 1.993-.499 3.065.038 1.8.919 3.64 1.685 5.44 2.566.69.307 1.302.307 1.954 0 1.915-.92 3.869-1.8 5.784-2.72.805-.383 1.57-.421 2.375 0 .422.23.92.422 1.341.652.383.23.345.46 0 .69-.115.076-.23.114-.345.152-3.064 1.418-6.167 2.873-9.232 4.29-.613.307-1.226.307-1.839 0-3.064-1.417-6.167-2.872-9.232-4.29-.23-.115-.421-.268-.651-.383v-.345z" fill-rule="evenodd"/></symbol><symbol viewBox="0 0 24 24" id="CheckFilled" xmlns="http://www.w3.org/2000/svg"><g fill-rule="evenodd"><g><path d="M12 24c6.627 0 12-5.375 12-12S18.627 0 12 0 0 5.375 0 12s5.373 12 12 12zm5.689-15.725a1 1 0 0 1 .035 1.415l-6.648 6.98-.02.02a1.003 1.003 0 0 1-1.414.035l-3.311-2.98a1.004 1.004 0 0 1-.074-1.415 1.004 1.004 0 0 1 1.412-.075l2.61 2.35 5.996-6.295a1.001 1.001 0 0 1 1.414-.035z"/></g></g></symbol><symbol viewBox="0 0 24 24" id="Clock" xmlns="http://www.w3.org/2000/svg"><g fill-rule="evenodd"><g><path d="M12 24c6.627 0 12-5.375 12-12S18.627 0 12 0 0 5.375 0 12s5.373 12 12 12zm1-17c0-.55-.448-1-1-1s-1 .45-1 1v5.94l3.324 3.045a.996.996 0 0 0 1.413-.06.997.997 0 0 0-.061-1.41L13 12.06V7z"/></g></g></symbol><symbol viewBox="0 0 24 24" id="Contacts" xmlns="http://www.w3.org/2000/svg"><g fill-rule="evenodd"><g><path d="M14 0H4a2 2 0 0 0-2 2v20a2 2 0 0 0 2 2h10V0zm2 0v6h6V2a2 2 0 0 0-2-2h-4zm6 8h-6v8h6V8zm0 10h-6v6h4a2 2 0 0 0 2-2v-4z"/></g></g></symbol><symbol viewBox="0 0 24 24" id="Delete" xmlns="http://www.w3.org/2000/svg"><path d="M6 3V2a2 2 0 0 1 2-2h8a2 2 0 0 1 2 2v1h4a1 1 0 0 1 0 2H2a1 1 0 1 1 0-2h4zM3.5 22V7h17v15a2 2 0 0 1-2 2h-13a2 2 0 0 1-2-2z" fill-rule="nonzero"/></symbol><symbol viewBox="0 0 24 24" id="Discover" xmlns="http://www.w3.org/2000/svg"><path d="M5 1h14a4 4 0 0 1 4 4v14a4 4 0 0 1-4 4H5a4 4 0 0 1-4-4V5a4 4 0 0 1 4-4zm7 9c-.6-.607-1.134-1-2.002-1C8.868 9 8 9.815 8 11c0 1.033 1.333 2.7 4 5 2.667-2.3 4-3.967 4-5 0-1.185-.87-2-2-2-.869 0-1.4.393-2 1z" fill-rule="evenodd"/></symbol><symbol viewBox="0 0 24 24" id="Error" xmlns="http://www.w3.org/2000/svg"><g fill-rule="evenodd"><g><path d="M12 24c6.627 0 12-5.375 12-12S18.627 0 12 0 0 5.375 0 12s5.373 12 12 12zm1.035-10.695h-2.084L10.571 6h2.844l-.38 7.305zm.465 3.19c0 .835-.676 1.505-1.507 1.505-.831 0-1.493-.67-1.493-1.505 0-.84.662-1.525 1.493-1.525.831 0 1.507.685 1.507 1.525z"/></g></g></symbol><symbol viewBox="0 0 24 24" id="Facebook" xmlns="http://www.w3.org/2000/svg"><g fill-rule="evenodd"><g><path d="M13.343 23V12.965h3.335l.5-3.91h-3.835v-2.5c0-1.13.311-1.9 1.919-1.9l2.05-.005V1.155C16.957 1.105 15.74 1 14.325 1c-2.956 0-4.98 1.825-4.98 5.17v2.885H6v3.91h3.344V23h3.999z"/></g></g></symbol><symbol viewBox="0 0 24 24" id="Favorite" xmlns="http://www.w3.org/2000/svg"><path d="M12.886.69l3.543 6.759 6.528.42a1 1 0 0 1 .683 1.661l-4.998 5.627 1.448 7.28a1 1 0 0 1-1.449 1.079L12.001 20l-6.642 3.516a1 1 0 0 1-1.449-1.079l1.447-7.28L.363 9.53a1 1 0 0 1 .683-1.662l6.524-.42L11.114.69a1 1 0 0 1 1.772 0z" fill-rule="nonzero"/></symbol><symbol viewBox="0 0 24 24" id="Filters" xmlns="http://www.w3.org/2000/svg"><g fill-rule="evenodd"><g><path d="M3 2c0-.55.448-1 1-1s1 .45 1 1v11.17c1.165.415 2 1.525 2 2.83a3.007 3.007 0 0 1-2 2.83V22c0 .55-.448 1-1 1s-1-.45-1-1v-3.17A3.007 3.007 0 0 1 1 16c0-1.305.835-2.415 2-2.83V2zm8 0c0-.55.448-1 1-1s1 .45 1 1v7.17c1.165.415 2 1.525 2 2.83a3.007 3.007 0 0 1-2 2.83V22c0 .55-.448 1-1 1s-1-.45-1-1v-7.17A3.007 3.007 0 0 1 9 12c0-1.305.835-2.415 2-2.83V2zm9-1c-.552 0-1 .45-1 1v3.17A3.007 3.007 0 0 0 17 8c0 1.305.835 2.415 2 2.83V22c0 .55.448 1 1 1s1-.45 1-1V10.83A3.007 3.007 0 0 0 23 8a3.007 3.007 0 0 0-2-2.83V2c0-.55-.448-1-1-1z"/></g></g></symbol><symbol viewBox="0 0 24 24" id="Firefox" xmlns="http://www.w3.org/2000/svg"><path fill-rule="evenodd" clip-rule="evenodd" d="M23.185 10.97c-.034-.218-.067-.345-.067-.345s-.085.098-.226.284a7.934 7.934 0 0 0-.279-1.53 10.445 10.445 0 0 0-.704-1.814 7.533 7.533 0 0 0-.645-1.104 9.856 9.856 0 0 0-.269-.383c-.429-.7-.921-1.129-1.49-1.938a5.877 5.877 0 0 1-.746-2.02c-.156.43-.276.872-.358 1.322-.585-.59-1.092-1.009-1.4-1.295C15.487.733 15.663 0 15.663 0s-2.829 3.157-1.603 6.445a6.32 6.32 0 0 0 2.107 2.808c1.185.978 2.46 1.748 3.135 3.713a6.309 6.309 0 0 0-2.366-2.494c.303.714.457 1.481.452 2.257a5.359 5.359 0 0 1-6.552 5.219 4.923 4.923 0 0 1-1.328-.45 5.406 5.406 0 0 1-1.59-1.471l-.009-.013.096.035c.22.076.447.137.677.18a4.225 4.225 0 0 0 2.695-.318c.847-.47 1.359-.818 1.776-.68h.007c.406.13.727-.265.437-.677a2.213 2.213 0 0 0-2.143-.837c-.847.123-1.624.726-2.735.143a2.286 2.286 0 0 1-.209-.123c-.075-.043.239.066.165.017a5.495 5.495 0 0 1-.697-.418c-.017-.013.167.054.15.04a2.71 2.71 0 0 1-.728-.736c-.2-.36-.218-.793-.05-1.17.103-.183.26-.332.452-.423.143.07.231.124.231.124s-.064-.12-.1-.184c.013-.004.024 0 .036-.008.126.054.405.196.551.282.1.055.187.132.253.226 0 0 .05-.025.012-.13a.675.675 0 0 0-.26-.32h.012a2.2 2.2 0 0 1 .32.2c.093-.214.137-.445.129-.677a.9.9 0 0 0-.052-.376c-.04-.075.022-.105.092-.026a.736.736 0 0 0-.06-.18v-.006s.04-.051.059-.07c.05-.05.104-.094.162-.133.35-.217.72-.405 1.101-.561.313-.137.57-.24.623-.27a1.84 1.84 0 0 0 .22-.17c.26-.22.435-.523.497-.857.007-.045.01-.09.013-.134v-.08c-.045-.168-.337-.295-1.863-.438a1.332 1.332 0 0 1-1.09-1.023v.006-.012c.29-.76.813-1.41 1.493-1.855.04-.031-.157.009-.117-.024.13-.064.263-.12.398-.168.07-.029-.292-.167-.613-.133-.195.01-.388.055-.568.134.075-.065.301-.15.248-.15-.41.078-.801.226-1.16.438 0-.037.007-.072.022-.106a1.803 1.803 0 0 0-.725.56.953.953 0 0 0 .007-.13c-.13.096-.25.208-.355.333l-.007.005a4.726 4.726 0 0 0-2.646-.225l-.007-.007h.01a2.208 2.208 0 0 1-.47-.527l-.013.003-.014-.016a4.13 4.13 0 0 1-.31-.545c0-.006-.008-.009-.011-.01-.018 0-.031.084-.045.062v-.004a3.222 3.222 0 0 1-.213-1.27l-.012.007c-.25.17-.438.417-.537.702-.046.103-.076.16-.106.216v-.026c.007-.052.03-.159.024-.15l-.014.021a1.261 1.261 0 0 0-.189.28 1.688 1.688 0 0 0-.113.287c-.004.016 0-.013 0-.048 0-.034.007-.096 0-.083l-.017.032a7.154 7.154 0 0 0-.6 2.283c-.021.134-.029.27-.024.405v.012c-.233.253-.44.53-.615.827a11.792 11.792 0 0 0-1.3 3.182c.196-.427.429-.835.697-1.22A11.27 11.27 0 0 0 0 13.46c.088-.415.2-.825.338-1.226-.084 1.672.238 3.34.94 4.862a11.307 11.307 0 0 0 4.475 5.076 9.802 9.802 0 0 0 2.608 1.25c.123.044.246.088.373.13-.04-.015-.076-.033-.115-.05 1.098.33 2.237.497 3.384.498 4.057 0 5.397-1.545 5.52-1.7.2-.18.364-.4.48-.643.078-.032.156-.067.237-.104l.05-.022.09-.043a8.454 8.454 0 0 0 1.714-1.072 4.145 4.145 0 0 0 1.597-2.332c.143-.342.151-.727.022-1.075.041-.065.084-.135.128-.21a9.56 9.56 0 0 0 1.435-4.649v-.138c0-.35-.03-.698-.091-1.042z"/></symbol><symbol viewBox="0 0 24 24" id="Follow" xmlns="http://www.w3.org/2000/svg"><path d="M21 9h2a1 1 0 0 1 0 2h-2v2a1 1 0 0 1-2 0v-2h-2a1 1 0 0 1 0-2h2V7a1 1 0 0 1 2 0v2zM1 20c0-4.35 3.919-8 9-8 5.082 0 9 3.65 9 8 0 1.534-1.12 3-2.6 3H3.6C2.118 23 1 21.545 1 20zm9-10a4.5 4.5 0 1 1 0-9 4.5 4.5 0 0 1 0 9z" fill-rule="nonzero"/></symbol><symbol viewBox="0 0 24 24" id="Following" xmlns="http://www.w3.org/2000/svg"><path d="M18.293 11.293l4-4c.943-.943 2.357.471 1.414 1.414l-4 4c-.943.943-2.357-.471-1.414-1.414zM1 20c0-4.35 3.919-8 9-8 5.082 0 9 3.65 9 8 0 1.534-1.12 3-2.6 3H3.6C2.118 23 1 21.545 1 20zm9-10a4.5 4.5 0 1 1 0-9 4.5 4.5 0 0 1 0 9zm6.293.707c-.943-.943.471-2.357 1.414-1.414l2 2c.943.943-.471 2.357-1.414 1.414l-2-2z" fill-rule="nonzero"/></symbol><symbol viewBox="0 0 24 24" id="Google" xmlns="http://www.w3.org/2000/svg"><path fill-rule="evenodd" clip-rule="evenodd" d="M12 10.286V14.4h6.806c-.275 1.766-2.057 5.177-6.806 5.177-4.097 0-7.44-3.394-7.44-7.577S7.903 4.423 12 4.423c2.331 0 3.891.994 4.783 1.851l3.257-3.137C17.949 1.183 15.24 0 12 0 5.366 0 0 5.366 0 12s5.366 12 12 12c6.926 0 11.52-4.869 11.52-11.726 0-.788-.086-1.388-.189-1.988H12z"/></symbol><symbol viewBox="0 0 24 24" id="Grid" xmlns="http://www.w3.org/2000/svg"><path d="M3 1h6a2 2 0 0 1 2 2v6a2 2 0 0 1-2 2H3a2 2 0 0 1-2-2V3a2 2 0 0 1 2-2zm12 0h6a2 2 0 0 1 2 2v6a2 2 0 0 1-2 2h-6a2 2 0 0 1-2-2V3a2 2 0 0 1 2-2zM3 13h6a2 2 0 0 1 2 2v6a2 2 0 0 1-2 2H3a2 2 0 0 1-2-2v-6a2 2 0 0 1 2-2zm12 0h6a2 2 0 0 1 2 2v6a2 2 0 0 1-2 2h-6a2 2 0 0 1-2-2v-6a2 2 0 0 1 2-2z" fill-rule="evenodd"/></symbol><symbol viewBox="0 0 24 25" id="Highlights" xmlns="http://www.w3.org/2000/svg"><path d="M7.16 21.82l-1.657 1.325a1 1 0 0 1-.967.159l-3.683-1.34a1 1 0 0 1-.448-1.554l2.337-3.008-.026-.025a2 2 0 0 1-.16-2.65l.826-1.051 7.507 7.507-1.062.826a2 2 0 0 1-2.642-.164l-.026-.025zM18.641 1.58l4.335 4.335a2 2 0 0 1 .224 2.562L15.424 19.57a2 2 0 0 1-3.052.266l-7.643-7.643a2 2 0 0 1 .265-3.051l11.085-7.784a2 2 0 0 1 2.563.223z" fill-rule="nonzero"/></symbol><symbol viewBox="0 0 24 24" id="Home" xmlns="http://www.w3.org/2000/svg"><path d="M23 9.726V22a1 1 0 0 1-1 1h-5a1 1 0 0 1-1-1v-5a4.002 4.002 0 0 0-4-4.003c-2.22 0-4 1.804-4 4.003v5a1 1 0 0 1-1 1H2a1 1 0 0 1-1-1V9.726a2 2 0 0 1 .754-1.565L11.377.496a1 1 0 0 1 1.246 0l9.623 7.665A2 2 0 0 1 23 9.726z" fill-rule="evenodd"/></symbol><symbol viewBox="0 0 24 24" id="IOSOverflow" xmlns="http://www.w3.org/2000/svg"><path d="M3 15a3 3 0 1 1 0-6 3 3 0 0 1 0 6zm9 0a3 3 0 1 1 0-6 3 3 0 0 1 0 6zm9 0a3 3 0 1 1 0-6 3 3 0 0 1 0 6z" fill-rule="nonzero"/></symbol><symbol viewBox="0 0 24 24" id="Lightbulb" xmlns="http://www.w3.org/2000/svg"><path d="M18.376 13.955C19.647 12.035 21 9.99 21 7.525 21 2.675 16.497 0 11.995 0 7.497 0 3 2.67 3 7.525c0 2.465 1.352 4.505 2.624 6.43.912 1.375 1.782 2.69 2.085 4.055.119.535.56.99 1.113.99h6.357c.552 0 .993-.455 1.112-.99.303-1.365 1.173-2.68 2.085-4.055zM15 21a3.001 3.001 0 0 1-6 0h6z" fill-rule="evenodd"/></symbol><symbol viewBox="0 0 24 24" id="Like" xmlns="http://www.w3.org/2000/svg"><path d="M12 4c-1.053-2.049-2.915-3-6-3-3.059 0-6 2.712-6 7 0 3.89 3.785 9.043 11.354 15.457a1 1 0 0 0 1.292 0C20.216 17.043 24 11.89 24 8c0-4.298-2.964-7-6-7-2.982 0-4.882.937-6 3z" fill-rule="evenodd"/></symbol><symbol viewBox="0 0 24 24" id="LinkedIn" xmlns="http://www.w3.org/2000/svg"><path d="M19.208 19.009h-2.893v-4.683c0-1.24-.224-1.981-1.257-1.981-.743 0-1.301.405-1.671.793v5.871h-2.893v-8.61h2.893v1.15c.504-.544 1.371-1.219 2.584-1.219 2.031 0 3.237 1.309 3.237 3.996v4.683zM6.965 9.16a1.67 1.67 0 1 1 0-3.34 1.67 1.67 0 0 1 0 3.34zm1.465 9.849H5.537v-8.61H8.43v8.61zM22.893 1.727a1.339 1.339 0 0 0-.269-.404 1.057 1.057 0 0 0-.375-.242A1.367 1.367 0 0 0 21.766 1H2.234c-.18 0-.341.027-.483.081a1.049 1.049 0 0 0-.375.242 1.303 1.303 0 0 0-.269.404A1.122 1.122 0 0 0 1 2.184v19.633c0 .144.035.296.107.457.071.162.161.296.269.404.107.107.232.188.375.242.142.054.303.08.483.08h19.532c.178 0 .339-.026.483-.08.142-.054.268-.135.375-.242.108-.108.196-.242.269-.404.071-.161.107-.313.107-.457V2.184c0-.143-.036-.296-.107-.457z" fill-rule="evenodd"/></symbol><symbol viewBox="0 0 24 24" id="Listen" xmlns="http://www.w3.org/2000/svg"><path d="M21 13v-1a9 9 0 0 0-9-9 9 9 0 0 0-9 9v1h3a2 2 0 0 1 2 2v6a2 2 0 0 1-2 2H3a2 2 0 0 1-2-2v-9C1 5.925 5.925 1 12 1s11 4.925 11 11v9a2 2 0 0 1-2 2h-3a2 2 0 0 1-2-2v-6a2 2 0 0 1 2-2h3z" fill-rule="nonzero"/></symbol><symbol viewBox="0 0 24 24" id="LongRead" xmlns="http://www.w3.org/2000/svg"><path d="M19 22h1.998a1 1 0 0 1 0 2H19v.017H5V24H3a1 1 0 0 1 0-2h2v-5.982l5.328-4.01L5 8V2H3a1 1 0 1 1 0-2h17.998a1 1 0 0 1 0 2H19v5.999l-5.328 4.01L19 16.019V22zM7 6.03V7l5 3.763 5-3.763V6.03H7zM7 19v3h10v-3H7z" fill-rule="nonzero"/></symbol><symbol viewBox="0 0 24 24" id="Pause" xmlns="http://www.w3.org/2000/svg"><g fill-rule="evenodd"><g><path d="M5.5 1A2.5 2.5 0 0 0 3 3.5v17a2.5 2.5 0 0 0 5 0v-17A2.5 2.5 0 0 0 5.5 1zm13 0A2.5 2.5 0 0 0 16 3.5v17a2.5 2.5 0 0 0 5 0v-17A2.5 2.5 0 0 0 18.5 1z"/></g></g></symbol><symbol viewBox="0 0 24 24" id="Pencil" xmlns="http://www.w3.org/2000/svg"><g fill-rule="evenodd"><g><path d="M21.454 7.335L16.59 2.47a2.001 2.001 0 0 0-2.829 0l-1.724 1.725 7.692 7.69 1.725-1.725a1.996 1.996 0 0 0 0-2.825zM18.315 13.3l-7.692-7.69-7.274 7.27c-.313.315-.512.72-.57 1.16l-.897 6.88a1 1 0 0 0 1.12 1.12l6.883-.895c.437-.06.843-.26 1.155-.57l7.275-7.275z"/></g></g></symbol><symbol viewBox="0 0 24 24" id="Play" xmlns="http://www.w3.org/2000/svg"><path d="M22.601 13.773l-16.676 8.7A2 2 0 0 1 3 20.702V3.299a2 2 0 0 1 2.925-1.773l16.676 8.7a2 2 0 0 1 0 3.547z" fill-rule="nonzero"/></symbol><symbol viewBox="0 0 24 24" id="Premium" xmlns="http://www.w3.org/2000/svg"><g fill-rule="evenodd"><g><path d="M5.342 7H.561c.048-.125.11-.25.185-.365L3.773 1.92A1.996 1.996 0 0 1 5.456 1h2.456L5.38 6.905 5.342 7zM10 1c0 .13-.026.265-.081.395L7.516 7h8.968L14.08 1.395A1.025 1.025 0 0 1 14 1h-4zm6.088 0l2.532 5.905.038.095h4.781a2.022 2.022 0 0 0-.185-.365L20.227 1.92A1.996 1.996 0 0 0 18.544 1h-2.456zm7.02 8h-4.387l-.013.04-3.578 10.735L23.109 9zM12.068 22.64L16.612 9H7.388l4.545 13.64h.134zM8.87 19.775L5.292 9.04 5.279 9H.891L8.87 19.775z"/></g></g></symbol><symbol viewBox="0 0 24 24" id="Profile" xmlns="http://www.w3.org/2000/svg"><path d="M1 21c0-3.556 3.92-8 11-8s11 4.444 11 8c0 .984-.881 2-2 2H3c-1.119 0-2-.999-2-2zm11-11a4.5 4.5 0 1 1 0-9 4.5 4.5 0 0 1 0 9z" fill-rule="evenodd"/></symbol><symbol viewBox="0 0 24 24" id="ReAdd" xmlns="http://www.w3.org/2000/svg"><g fill-rule="evenodd"><g><path d="M18.546 0H5.454A5.453 5.453 0 0 0 0 5.455v13.09A5.453 5.453 0 0 0 5.454 24h13.092A5.453 5.453 0 0 0 24 18.545V5.455A5.453 5.453 0 0 0 18.546 0zM12 7c.552 0 1 .45 1 1v3h3c.552 0 1 .45 1 1s-.448 1-1 1h-3v3c0 .55-.448 1-1 1s-1-.45-1-1v-3H8c-.552 0-1-.45-1-1s.448-1 1-1h3V8c0-.55.448-1 1-1z"/></g></g></symbol><symbol viewBox="0 0 24 24" id="Reading" xmlns="http://www.w3.org/2000/svg"><g fill-rule="evenodd"><g><path d="M21 3v5.4a.25.25 0 0 1-.426.18l-1.398-1.385a.253.253 0 0 0-.352 0L17.426 8.58A.25.25 0 0 1 17 8.4V3h4zM8 3H1c-.552 0-1 .45-1 1v14.2c0 .55.448 1 1 1h6.465c.988 0 1.941.365 2.676 1.025l.442.4A.25.25 0 0 0 11 20.44V6c0-1.655-1.343-3-3-3zm8 0h7c.552 0 1 .45 1 1v14.2c0 .55-.448 1-1 1h-6.465c-.988 0-1.941.365-2.676 1.025l-.442.4A.25.25 0 0 1 13 20.44V6c0-1.655 1.343-3 3-3z"/></g></g></symbol><symbol viewBox="0 0 24 24" id="Recommend" xmlns="http://www.w3.org/2000/svg"><path d="M.5 10.88C.5 5.144 5.67.5 11.998.5 18.33.5 23.5 5.143 23.5 10.88c0 6.041-5.597 10.894-12.859 10.565-.446.293-.989.576-1.61.852-.576.255-1.19.49-1.81.703a26.223 26.223 0 0 1-.93.3c-2.319.635-3.329-.452-2.215-2.245.148-.237.288-.504.431-.814.101-.22.33-.77.49-1.156C2.152 17.125.5 14.136.5 10.88zM12 9c-.6-.607-1.134-1-2.002-1C8.868 8 8 8.815 8 10c0 1.033 1.333 2.7 4 5 2.667-2.3 4-3.967 4-5 0-1.185-.87-2-2-2-.869 0-1.4.393-2 1z" fill-rule="nonzero"/></symbol><symbol viewBox="0 0 24 24" id="Reddit" xmlns="http://www.w3.org/2000/svg"><path d="M23 11.974a2.407 2.407 0 0 0-4.077-1.732c-1.646-1.188-3.913-1.955-6.438-2.043l1.096-5.16 3.583.762a1.716 1.716 0 0 0 3.431-.081 1.714 1.714 0 1 0-3.255-.76l-4-.85a.427.427 0 0 0-.51.33l-1.225 5.758c-2.562.07-4.866.839-6.533 2.04a2.407 2.407 0 1 0-2.65 3.931c-.037.24-.057.482-.057.728 0 3.704 4.311 6.706 9.63 6.706 5.318 0 9.63-3.002 9.63-6.706 0-.244-.02-.486-.057-.723a2.407 2.407 0 0 0 1.432-2.2" fill-rule="evenodd"/></symbol><symbol viewBox="0 0 24 24" id="Repost" xmlns="http://www.w3.org/2000/svg"><path d="M14.446 18H19.5c.83 0 1.5-.67 1.5-1.5V7c0-.83-.67-1.5-1.5-1.5H18a1.5 1.5 0 0 1 0-3h1.5C21.986 2.5 24 4.512 24 7v9.5c0 2.488-2.014 4.5-4.5 4.5h-5.054l.445.478a1.5 1.5 0 1 1-2.196 2.044l-2.793-3a1.5 1.5 0 0 1 0-2.044l2.793-3a1.5 1.5 0 1 1 2.196 2.044l-.445.478zM9.379 3l-.44-.44A1.5 1.5 0 1 1 11.061.44l3 3a1.5 1.5 0 0 1 0 2.12l-3 3a1.5 1.5 0 0 1-2.122-2.12L9.38 6H4.5C3.67 6 3 6.67 3 7.5v9c0 .83.67 1.5 1.5 1.5H6a1.5 1.5 0 0 1 0 3H4.5A4.498 4.498 0 0 1 0 16.5v-9C0 5.012 2.014 3 4.5 3h4.879z" fill-rule="nonzero"/></symbol><symbol viewBox="0 0 24 24" id="Save" xmlns="http://www.w3.org/2000/svg"><path d="M1.643 2h20.714C23.264 2 24 2.715 24 3.597v7.736C24 17.777 18.628 23 12 23S0 17.777 0 11.333V3.597C0 2.715.736 2 1.643 2zm14.306 6.43L12 12.304 8.05 8.429a1.5 1.5 0 0 0-2.1 2.142l5 4.906a1.5 1.5 0 0 0 2.1 0l5-4.906a1.5 1.5 0 0 0-2.1-2.142z" fill-rule="evenodd"/></symbol><symbol viewBox="0 0 24 24" id="Search" xmlns="http://www.w3.org/2000/svg"><path d="M16.7 19.82A10.45 10.45 0 0 1 11 21.5C5.201 21.5.5 16.799.5 11S5.201.5 11 .5 21.5 5.201 21.5 11c0 2.614-.955 5.005-2.536 6.843l3.099 3.096a1.5 1.5 0 1 1-2.12 2.122l-3.244-3.24zM11 18.5a7.5 7.5 0 1 0 0-15 7.5 7.5 0 0 0 0 15z" fill-rule="nonzero"/></symbol><symbol viewBox="0 0 24 24" id="Serif" xmlns="http://www.w3.org/2000/svg"><g fill-rule="evenodd"><path d="M13.652 17.625l-2.163-.53 1-2.845h5.65l1.024 2.87-2.419.505L16.86 19h7.024L24 17.625l-1.465-.485L17.302 4l-2.697.32-5.003 12.49L6.395 9l-1.854.215-3.518 8.515L0 18.085.08 19h3.725l.08-.915-1.486-.355.687-1.895h3.885l.704 1.91-1.663.34.08.915h7.443l.117-1.375zm1-9.475l.65-1.995.651 1.995 1.652 4.635h-4.582l1.629-4.635zm-10.08 3.62l.449-1.33.447 1.33 1.136 3.085H3.453l1.12-3.085z"/></g></symbol><symbol viewBox="0 0 24 24" id="Settings" xmlns="http://www.w3.org/2000/svg"><path d="M23.5 10.784L23.499 12v1.214c0 .434-.285.855-.772 1.038-.124.037-.697.136-2.749.463-.071.174-.202.488-.416 1l.914 1.277c.518.703.628.857.735 1.061a.71.71 0 0 1 .048.13c.114.366.028.7-.173.965-.072.09-.11.13-.956.983l-.917.913c-.2.171-.448.264-.709.264-.21 0-.403-.061-.646-.212l-.504-.362-1.046-.749c-.332-.237-.385-.276-.584-.42-.292.128-.558.237-1.005.413l-.429 2.599a1.085 1.085 0 0 1-1.075.922l-1.929.001h-.501c-.523 0-1.012-.421-1.073-.913l-.43-2.605a22.26 22.26 0 0 1-.23-.092l-.136-.056c-.18-.074-.269-.112-.634-.27l-2.143 1.537a1.088 1.088 0 0 1-1.41-.11l-1.606-1.606-.11-.107a1.09 1.09 0 0 1-.306-.964v-.187l.095-.131.093-.128 1.538-2.145c-.12-.268-.23-.536-.412-1.004l-2.593-.428c-.53-.08-.928-.54-.928-1.076v-2.43c0-.537.387-.993.912-1.074l2.608-.43c.13-.321.247-.602.415-.998-1.321-1.826-1.492-2.065-1.604-2.251-.23-.417-.17-.904.177-1.305l1.033-1.032c.468-.467.647-.644.717-.713.227-.211.492-.284.749-.284.193 0 .382.05.544.145.063.037.367.253 2.23 1.594.412-.167.778-.317 1-.41l.428-2.603A1.085 1.085 0 0 1 10.784.5h2.431c.498 0 .995.396 1.072.912l.431 2.61c.224.094.645.27.994.418l2.162-1.55a1.09 1.09 0 0 1 1.396.118 347.065 347.065 0 0 1 1.765 1.766c.337.385.367.947.07 1.357l-1.541 2.15c.112.267.278.67.413 1l1.015.167c1.232.196 1.59.257 1.685.281.49.128.829.558.823 1.055zM12 15a3 3 0 1 0 0-6 3 3 0 0 0 0 6zm8.067-5.49l-.014-.038.014.038zm-4.194-5.001l.112.048a.795.795 0 0 0-.123-.066l.011.018zm-1.279-.533l-.018-.012a1.521 1.521 0 0 0-.015-.006c.01.004.021.01.033.018zm-6.194.54l-.015-.009.049.029a2.002 2.002 0 0 1-.034-.02zM4.542 8.04l-.027.06a.404.404 0 0 1 .027-.06zm-.587 1.404zm.007 5.122v-.009a.4.4 0 0 1-.034-.079l.034.088zm.553 1.337zm4.942 4.146z" fill-rule="nonzero"/></symbol><symbol viewBox="0 0 24 24" id="SharedToMe" xmlns="http://www.w3.org/2000/svg"><path d="M23 8.024V17a4 4 0 0 1-4 4H5a4 4 0 0 1-4-4V8.025m.155-2.132A4.002 4.002 0 0 1 5 3h14a4.002 4.002 0 0 1 3.845 2.893m0 0L12 10.899 1.155 5.893M1 8.025l10.58 4.883a1 1 0 0 0 .838 0L23 8.024" fill-rule="nonzero"/></symbol><symbol viewBox="0 0 24 24" id="ShortRead" xmlns="http://www.w3.org/2000/svg"><path d="M18.316 9.81l-3.468-1.088 1.067-7.507c.317-1.2-1.116-1.523-1.66-.916L4.238 12c-.476.593-.216 1.5.557 1.89l3.457 1.38-1.055 7.493c-.27 1.02 1.004 1.658 1.66.915l9.98-12.03c.363-.607.088-1.612-.522-1.837z" fill-rule="evenodd"/></symbol><symbol viewBox="0 0 24 24" id="Smile" xmlns="http://www.w3.org/2000/svg"><g fill-rule="evenodd"><g><path d="M16.814 15.54C15.916 17.015 14.1 18 12.007 18c-2.095 0-3.938-1.075-4.833-2.46-.447-.685.011-1.54.888-1.54h7.865c.689 0 1.426.66.887 1.54zM24 12c0 6.625-5.373 12-12 12S0 18.625 0 12 5.373 0 12 0s12 5.375 12 12zM10 9.5a1.5 1.5 0 1 1-2.999.001A1.5 1.5 0 0 1 10 9.5zm5.5 1.5a1.5 1.5 0 1 0 .001-2.999A1.5 1.5 0 0 0 15.5 11z"/></g></g></symbol><symbol viewBox="0 0 24 24" id="SuggestedFollowing" xmlns="http://www.w3.org/2000/svg"><path d="M6 20c0-4.35 3.919-8 9-8 5.082 0 9 3.65 9 8 0 1.534-1.12 3-2.6 3H8.6C7.118 23 6 21.545 6 20zm9-10a5 5 0 1 1 0-10 5 5 0 0 1 0 10zM5 10a3 3 0 1 1 0-6 3 3 0 0 1 0 6zm.5 2a1 1 0 0 1 .778 1.629c-1.206 1.49-1.97 3.015-2.304 4.58a1 1 0 0 1-.978.791h-.944a2 2 0 0 1-1.988-2.217c.337-3.08 2.061-4.779 4.94-4.783H5.5z" fill-rule="nonzero"/></symbol><symbol viewBox="0 0 24 24" id="Tag" xmlns="http://www.w3.org/2000/svg"><path d="M23 12.086a2 2 0 0 1 0 2.828l-8.086 8.087a2 2 0 0 1-2.828 0L1.586 12.5A2 2 0 0 1 1 11.086V2a1 1 0 0 1 1-1h9.086a2 2 0 0 1 1.414.586l10.5 10.5zM8 10a2 2 0 1 0 0-4 2 2 0 0 0 0 4z" fill-rule="nonzero"/></symbol><symbol viewBox="0 0 24 24" id="TextSize" xmlns="http://www.w3.org/2000/svg"><g fill-rule="evenodd"><g><path d="M11.532 7.485l1.688 5.765H9.822l1.71-5.765zM4 19h4.134l.822-2.79h5.13l.822 2.79h4.697L14.691 4H8.956L4 19z" fill-rule="nonzero"/></g></g></symbol><symbol viewBox="0 0 24 24" id="TextStyle" xmlns="http://www.w3.org/2000/svg"><g fill-rule="evenodd"><g><path d="M17.615 13.25l-1.687-5.77-1.71 5.77h3.397zM12.53 19H7.344l-.707-2.225H2.9L2.194 19H0L3.39 9h3.045l2.65 7.915L13.352 4h5.735L24 19h-4.697l-.822-2.79h-5.13L12.53 19zm-6.398-3.83l-1.356-4.325-1.37 4.325h2.726z"/></g></g></symbol><symbol viewBox="0 0 24 24" id="Trending" xmlns="http://www.w3.org/2000/svg"><path d="M16.5 6.5H10a1 1 0 1 0 0 2h4.086l-6.793 6.793a1 1 0 0 0 1.414 1.414L15.5 9.914V14a1 1 0 0 0 2 0V7.5a.997.997 0 0 0-1-1zM12 24C5.373 24 0 18.63 0 12S5.373 0 12 0s12 5.37 12 12-5.373 12-12 12z" fill-rule="evenodd"/></symbol><symbol viewBox="0 0 24 24" id="Tumblr" xmlns="http://www.w3.org/2000/svg"><path d="M14.225 22.194l-.156.001c-4.764 0-5.798-3.502-5.798-5.547v-5.68H6.394A.394.394 0 0 1 6 10.572V7.89c0-.283.179-.535.445-.63C8.891 6.4 9.658 4.267 9.772 2.645c.03-.434.257-.644.634-.644h2.798c.218 0 .395.177.395.394v4.543h3.274c.217 0 .394.176.394.394v3.221a.394.394 0 0 1-.394.395h-3.29v5.252c0 1.318.868 1.683 1.405 1.683a3.952 3.952 0 0 0 1.276-.27c.19-.077.355-.127.503-.09.138.035.23.133.29.311l.869 2.536c.07.201.13.421-.015.577-.683.73-2.267 1.225-3.686 1.248z" fill-rule="evenodd"/></symbol><symbol viewBox="0 0 24 24" id="Twitter" xmlns="http://www.w3.org/2000/svg"><g fill-rule="evenodd"><g><path d="M23 5.13a8.863 8.863 0 0 1-2.592.715 4.561 4.561 0 0 0 1.985-2.51c-.867.52-1.839.9-2.865 1.105A4.497 4.497 0 0 0 16.232 3c-2.495 0-4.516 2.035-4.516 4.545 0 .36.045.705.119 1.035-3.754-.185-7.079-2-9.304-4.745A4.551 4.551 0 0 0 3.929 9.9a4.614 4.614 0 0 1-2.049-.565v.05a4.533 4.533 0 0 0 3.623 4.455c-.381.11-.779.16-1.192.16-.287 0-.572-.025-.846-.075a4.507 4.507 0 0 0 4.214 3.15A9.017 9.017 0 0 1 1 18.96 12.733 12.733 0 0 0 7.914 21c8.307 0 12.847-6.92 12.847-12.93 0-.195-.007-.39-.014-.59A9.172 9.172 0 0 0 23 5.13z"/></g></g></symbol><symbol viewBox="0 0 24 24" id="Videos" xmlns="http://www.w3.org/2000/svg"><path d="M4 3h8a4 4 0 0 1 4 4v10a4 4 0 0 1-4 4H4a4 4 0 0 1-4-4V7a4 4 0 0 1 4-4zm14.504 6.432l4-2.284A1 1 0 0 1 24 8.016v7.976a1 1 0 0 1-1.496.868l-4-2.284a1 1 0 0 1-.504-.868V10.3a1 1 0 0 1 .504-.869z" fill-rule="nonzero"/></symbol><symbol viewBox="0 0 24 24" id="WebView" xmlns="http://www.w3.org/2000/svg"><g fill-rule="evenodd"><g><path d="M23.317 16c.443-1.25.683-2.595.683-4 0-1.4-.24-2.75-.683-4h-4.596c.182 1.27.279 2.615.279 4 0 1.385-.097 2.73-.28 4h4.597zm-.923 2h-4.042c-.306 1.335-.713 2.55-1.202 3.61-.262.57-.559 1.115-.89 1.61A12.029 12.029 0 0 0 22.394 18zM12 24c1.031 0 2.283-.95 3.335-3.225.373-.81.698-1.745.959-2.775H7.706c.261 1.03.586 1.965.959 2.775C9.717 23.05 10.969 24 12 24zM22.394 6A12.029 12.029 0 0 0 16.26.78c.331.495.628 1.04.89 1.61.49 1.06.896 2.275 1.202 3.61h4.042zM7.74.78A12.037 12.037 0 0 0 1.606 6h4.042c.306-1.335.713-2.55 1.202-3.61.262-.57.559-1.115.89-1.61zM.683 8A11.945 11.945 0 0 0 0 12c0 1.4.24 2.75.683 4h4.596A28.296 28.296 0 0 1 5 12c0-1.385.097-2.73.28-4H.682zm.923 10a12.029 12.029 0 0 0 6.134 5.22c-.331-.495-.628-1.04-.89-1.61-.49-1.06-.896-2.275-1.202-3.61H1.606zM12 0c-1.031 0-2.283.95-3.335 3.225-.373.81-.698 1.745-.959 2.775h8.588a16.171 16.171 0 0 0-.959-2.775C14.283.95 13.031 0 12 0zM7.301 16A26.11 26.11 0 0 1 7 12c0-1.405.106-2.75.301-4h9.398A26.11 26.11 0 0 1 17 12c0 1.405-.106 2.75-.301 4H7.301z"/></g></g></symbol></svg>
